<?xml version="1.0" encoding="UTF-8"?>
<!--Generator: Apple Native CoreSVG 175-->
<!DOCTYPE svg
PUBLIC "-//W3C//DTD SVG 1.1//EN"
       "http://www.w3.org/Graphics/SVG/1.1/DTD/svg11.dtd">
<svg version="1.1" xmlns="http://www.w3.org/2000/svg" xmlns:xlink="http://www.w3.org/1999/xlink" width="3300" height="2200">
 <!--glyph: "uni1000AC.medium", point size: 100.0, font version: "17.0d11e1", template writer version: "65.1"-->
 <g id="Notes">
  <rect height="2200" id="artboard" style="fill:white;opacity:1" width="3300" x="0" y="0"/>
  <line style="fill:none;stroke:black;opacity:1;stroke-width:0.5;" x1="263" x2="3036" y1="292" y2="292"/>
  <text style="stroke:none;fill:black;font-family:sans-serif;font-size:13;font-weight:bold;" transform="matrix(1 0 0 1 263 322)">Weight/Scale Variations</text>
  <text style="stroke:none;fill:black;font-family:sans-serif;font-size:13;text-anchor:middle;" transform="matrix(1 0 0 1 559.711 322)">Ultralight</text>
  <text style="stroke:none;fill:black;font-family:sans-serif;font-size:13;text-anchor:middle;" transform="matrix(1 0 0 1 856.422 322)">Thin</text>
  <text style="stroke:none;fill:black;font-family:sans-serif;font-size:13;text-anchor:middle;" transform="matrix(1 0 0 1 1153.13 322)">Light</text>
  <text style="stroke:none;fill:black;font-family:sans-serif;font-size:13;text-anchor:middle;" transform="matrix(1 0 0 1 1449.84 322)">Regular</text>
  <text style="stroke:none;fill:black;font-family:sans-serif;font-size:13;text-anchor:middle;" transform="matrix(1 0 0 1 1746.56 322)">Medium</text>
  <text style="stroke:none;fill:black;font-family:sans-serif;font-size:13;text-anchor:middle;" transform="matrix(1 0 0 1 2043.27 322)">Semibold</text>
  <text style="stroke:none;fill:black;font-family:sans-serif;font-size:13;text-anchor:middle;" transform="matrix(1 0 0 1 2339.98 322)">Bold</text>
  <text style="stroke:none;fill:black;font-family:sans-serif;font-size:13;text-anchor:middle;" transform="matrix(1 0 0 1 2636.69 322)">Heavy</text>
  <text style="stroke:none;fill:black;font-family:sans-serif;font-size:13;text-anchor:middle;" transform="matrix(1 0 0 1 2933.4 322)">Black</text>
  <line style="fill:none;stroke:black;opacity:1;stroke-width:0.5;" x1="263" x2="3036" y1="1903" y2="1903"/>
  <g transform="matrix(1 0 0 1 263 1933)">
   <path d="M9.24805 0.830078Q10.8691 0.830078 12.2949 0.214844Q13.7207-0.400391 14.8096-1.49414Q15.8984-2.58789 16.5186-4.01367Q17.1387-5.43945 17.1387-7.05078Q17.1387-8.66211 16.5186-10.0879Q15.8984-11.5137 14.8047-12.6074Q13.7109-13.7012 12.2852-14.3164Q10.8594-14.9316 9.23828-14.9316Q7.62695-14.9316 6.20117-14.3164Q4.77539-13.7012 3.69141-12.6074Q2.60742-11.5137 1.9873-10.0879Q1.36719-8.66211 1.36719-7.05078Q1.36719-5.43945 1.9873-4.01367Q2.60742-2.58789 3.69629-1.49414Q4.78516-0.400391 6.21094 0.214844Q7.63672 0.830078 9.24805 0.830078ZM9.24805-0.654297Q7.91992-0.654297 6.7627-1.14746Q5.60547-1.64062 4.73145-2.51953Q3.85742-3.39844 3.36426-4.56055Q2.87109-5.72266 2.87109-7.05078Q2.87109-8.37891 3.35938-9.54102Q3.84766-10.7031 4.72168-11.582Q5.5957-12.4609 6.75293-12.9541Q7.91016-13.4473 9.23828-13.4473Q10.5762-13.4473 11.7334-12.9541Q12.8906-12.4609 13.7695-11.582Q14.6484-10.7031 15.1465-9.54102Q15.6445-8.37891 15.6445-7.05078Q15.6445-5.72266 15.1514-4.56055Q14.6582-3.39844 13.7842-2.51953Q12.9102-1.64062 11.748-1.14746Q10.5859-0.654297 9.24805-0.654297ZM5.6543-7.05078Q5.6543-6.72852 5.85938-6.52832Q6.06445-6.32812 6.40625-6.32812L8.51562-6.32812L8.51562-4.20898Q8.51562-3.88672 8.71094-3.67676Q8.90625-3.4668 9.23828-3.4668Q9.56055-3.4668 9.77051-3.67676Q9.98047-3.88672 9.98047-4.20898L9.98047-6.32812L12.0898-6.32812Q12.4219-6.32812 12.627-6.52832Q12.832-6.72852 12.832-7.05078Q12.832-7.38281 12.627-7.58789Q12.4219-7.79297 12.0898-7.79297L9.98047-7.79297L9.98047-9.90234Q9.98047-10.2344 9.77051-10.4443Q9.56055-10.6543 9.23828-10.6543Q8.90625-10.6543 8.71094-10.4443Q8.51562-10.2344 8.51562-9.90234L8.51562-7.79297L6.40625-7.79297Q6.06445-7.79297 5.85938-7.58789Q5.6543-7.38281 5.6543-7.05078Z"/>
  </g>
  <g transform="matrix(1 0 0 1 281.867 1933)">
   <path d="M11.709 2.91016Q13.75 2.91016 15.5518 2.12891Q17.3535 1.34766 18.7305-0.0292969Q20.1074-1.40625 20.8887-3.20801Q21.6699-5.00977 21.6699-7.05078Q21.6699-9.0918 20.8887-10.8936Q20.1074-12.6953 18.7305-14.0723Q17.3535-15.4492 15.5469-16.2305Q13.7402-17.0117 11.6992-17.0117Q9.6582-17.0117 7.85645-16.2305Q6.05469-15.4492 4.68262-14.0723Q3.31055-12.6953 2.5293-10.8936Q1.74805-9.0918 1.74805-7.05078Q1.74805-5.00977 2.5293-3.20801Q3.31055-1.40625 4.6875-0.0292969Q6.06445 1.34766 7.86621 2.12891Q9.66797 2.91016 11.709 2.91016ZM11.709 1.25Q9.98047 1.25 8.47656 0.605469Q6.97266-0.0390625 5.83496-1.17676Q4.69727-2.31445 4.05762-3.81836Q3.41797-5.32227 3.41797-7.05078Q3.41797-8.7793 4.05762-10.2832Q4.69727-11.7871 5.83008-12.9297Q6.96289-14.0723 8.4668-14.7119Q9.9707-15.3516 11.6992-15.3516Q13.4277-15.3516 14.9316-14.7119Q16.4355-14.0723 17.5781-12.9297Q18.7207-11.7871 19.3652-10.2832Q20.0098-8.7793 20.0098-7.05078Q20.0098-5.32227 19.3701-3.81836Q18.7305-2.31445 17.5928-1.17676Q16.4551-0.0390625 14.9463 0.605469Q13.4375 1.25 11.709 1.25ZM7.17773-7.05078Q7.17773-6.69922 7.41211-6.47461Q7.64648-6.25 8.01758-6.25L10.8887-6.25L10.8887-3.36914Q10.8887-2.99805 11.1133-2.76855Q11.3379-2.53906 11.6895-2.53906Q12.0605-2.53906 12.29-2.76855Q12.5195-2.99805 12.5195-3.36914L12.5195-6.25L15.4004-6.25Q15.7715-6.25 16.001-6.47461Q16.2305-6.69922 16.2305-7.05078Q16.2305-7.42188 16.001-7.65137Q15.7715-7.88086 15.4004-7.88086L12.5195-7.88086L12.5195-10.752Q12.5195-11.1328 12.29-11.3623Q12.0605-11.5918 11.6895-11.5918Q11.3379-11.5918 11.1133-11.3574Q10.8887-11.123 10.8887-10.752L10.8887-7.88086L8.01758-7.88086Q7.63672-7.88086 7.40723-7.65137Q7.17773-7.42188 7.17773-7.05078Z"/>
  </g>
  <g transform="matrix(1 0 0 1 305.646 1933)">
   <path d="M14.9707 5.66406Q17.0605 5.66406 18.96 5.01465Q20.8594 4.36523 22.4512 3.19336Q24.043 2.02148 25.2197 0.429688Q26.3965-1.16211 27.0459-3.06641Q27.6953-4.9707 27.6953-7.05078Q27.6953-9.14062 27.0459-11.04Q26.3965-12.9395 25.2197-14.5312Q24.043-16.123 22.4512-17.2998Q20.8594-18.4766 18.9551-19.126Q17.0508-19.7754 14.9609-19.7754Q12.8711-19.7754 10.9717-19.126Q9.07227-18.4766 7.48535-17.2998Q5.89844-16.123 4.72168-14.5312Q3.54492-12.9395 2.90039-11.04Q2.25586-9.14062 2.25586-7.05078Q2.25586-4.9707 2.90527-3.06641Q3.55469-1.16211 4.72656 0.429688Q5.89844 2.02148 7.49023 3.19336Q9.08203 4.36523 10.9814 5.01465Q12.8809 5.66406 14.9707 5.66406ZM14.9707 3.84766Q13.1641 3.84766 11.5283 3.2959Q9.89258 2.74414 8.53516 1.74805Q7.17773 0.751953 6.17676-0.610352Q5.17578-1.97266 4.62891-3.6084Q4.08203-5.24414 4.08203-7.05078Q4.08203-8.86719 4.62891-10.5029Q5.17578-12.1387 6.17188-13.501Q7.16797-14.8633 8.52539-15.8594Q9.88281-16.8555 11.5186-17.4023Q13.1543-17.9492 14.9609-17.9492Q16.7773-17.9492 18.4131-17.4023Q20.0488-16.8555 21.4111-15.8594Q22.7734-14.8633 23.7695-13.501Q24.7656-12.1387 25.3174-10.5029Q25.8691-8.86719 25.8691-7.05078Q25.8789-5.24414 25.332-3.6084Q24.7852-1.97266 23.7842-0.610352Q22.7832 0.751953 21.4209 1.74805Q20.0586 2.74414 18.4229 3.2959Q16.7871 3.84766 14.9707 3.84766ZM9.19922-7.05078Q9.19922-6.66992 9.45801-6.4209Q9.7168-6.17188 10.1172-6.17188L14.0625-6.17188L14.0625-2.2168Q14.0625-1.81641 14.3115-1.55762Q14.5605-1.29883 14.9512-1.29883Q15.3516-1.29883 15.6104-1.55273Q15.8691-1.80664 15.8691-2.2168L15.8691-6.17188L19.8242-6.17188Q20.2246-6.17188 20.4785-6.4209Q20.7324-6.66992 20.7324-7.05078Q20.7324-7.46094 20.4785-7.71484Q20.2246-7.96875 19.8242-7.96875L15.8691-7.96875L15.8691-11.9141Q15.8691-12.3242 15.6104-12.583Q15.3516-12.8418 14.9512-12.8418Q14.5605-12.8418 14.3115-12.583Q14.0625-12.3242 14.0625-11.9141L14.0625-7.96875L10.1172-7.96875Q9.70703-7.96875 9.45312-7.71484Q9.19922-7.46094 9.19922-7.05078Z"/>
  </g>
  <text style="stroke:none;fill:black;font-family:sans-serif;font-size:13;font-weight:bold;" transform="matrix(1 0 0 1 263 1953)">Design Variations</text>
  <text style="stroke:none;fill:black;font-family:sans-serif;font-size:13;" transform="matrix(1 0 0 1 263 1971)">Symbols are supported in up to nine weights and three scales.</text>
  <text style="stroke:none;fill:black;font-family:sans-serif;font-size:13;" transform="matrix(1 0 0 1 263 1989)">For optimal layout with text and other symbols, vertically align</text>
  <text style="stroke:none;fill:black;font-family:sans-serif;font-size:13;" transform="matrix(1 0 0 1 263 2007)">symbols with the adjacent text.</text>
  <line style="fill:none;stroke:#00AEEF;stroke-width:0.5;opacity:1.0;" x1="776" x2="776" y1="1919" y2="1933"/>
  <g transform="matrix(1 0 0 1 776 1933)">
   <path d="M3.31055 0.15625Q3.70117 0.15625 3.91602-0.00976562Q4.13086-0.175781 4.26758-0.585938L5.52734-4.0332L11.2891-4.0332L12.5488-0.585938Q12.6855-0.175781 12.9004-0.00976562Q13.1152 0.15625 13.4961 0.15625Q13.8867 0.15625 14.1162-0.0585938Q14.3457-0.273438 14.3457-0.644531Q14.3457-0.869141 14.2383-1.17188L9.6582-13.3691Q9.48242-13.8184 9.17969-14.043Q8.87695-14.2676 8.4082-14.2676Q7.5-14.2676 7.17773-13.3789L2.59766-1.16211Q2.49023-0.859375 2.49023-0.634766Q2.49023-0.263672 2.70996-0.0537109Q2.92969 0.15625 3.31055 0.15625ZM6.00586-5.51758L8.37891-12.0898L8.42773-12.0898L10.8008-5.51758Z"/>
  </g>
  <line style="fill:none;stroke:#00AEEF;stroke-width:0.5;opacity:1.0;" x1="793.197" x2="793.197" y1="1919" y2="1933"/>
  <text style="stroke:none;fill:black;font-family:sans-serif;font-size:13;font-weight:bold;" transform="matrix(1 0 0 1 776 1953)">Margins</text>
  <text style="stroke:none;fill:black;font-family:sans-serif;font-size:13;" transform="matrix(1 0 0 1 776 1971)">Leading and trailing margins on the left and right side of each symbol</text>
  <text style="stroke:none;fill:black;font-family:sans-serif;font-size:13;" transform="matrix(1 0 0 1 776 1989)">can be adjusted by modifying the x-location of the margin guidelines.</text>
  <text style="stroke:none;fill:black;font-family:sans-serif;font-size:13;" transform="matrix(1 0 0 1 776 2007)">Modifications are automatically applied proportionally to all</text>
  <text style="stroke:none;fill:black;font-family:sans-serif;font-size:13;" transform="matrix(1 0 0 1 776 2025)">scales and weights.</text>
  <g transform="matrix(1 0 0 1 1289 1933)">
   <path d="M2.8418 1.86523L4.54102 3.57422Q5.18555 4.22852 5.90332 4.17969Q6.62109 4.13086 7.31445 3.35938L18.0078-8.42773L17.041-9.4043L6.42578 2.27539Q6.16211 2.57812 5.89355 2.61719Q5.625 2.65625 5.27344 2.30469L4.10156 1.14258Q3.75 0.791016 3.79395 0.522461Q3.83789 0.253906 4.14062-0.0195312L15.6152-10.8203L14.6387-11.7871L3.04688-0.898438Q2.30469-0.214844 2.25098 0.498047Q2.19727 1.21094 2.8418 1.86523ZM9.25781-16.3281Q8.94531-16.0254 8.90625-15.6348Q8.86719-15.2441 9.04297-14.9512Q9.21875-14.6777 9.55566-14.541Q9.89258-14.4043 10.3809-14.5215Q11.4746-14.7754 12.5977-14.7314Q13.7207-14.6875 14.7949-13.9844L14.209-12.5293Q13.9551-11.9043 14.0674-11.4404Q14.1797-10.9766 14.5801-10.5664L16.875-8.25195Q17.2363-7.88086 17.5781-7.82227Q17.9199-7.76367 18.3398-7.8418L19.4043-8.03711L20.0684-7.36328L20.0293-6.80664Q20-6.43555 20.1221-6.12305Q20.2441-5.81055 20.6055-5.44922L21.3672-4.70703Q21.7285-4.3457 22.1533-4.33105Q22.5781-4.31641 22.9297-4.66797L25.8398-7.58789Q26.1914-7.93945 26.1816-8.35449Q26.1719-8.76953 25.8105-9.13086L25.0391-9.89258Q24.6875-10.2539 24.3799-10.3857Q24.0723-10.5176 23.7109-10.4883L23.1348-10.4395L22.4902-11.0742L22.7344-12.1973Q22.832-12.6172 22.6953-12.9834Q22.5586-13.3496 22.1191-13.7891L19.9219-15.9766Q18.6719-17.2168 17.2607-17.8369Q15.8496-18.457 14.4189-18.4814Q12.9883-18.5059 11.665-17.959Q10.3418-17.4121 9.25781-16.3281ZM10.752-15.957Q11.6602-16.6211 12.7002-16.9043Q13.7402-17.1875 14.8047-17.085Q15.8691-16.9824 16.8701-16.5137Q17.8711-16.0449 18.7012-15.2051L21.1328-12.793Q21.3086-12.6172 21.3525-12.4512Q21.3965-12.2852 21.3379-12.0312L21.0156-10.5469L22.5195-9.0625L23.5059-9.12109Q23.6914-9.13086 23.7891-9.09668Q23.8867-9.0625 24.0332-8.91602L24.6094-8.33984L22.168-5.89844L21.5918-6.47461Q21.4453-6.62109 21.4062-6.71875Q21.3672-6.81641 21.377-7.01172L21.4453-7.98828L19.9512-9.47266L18.4277-9.21875Q18.1836-9.16992 18.042-9.2041Q17.9004-9.23828 17.7148-9.41406L15.7129-11.416Q15.5176-11.5918 15.4932-11.7529Q15.4688-11.9141 15.5859-12.1875L16.4648-14.2773Q15.293-15.3711 13.8281-15.791Q12.3633-16.2109 10.8398-15.7617Q10.7227-15.7324 10.6885-15.8057Q10.6543-15.8789 10.752-15.957Z"/>
  </g>
  <text style="stroke:none;fill:black;font-family:sans-serif;font-size:13;font-weight:bold;" transform="matrix(1 0 0 1 1289 1953)">Exporting</text>
  <text style="stroke:none;fill:black;font-family:sans-serif;font-size:13;" transform="matrix(1 0 0 1 1289 1971)">Symbols should be outlined when exporting to ensure the</text>
  <text style="stroke:none;fill:black;font-family:sans-serif;font-size:13;" transform="matrix(1 0 0 1 1289 1989)">design is preserved when submitting to Xcode.</text>
  <text id="template-version" style="stroke:none;fill:black;font-family:sans-serif;font-size:13;text-anchor:end;" transform="matrix(1 0 0 1 3036 1933)">Template v.2.0</text>
  <text style="stroke:none;fill:black;font-family:sans-serif;font-size:13;text-anchor:end;" transform="matrix(1 0 0 1 3036 1951)">Requires Xcode 13 or greater</text>
  <text id="descriptive-name" style="stroke:none;fill:black;font-family:sans-serif;font-size:13;text-anchor:end;" transform="matrix(1 0 0 1 3036 1969)">Generated from m.square</text>
  <text style="stroke:none;fill:black;font-family:sans-serif;font-size:13;text-anchor:end;" transform="matrix(1 0 0 1 3036 1987)">Typeset at 100 points</text>
  <text style="stroke:none;fill:black;font-family:sans-serif;font-size:13;" transform="matrix(1 0 0 1 263 726)">Small</text>
  <text style="stroke:none;fill:black;font-family:sans-serif;font-size:13;" transform="matrix(1 0 0 1 263 1156)">Medium</text>
  <text style="stroke:none;fill:black;font-family:sans-serif;font-size:13;" transform="matrix(1 0 0 1 263 1586)">Large</text>
 </g>
 <g id="Guides">
  <g id="H-reference" style="fill:#27AAE1;stroke:none;" transform="matrix(1 0 0 1 339 696)">
   <path d="M0.976562 0L3.66211 0L29.3457-67.1387L30.0293-67.1387L30.0293-70.459L28.125-70.459ZM11.6699-24.4629L46.9727-24.4629L46.2402-26.709L12.4512-26.709ZM55.127 0L57.7637 0L30.6152-70.459L29.4434-70.459L29.4434-67.1387Z"/>
  </g>
  <line id="Baseline-S" style="fill:none;stroke:#27AAE1;opacity:1;stroke-width:0.5;" x1="263" x2="3036" y1="696" y2="696"/>
  <line id="Capline-S" style="fill:none;stroke:#27AAE1;opacity:1;stroke-width:0.5;" x1="263" x2="3036" y1="625.541" y2="625.541"/>
  <g id="H-reference" style="fill:#27AAE1;stroke:none;" transform="matrix(1 0 0 1 339 1126)">
   <path d="M0.976562 0L3.66211 0L29.3457-67.1387L30.0293-67.1387L30.0293-70.459L28.125-70.459ZM11.6699-24.4629L46.9727-24.4629L46.2402-26.709L12.4512-26.709ZM55.127 0L57.7637 0L30.6152-70.459L29.4434-70.459L29.4434-67.1387Z"/>
  </g>
  <line id="Baseline-M" style="fill:none;stroke:#27AAE1;opacity:1;stroke-width:0.5;" x1="263" x2="3036" y1="1126" y2="1126"/>
  <line id="Capline-M" style="fill:none;stroke:#27AAE1;opacity:1;stroke-width:0.5;" x1="263" x2="3036" y1="1055.54" y2="1055.54"/>
  <g id="H-reference" style="fill:#27AAE1;stroke:none;" transform="matrix(1 0 0 1 339 1556)">
   <path d="M0.976562 0L3.66211 0L29.3457-67.1387L30.0293-67.1387L30.0293-70.459L28.125-70.459ZM11.6699-24.4629L46.9727-24.4629L46.2402-26.709L12.4512-26.709ZM55.127 0L57.7637 0L30.6152-70.459L29.4434-70.459L29.4434-67.1387Z"/>
  </g>
  <line id="Baseline-L" style="fill:none;stroke:#27AAE1;opacity:1;stroke-width:0.5;" x1="263" x2="3036" y1="1556" y2="1556"/>
  <line id="Capline-L" style="fill:none;stroke:#27AAE1;opacity:1;stroke-width:0.5;" x1="263" x2="3036" y1="1485.54" y2="1485.54"/>
  <line id="left-margin" style="fill:none;stroke:#00AEEF;stroke-width:0.5;opacity:1.0;" x1="1392.45" x2="1392.45" y1="1030.79" y2="1150.12"/>
  <line id="right-margin" style="fill:none;stroke:#00AEEF;stroke-width:0.5;opacity:1.0;" x1="1507.24" x2="1507.24" y1="1030.79" y2="1150.12"/>
 </g>
 <g id="Symbols">
  <g id="Black-L" transform="matrix(1 0 0 1 2855.62 1556)">
   <path d="M39.9902 26.5137L115.576 26.5137Q127.002 26.5137 133.252 20.3125Q139.502 14.1113 139.502 2.68555L139.502-73.0957Q139.502-84.4727 133.252-90.6738Q127.002-96.875 115.576-96.875L39.9902-96.875Q28.5645-96.875 22.3145-90.6738Q16.0645-84.4727 16.0645-73.0957L16.0645 2.68555Q16.0645 14.1113 22.3145 20.3125Q28.5645 26.5137 39.9902 26.5137ZM42.6758 6.29883Q39.5508 6.29883 37.9395 4.78516Q36.3281 3.27148 36.3281-0.146484L36.3281-70.2148Q36.3281-73.6328 37.9395-75.1465Q39.5508-76.6602 42.6758-76.6602L112.842-76.6602Q116.016-76.6602 117.627-75.1465Q119.238-73.6328 119.238-70.2148L119.238-0.146484Q119.238 3.27148 117.627 4.78516Q116.016 6.29883 112.842 6.29883ZM55.5176-6.29883Q58.7891-6.29883 60.6201-8.25195Q62.4512-10.2051 62.4512-13.8184L62.4512-39.6484L63.0859-39.6484L71.3379-15.2344Q72.9004-10.4004 77.6367-10.4004Q82.4219-10.4004 84.0332-15.1855L92.5781-39.6484L93.1641-39.6484L93.1641-13.8184Q93.1641-10.2051 94.9707-8.25195Q96.7773-6.29883 100.049-6.29883Q103.32-6.29883 105.151-8.25195Q106.982-10.2051 106.982-13.8184L106.982-54.834Q106.982-59.082 104.321-61.6943Q101.66-64.3066 97.2168-64.3066Q89.3066-64.3066 86.9141-56.2988L78.0762-29.6387L77.6367-29.6387L68.7012-56.2988Q66.2598-64.3066 58.3984-64.3066Q53.9551-64.3066 51.2939-61.6943Q48.6328-59.082 48.6328-54.834L48.6328-13.8184Q48.6328-10.2051 50.4395-8.25195Q52.2461-6.29883 55.5176-6.29883Z"/>
  </g>
  <g id="Heavy-L" transform="matrix(1 0 0 1 2559.93 1556)">
   <path d="M38.8184 25.4883L114.697 25.4883Q125.684 25.4883 131.567 19.6289Q137.451 13.7695 137.451 2.88086L137.451-73.2422Q137.451-84.1309 131.567-89.9902Q125.684-95.8496 114.697-95.8496L38.8184-95.8496Q27.8809-95.8496 21.9727-89.9902Q16.0645-84.1309 16.0645-73.2422L16.0645 2.88086Q16.0645 13.8184 21.9727 19.6533Q27.8809 25.4883 38.8184 25.4883ZM40.918 8.00781Q37.3047 8.00781 35.4492 6.22559Q33.5938 4.44336 33.5938 0.585938L33.5938-70.9473Q33.5938-74.8047 35.4492-76.5869Q37.3047-78.3691 40.918-78.3691L112.549-78.3691Q116.162-78.3691 118.042-76.5869Q119.922-74.8047 119.922-70.9473L119.922 0.585938Q119.922 4.44336 118.042 6.22559Q116.162 8.00781 112.549 8.00781ZM54.0039-6.29883Q56.9336-6.29883 58.5938-8.05664Q60.2539-9.81445 60.2539-13.0859L60.2539-42.041L60.8398-42.041L70.8008-14.209Q72.3145-9.81445 76.6113-9.81445Q81.0547-9.81445 82.5684-14.1602L92.7734-42.041L93.3105-42.041L93.3105-13.0859Q93.3105-9.81445 94.9463-8.05664Q96.582-6.29883 99.4629-6.29883Q102.441-6.29883 104.077-8.05664Q105.713-9.81445 105.713-13.0859L105.713-56.0059Q105.713-59.7656 103.345-62.1094Q100.977-64.4531 97.0215-64.4531Q90.0391-64.4531 87.8418-57.4707L77.0508-26.8066L76.6113-26.8066L65.6738-57.4707Q63.4766-64.4531 56.543-64.4531Q52.5879-64.4531 50.2197-62.1094Q47.8516-59.7656 47.8516-56.0059L47.8516-13.0859Q47.8516-9.81445 49.4629-8.05664Q51.0742-6.29883 54.0039-6.29883Z"/>
  </g>
  <g id="Bold-L" transform="matrix(1 0 0 1 2264.34 1556)">
   <path d="M37.5488 24.3652L113.721 24.3652Q124.17 24.3652 129.688 18.8965Q135.205 13.4277 135.205 3.07617L135.205-73.4375Q135.205-83.7891 129.688-89.2578Q124.17-94.7266 113.721-94.7266L37.5488-94.7266Q27.0996-94.7266 21.582-89.2578Q16.0645-83.7891 16.0645-73.4375L16.0645 3.07617Q16.0645 13.4766 21.582 18.9209Q27.0996 24.3652 37.5488 24.3652ZM38.9648 9.96094Q34.8633 9.96094 32.6904 7.86133Q30.5176 5.76172 30.5176 1.41602L30.5176-71.7773Q30.5176-76.0742 32.6904-78.1738Q34.8633-80.2734 38.9648-80.2734L112.256-80.2734Q116.357-80.2734 118.555-78.1738Q120.752-76.0742 120.752-71.7773L120.752 1.41602Q120.752 5.76172 118.555 7.86133Q116.357 9.96094 112.256 9.96094ZM52.3438-6.29883Q54.9316-6.29883 56.3721-7.83691Q57.8125-9.375 57.8125-12.2559L57.8125-44.7754L58.3496-44.7754L70.2637-13.0371Q71.6309-9.13086 75.5371-9.13086Q79.4922-9.13086 80.9082-12.9883L92.9688-44.7754L93.5059-44.7754L93.5059-12.2559Q93.5059-9.42383 94.9219-7.86133Q96.3379-6.29883 98.877-6.29883Q101.465-6.29883 102.905-7.83691Q104.346-9.375 104.346-12.2559L104.346-57.3242Q104.346-60.5469 102.295-62.5732Q100.244-64.5996 96.875-64.5996Q90.918-64.5996 88.9648-58.7402L75.8789-23.6328L75.4883-23.6328L62.3535-58.7402Q60.3516-64.5996 54.4434-64.5996Q51.0742-64.5996 49.0234-62.5732Q46.9727-60.5469 46.9727-57.3242L46.9727-12.2559Q46.9727-9.42383 48.3887-7.86133Q49.8047-6.29883 52.3438-6.29883Z"/>
  </g>
  <g id="Semibold-L" transform="matrix(1 0 0 1 1968.44 1556)">
   <path d="M36.6211 23.584L112.988 23.584Q123.145 23.584 128.369 18.3838Q133.594 13.1836 133.594 3.17383L133.594-73.5352Q133.594-83.4961 128.369-88.6963Q123.145-93.8965 112.988-93.8965L36.6211-93.8965Q26.5625-93.8965 21.3135-88.7207Q16.0645-83.5449 16.0645-73.5352L16.0645 3.17383Q16.0645 13.2324 21.3135 18.4082Q26.5625 23.584 36.6211 23.584ZM37.5977 11.2793Q33.1055 11.2793 30.7617 8.95996Q28.418 6.64062 28.418 2.00195L28.418-72.3145Q28.418-76.9531 30.7617-79.2725Q33.1055-81.5918 37.5977-81.5918L112.061-81.5918Q116.504-81.5918 118.896-79.2725Q121.289-76.9531 121.289-72.3145L121.289 2.00195Q121.289 6.64062 118.896 8.95996Q116.504 11.2793 112.061 11.2793ZM51.1719-6.25Q53.5156-6.25 54.8096-7.66602Q56.1035-9.08203 56.1035-11.6699L56.1035-46.6309L56.6406-46.6309L69.873-12.207Q71.1914-8.69141 74.7559-8.69141Q78.418-8.69141 79.7852-12.207L93.1152-46.6309L93.6523-46.6309L93.6523-11.6699Q93.6523-9.08203 94.9219-7.66602Q96.1914-6.25 98.4863-6.25Q100.781-6.25 102.1-7.66602Q103.418-9.08203 103.418-11.6699L103.418-58.2031Q103.418-61.084 101.562-62.8906Q99.707-64.6973 96.7285-64.6973Q91.5039-64.6973 89.6973-59.6191L75.0977-21.4355L74.707-21.4355L60.0098-59.6191Q58.2031-64.6973 53.0273-64.6973Q50.0488-64.6973 48.1934-62.8906Q46.3379-61.084 46.3379-58.2031L46.3379-11.6699Q46.3379-9.08203 47.6318-7.66602Q48.9258-6.25 51.1719-6.25Z"/>
  </g>
  <g id="Medium-L" transform="matrix(1 0 0 1 1672.31 1556)">
   <path d="M35.9375 22.998L112.5 22.998Q122.363 22.998 127.393 17.9932Q132.422 12.9883 132.422 3.27148L132.422-73.6328Q132.422-83.3008 127.393-88.3057Q122.363-93.3105 112.5-93.3105L35.9375-93.3105Q26.1719-93.3105 21.1182-88.3301Q16.0645-83.3496 16.0645-73.6328L16.0645 3.27148Q16.0645 13.0371 21.1182 18.0176Q26.1719 22.998 35.9375 22.998ZM36.5723 12.2559Q31.8359 12.2559 29.3213 9.79004Q26.8066 7.32422 26.8066 2.39258L26.8066-72.7539Q26.8066-77.6367 29.3213-80.1025Q31.8359-82.5684 36.5723-82.5684L111.865-82.5684Q116.553-82.5684 119.116-80.1025Q121.68-77.6367 121.68-72.7539L121.68 2.39258Q121.68 7.32422 119.116 9.79004Q116.553 12.2559 111.865 12.2559ZM50.2441-6.25Q52.3926-6.25 53.5889-7.54395Q54.7852-8.83789 54.7852-11.2305L54.7852-47.998L55.3223-47.998L69.5312-11.5723Q70.8008-8.30078 74.1699-8.30078Q77.5879-8.30078 78.9062-11.5723L93.2129-47.998L93.7012-47.998L93.7012-11.2305Q93.7012-8.88672 94.873-7.56836Q96.0449-6.25 98.1445-6.25Q100.244-6.25 101.44-7.54395Q102.637-8.83789 102.637-11.2305L102.637-58.8867Q102.637-61.4746 100.977-63.1104Q99.3164-64.7461 96.6309-64.7461Q91.8945-64.7461 90.2344-60.3027L74.4629-19.7754L74.1211-19.7754L58.252-60.3027Q56.543-64.7461 51.9043-64.7461Q49.2188-64.7461 47.5342-63.1104Q45.8496-61.4746 45.8496-58.8867L45.8496-11.2305Q45.8496-8.88672 47.0459-7.56836Q48.2422-6.25 50.2441-6.25Z"/>
  </g>
  <g id="Regular-L" transform="matrix(1 0 0 1 1376.38 1556)">
   <path d="M35.0586 22.2168L111.816 22.2168Q121.338 22.2168 126.099 17.4805Q130.859 12.7441 130.859 3.41797L130.859-73.7305Q130.859-83.0566 126.099-87.793Q121.338-92.5293 111.816-92.5293L35.0586-92.5293Q25.6348-92.5293 20.8496-87.8174Q16.0645-83.1055 16.0645-73.7305L16.0645 3.41797Q16.0645 12.793 20.8496 17.5049Q25.6348 22.2168 35.0586 22.2168ZM35.2539 13.5742Q30.127 13.5742 27.417 10.8887Q24.707 8.20312 24.707 2.97852L24.707-73.291Q24.707-78.5156 27.417-81.2012Q30.127-83.8867 35.2539-83.8867L111.67-83.8867Q116.699-83.8867 119.458-81.2012Q122.217-78.5156 122.217-73.291L122.217 2.97852Q122.217 8.20312 119.458 10.8887Q116.699 13.5742 111.67 13.5742ZM49.1211-6.25Q51.0254-6.25 52.0752-7.39746Q53.125-8.54492 53.125-10.6445L53.125-49.8535L53.6133-49.8535L69.1406-10.791Q70.3613-7.86133 73.3887-7.86133Q76.5625-7.86133 77.7832-10.791L93.3594-49.8535L93.8477-49.8535L93.8477-10.6445Q93.8477-8.59375 94.873-7.42188Q95.8984-6.25 97.7051-6.25Q99.5605-6.25 100.635-7.39746Q101.709-8.54492 101.709-10.6445L101.709-59.7656Q101.709-62.0117 100.244-63.4277Q98.7793-64.8438 96.4844-64.8438Q92.4805-64.8438 90.9668-61.1816L73.6816-17.627L73.3398-17.627L55.957-61.1816Q54.4434-64.8438 50.4883-64.8438Q48.1934-64.8438 46.7285-63.4277Q45.2637-62.0117 45.2637-59.7656L45.2637-10.6445Q45.2637-8.59375 46.3135-7.42188Q47.3633-6.25 49.1211-6.25Z"/>
  </g>
  <g id="Light-L" transform="matrix(1 0 0 1 1080.5 1556)">
   <path d="M34.0332 21.4355L111.182 21.4355Q120.117 21.4355 124.658 16.8945Q129.199 12.3535 129.199 3.56445L129.199-73.8281Q129.199-82.6172 124.658-87.1582Q120.117-91.6992 111.182-91.6992L34.0332-91.6992Q25.1465-91.6992 20.6055-87.207Q16.0645-82.7148 16.0645-73.8281L16.0645 3.56445Q16.0645 12.4023 20.6055 16.9189Q25.1465 21.4355 34.0332 21.4355ZM34.2285 14.7949Q28.5645 14.7949 25.6104 11.8652Q22.6562 8.93555 22.6562 3.22266L22.6562-73.4863Q22.6562-79.1992 25.6104-82.1289Q28.5645-85.0586 34.2285-85.0586L111.035-85.0586Q116.553-85.0586 119.556-82.1289Q122.559-79.1992 122.559-73.4863L122.559 3.22266Q122.559 8.93555 119.556 11.8652Q116.553 14.7949 111.035 14.7949ZM48.4863-6.54297Q49.9512-6.54297 50.7812-7.42188Q51.6113-8.30078 51.6113-9.91211L51.6113-52.9785L52.002-52.9785L68.9453-10.1562Q70.0195-7.71484 72.5586-7.71484Q75.2441-7.71484 76.2695-10.1562L93.2129-52.9785L93.6523-52.9785L93.6523-9.91211Q93.6523-8.34961 94.458-7.44629Q95.2637-6.54297 96.6797-6.54297Q98.0957-6.54297 98.9502-7.42188Q99.8047-8.30078 99.8047-9.91211L99.8047-60.1074Q99.8047-61.9629 98.584-63.1348Q97.3633-64.3066 95.5078-64.3066Q92.2363-64.3066 90.918-61.084L72.8027-15.3809L72.4609-15.3809L54.2969-61.084Q52.9785-64.3066 49.707-64.3066Q47.8516-64.3066 46.6553-63.1348Q45.459-61.9629 45.459-60.1074L45.459-9.91211Q45.459-8.34961 46.2891-7.44629Q47.1191-6.54297 48.4863-6.54297Z"/>
  </g>
  <g id="Thin-L" transform="matrix(1 0 0 1 784.889 1556)">
   <path d="M32.666 20.3613L110.352 20.3613Q118.506 20.3613 122.754 16.0889Q127.002 11.8164 127.002 3.75977L127.002-73.9746Q127.002-82.0312 122.754-86.3037Q118.506-90.5762 110.352-90.5762L32.666-90.5762Q24.5117-90.5762 20.2881-86.377Q16.0645-82.1777 16.0645-73.9746L16.0645 3.75977Q16.0645 11.9141 20.2881 16.1377Q24.5117 20.3613 32.666 20.3613ZM32.8125 16.4062Q26.5137 16.4062 23.2666 13.1592Q20.0195 9.91211 20.0195 3.56445L20.0195-73.7793Q20.0195-80.127 23.2666-83.374Q26.5137-86.6211 32.8125-86.6211L110.205-86.6211Q116.309-86.6211 119.678-83.374Q123.047-80.127 123.047-73.7793L123.047 3.56445Q123.047 9.91211 119.678 13.1592Q116.309 16.4062 110.205 16.4062ZM47.6074-6.93359Q48.5352-6.93359 49.0479-7.4707Q49.5605-8.00781 49.5605-8.93555L49.5605-57.0801L49.9023-57.0801L68.7012-9.32617Q69.4824-7.51953 71.4355-7.51953Q73.4375-7.51953 74.2676-9.32617L93.0664-57.0801L93.4082-57.0801L93.4082-8.93555Q93.4082-8.00781 93.9209-7.4707Q94.4336-6.93359 95.3125-6.93359Q96.1914-6.93359 96.7041-7.4707Q97.2168-8.00781 97.2168-8.93555L97.2168-60.5957Q97.2168-61.9141 96.3623-62.7197Q95.5078-63.5254 94.2383-63.5254Q91.8945-63.5254 90.8203-60.9863L71.6309-12.3535L71.2891-12.3535L52.0996-60.9863Q51.0742-63.5254 48.7305-63.5254Q47.4609-63.5254 46.6064-62.7197Q45.752-61.9141 45.752-60.5957L45.752-8.93555Q45.752-8.00781 46.2646-7.4707Q46.7773-6.93359 47.6074-6.93359Z"/>
  </g>
  <g id="Ultralight-L" transform="matrix(1 0 0 1 488.739 1556)">
   <path d="M31.9824 19.8242L109.961 19.8242Q117.725 19.8242 121.802 15.6738Q125.879 11.5234 125.879 3.85742L125.879-74.0723Q125.879-81.7383 121.802-85.8643Q117.725-89.9902 109.961-89.9902L31.9824-89.9902Q24.1699-89.9902 20.1172-85.9375Q16.0645-81.8848 16.0645-74.0723L16.0645 3.85742Q16.0645 11.6699 20.1172 15.7471Q24.1699 19.8242 31.9824 19.8242ZM32.1289 17.2363Q25.4395 17.2363 22.0215 13.8184Q18.6035 10.4004 18.6035 3.75977L18.6035-73.9258Q18.6035-80.6152 22.0215-84.0332Q25.4395-87.4512 32.1289-87.4512L109.814-87.4512Q116.211-87.4512 119.751-84.0332Q123.291-80.6152 123.291-73.9258L123.291 3.75977Q123.291 10.4004 119.751 13.8184Q116.211 17.2363 109.814 17.2363ZM47.2168-7.17773Q47.8027-7.17773 48.1689-7.51953Q48.5352-7.86133 48.5352-8.39844L48.5352-59.2285L48.8281-59.2285L68.6035-8.93555Q69.2871-7.42188 70.8984-7.42188Q72.5586-7.42188 73.2422-8.93555L92.9688-59.2285L93.3105-59.2285L93.3105-8.39844Q93.3105-7.8125 93.6768-7.49512Q94.043-7.17773 94.6289-7.17773Q95.2148-7.17773 95.5811-7.51953Q95.9473-7.86133 95.9473-8.39844L95.9473-60.791Q95.9473-61.8652 95.2637-62.5244Q94.5801-63.1836 93.6035-63.1836Q91.748-63.1836 90.8203-60.8887L71.0449-10.8398L70.7031-10.8398L51.0254-60.8887Q50.0977-63.1836 48.1934-63.1836Q47.2168-63.1836 46.5576-62.5244Q45.8984-61.8652 45.8984-60.791L45.8984-8.39844Q45.8984-7.8125 46.2646-7.49512Q46.6309-7.17773 47.2168-7.17773Z"/>
  </g>
  <g id="Black-M" transform="matrix(1 0 0 1 2872.54 1126)">
   <path d="M31.5918 13.2324L90.1367 13.2324Q99.1699 13.2324 104.224 8.17871Q109.277 3.125 109.277-5.9082L109.277-64.4531Q109.277-73.5352 104.224-78.5645Q99.1699-83.5938 90.1367-83.5938L31.5918-83.5938Q22.5586-83.5938 17.5049-78.5645Q12.4512-73.5352 12.4512-64.4531L12.4512-5.9082Q12.4512 3.125 17.5049 8.17871Q22.5586 13.2324 31.5918 13.2324ZM34.2285-4.10156Q31.9824-4.10156 30.8838-5.12695Q29.7852-6.15234 29.7852-8.59375L29.7852-61.8164Q29.7852-64.2578 30.8838-65.2588Q31.9824-66.2598 34.2285-66.2598L87.5-66.2598Q89.7461-66.2598 90.8447-65.2588Q91.9434-64.2578 91.9434-61.8164L91.9434-8.59375Q91.9434-6.15234 90.8447-5.12695Q89.7461-4.10156 87.5-4.10156ZM44.0918-12.8906Q46.7285-12.8906 48.2422-14.4775Q49.7559-16.0645 49.7559-18.9941L49.7559-37.6465L50.2441-37.6465L55.6641-20.4102Q56.8848-16.4551 60.6934-16.4551Q64.5996-16.4551 65.8691-20.3613L71.5332-37.6465L72.0215-37.6465L72.0215-18.9941Q72.0215-12.8906 77.6367-12.8906Q80.3223-12.8906 81.8115-14.4775Q83.3008-16.0645 83.3008-18.9941L83.3008-49.5605Q83.3008-53.125 81.0791-55.2979Q78.8574-57.4707 75.1953-57.4707Q68.5059-57.4707 66.5039-50.5371L61.084-32.5195L60.6934-32.5195L55.2734-50.5371Q53.2227-57.4707 46.582-57.4707Q42.8711-57.4707 40.6494-55.2979Q38.4277-53.125 38.4277-49.5605L38.4277-18.9941Q38.4277-12.8906 44.0918-12.8906Z"/>
  </g>
  <g id="Heavy-M" transform="matrix(1 0 0 1 2576.65 1126)">
   <path d="M30.7129 12.4023L89.4043 12.4023Q98.0957 12.4023 102.856 7.66602Q107.617 2.92969 107.617-5.76172L107.617-64.5996Q107.617-73.291 102.856-78.0273Q98.0957-82.7637 89.4043-82.7637L30.7129-82.7637Q21.9727-82.7637 17.2119-78.0273Q12.4512-73.291 12.4512-64.5996L12.4512-5.76172Q12.4512 2.92969 17.2119 7.66602Q21.9727 12.4023 30.7129 12.4023ZM32.7148-2.68555Q30.127-2.68555 28.833-3.93066Q27.5391-5.17578 27.5391-7.91016L27.5391-62.4512Q27.5391-65.2344 28.833-66.4551Q30.127-67.6758 32.7148-67.6758L87.3535-67.6758Q89.9414-67.6758 91.2354-66.4551Q92.5293-65.2344 92.5293-62.4512L92.5293-7.91016Q92.5293-5.17578 91.2354-3.93066Q89.9414-2.68555 87.3535-2.68555ZM42.7734-12.8418Q45.166-12.8418 46.5576-14.2822Q47.9492-15.7227 47.9492-18.4082L47.9492-39.3066L48.3887-39.3066L55.1758-19.5312Q56.3965-15.8691 59.9121-15.8691Q63.5254-15.8691 64.7461-19.4824L71.7285-39.3066L72.2168-39.3066L72.2168-18.4082Q72.2168-12.8418 77.3438-12.8418Q79.7852-12.8418 81.1523-14.2822Q82.5195-15.7227 82.5195-18.4082L82.5195-50.5859Q82.5195-53.8086 80.5176-55.7617Q78.5156-57.7148 75.2441-57.7148Q69.2871-57.7148 67.4805-51.6602L60.2539-30.2734L59.9121-30.2734L52.6855-51.6602Q50.8301-57.7148 44.9219-57.7148Q41.6016-57.7148 39.5996-55.7617Q37.5977-53.8086 37.5977-50.5859L37.5977-18.4082Q37.5977-12.8418 42.7734-12.8418Z"/>
  </g>
  <g id="Bold-M" transform="matrix(1 0 0 1 2280.85 1126)">
   <path d="M29.6875 11.5234L88.5742 11.5234Q96.9238 11.5234 101.367 7.10449Q105.811 2.68555 105.811-5.66406L105.811-64.7461Q105.811-73.0469 101.367-77.4658Q96.9238-81.8848 88.5742-81.8848L29.6875-81.8848Q21.3379-81.8848 16.8945-77.4658Q12.4512-73.0469 12.4512-64.7461L12.4512-5.66406Q12.4512 2.68555 16.8945 7.10449Q21.3379 11.5234 29.6875 11.5234ZM31.0547-1.12305Q28.125-1.12305 26.5869-2.58789Q25.0488-4.05273 25.0488-7.17773L25.0488-63.2324Q25.0488-66.3574 26.5869-67.8223Q28.125-69.2871 31.0547-69.2871L87.207-69.2871Q90.1367-69.2871 91.6748-67.8223Q93.2129-66.3574 93.2129-63.2324L93.2129-7.17773Q93.2129-4.05273 91.6748-2.58789Q90.1367-1.12305 87.207-1.12305ZM41.3086-12.7441Q43.457-12.7441 44.7021-14.0625Q45.9473-15.3809 45.9473-17.8223L45.9473-41.2109L46.3867-41.2109L54.6875-18.5547Q55.8594-15.2832 59.082-15.2832Q62.3535-15.2832 63.5254-18.5059L72.0215-41.2109L72.4609-41.2109L72.4609-17.8223Q72.4609-12.7441 77.002-12.7441Q79.1992-12.7441 80.4199-14.0625Q81.6406-15.3809 81.6406-17.8223L81.6406-51.8066Q81.6406-54.5898 79.8828-56.2988Q78.125-58.0078 75.293-58.0078Q70.2148-58.0078 68.5547-52.9785L59.375-27.7344L59.0332-27.7344L49.8535-52.9785Q48.1445-58.0078 43.1152-58.0078Q40.2344-58.0078 38.4766-56.2988Q36.7188-54.5898 36.7188-51.8066L36.7188-17.8223Q36.7188-12.7441 41.3086-12.7441Z"/>
  </g>
  <g id="Semibold-M" transform="matrix(1 0 0 1 1984.77 1126)">
   <path d="M29.0039 10.8887L87.9883 10.8887Q96.0938 10.8887 100.317 6.68945Q104.541 2.49023 104.541-5.51758L104.541-64.8438Q104.541-72.8516 100.317-77.0508Q96.0938-81.25 87.9883-81.25L29.0039-81.25Q20.8984-81.25 16.6748-77.0508Q12.4512-72.8516 12.4512-64.8438L12.4512-5.51758Q12.4512 2.49023 16.6748 6.68945Q20.8984 10.8887 29.0039 10.8887ZM29.8828 0Q26.709 0 25.0244-1.63574Q23.3398-3.27148 23.3398-6.64062L23.3398-63.7207Q23.3398-67.0898 25.0244-68.7256Q26.709-70.3613 29.8828-70.3613L87.1094-70.3613Q90.2832-70.3613 91.9678-68.7256Q93.6523-67.0898 93.6523-63.7207L93.6523-6.64062Q93.6523-3.27148 91.9678-1.63574Q90.2832 0 87.1094 0ZM40.2832-12.6953Q42.2363-12.6953 43.3594-13.916Q44.4824-15.1367 44.4824-17.3828L44.4824-42.5293L44.9219-42.5293L54.2969-17.8223Q55.4199-14.8438 58.4473-14.8438Q61.5234-14.8438 62.6465-17.8223L72.1191-42.5293L72.5586-42.5293L72.5586-17.3828Q72.5586-12.6953 76.7578-12.6953Q78.7598-12.6953 79.8584-13.916Q80.957-15.1367 80.957-17.3828L80.957-52.5879Q80.957-55.0781 79.3945-56.6406Q77.832-58.2031 75.2441-58.2031Q70.752-58.2031 69.2871-53.8574L58.7402-25.9766L58.3984-25.9766L47.8027-53.8574Q46.2402-58.2031 41.7969-58.2031Q39.2578-58.2031 37.6709-56.6406Q36.084-55.0781 36.084-52.5879L36.084-17.3828Q36.084-12.6953 40.2832-12.6953Z"/>
  </g>
  <g id="Medium-M" transform="matrix(1 0 0 1 1688.52 1126)">
   <path d="M28.4668 10.4004L87.5977 10.4004Q95.5078 10.4004 99.5605 6.37207Q103.613 2.34375 103.613-5.46875L103.613-64.8926Q103.613-72.7539 99.5605-76.7578Q95.5078-80.7617 87.5977-80.7617L28.4668-80.7617Q20.5566-80.7617 16.5039-76.7578Q12.4512-72.7539 12.4512-64.8926L12.4512-5.46875Q12.4512 2.34375 16.5039 6.37207Q20.5566 10.4004 28.4668 10.4004ZM29.0039 0.830078Q25.6348 0.830078 23.8281-0.927734Q22.0215-2.68555 22.0215-6.25L22.0215-64.1113Q22.0215-67.6758 23.8281-69.4336Q25.6348-71.1914 29.0039-71.1914L87.0117-71.1914Q90.3809-71.1914 92.2119-69.4336Q94.043-67.6758 94.043-64.1113L94.043-6.25Q94.043-2.68555 92.2119-0.927734Q90.3809 0.830078 87.0117 0.830078ZM39.4531-12.6465Q41.3086-12.6465 42.3584-13.7939Q43.4082-14.9414 43.4082-17.041L43.4082-43.5059L43.7988-43.5059L54.0039-17.334Q55.127-14.502 57.959-14.502Q60.8398-14.502 61.9629-17.334L72.2168-43.5059L72.6562-43.5059L72.6562-17.041Q72.6562-12.6465 76.5625-12.6465Q78.418-12.6465 79.4434-13.7939Q80.4688-14.9414 80.4688-17.041L80.4688-53.2227Q80.4688-55.4688 79.0283-56.9092Q77.5879-58.3496 75.2441-58.3496Q71.1914-58.3496 69.8242-54.4922L58.2031-24.6094L57.9102-24.6094L46.2891-54.4922Q44.8242-58.3496 40.8203-58.3496Q38.4766-58.3496 37.0117-56.9092Q35.5469-55.4688 35.5469-53.2227L35.5469-17.041Q35.5469-12.6465 39.4531-12.6465Z"/>
  </g>
  <g id="Regular-M" transform="matrix(1 0 0 1 1392.45 1126)">
   <path d="M27.7832 9.76562L87.0117 9.76562Q94.6777 9.76562 98.5107 5.98145Q102.344 2.19727 102.344-5.37109L102.344-64.9902Q102.344-72.5586 98.5107-76.3428Q94.6777-80.127 87.0117-80.127L27.7832-80.127Q20.1172-80.127 16.2842-76.3428Q12.4512-72.5586 12.4512-64.9902L12.4512-5.37109Q12.4512 2.19727 16.2842 5.98145Q20.1172 9.76562 27.7832 9.76562ZM27.8809 1.9043Q24.2188 1.9043 22.2656-0.0244141Q20.3125-1.95312 20.3125-5.76172L20.3125-64.5996Q20.3125-68.4082 22.2656-70.3369Q24.2188-72.2656 27.8809-72.2656L86.9141-72.2656Q90.5273-72.2656 92.5049-70.3369Q94.4824-68.4082 94.4824-64.5996L94.4824-5.76172Q94.4824-1.95312 92.5049-0.0244141Q90.5273 1.9043 86.9141 1.9043ZM38.4766-12.5977Q40.1367-12.5977 41.0889-13.6475Q42.041-14.6973 42.041-16.6016L42.041-44.7754L42.4316-44.7754L53.6621-16.6504Q54.7363-14.0625 57.373-14.0625Q60.0586-14.0625 61.1328-16.6504L72.4121-44.7754L72.8027-44.7754L72.8027-16.6016Q72.8027-12.5977 76.3184-12.5977Q78.0273-12.5977 78.9551-13.6475Q79.8828-14.6973 79.8828-16.6016L79.8828-54.0039Q79.8828-56.0059 78.6133-57.2754Q77.3438-58.5449 75.293-58.5449Q71.8262-58.5449 70.5566-55.3711L57.6172-22.9004L57.3242-22.9004L44.3359-55.3711Q43.0176-58.5449 39.5508-58.5449Q37.5488-58.5449 36.2549-57.2754Q34.9609-56.0059 34.9609-54.0039L34.9609-16.6016Q34.9609-12.5977 38.4766-12.5977Z"/>
  </g>
  <g id="Light-M" transform="matrix(1 0 0 1 1096.47 1126)">
   <path d="M26.8555 9.0332L86.4746 9.0332Q93.6035 9.0332 97.2412 5.44434Q100.879 1.85547 100.879-5.22461L100.879-65.0879Q100.879-72.168 97.2412-75.7812Q93.6035-79.3945 86.4746-79.3945L26.8555-79.3945Q19.6777-79.3945 16.0645-75.8057Q12.4512-72.2168 12.4512-65.0879L12.4512-5.22461Q12.4512 1.85547 16.0645 5.44434Q19.6777 9.0332 26.8555 9.0332ZM26.9531 2.97852Q22.8027 2.97852 20.6543 0.830078Q18.5059-1.31836 18.5059-5.51758L18.5059-64.7949Q18.5059-69.043 20.6543-71.1914Q22.8027-73.3398 26.9531-73.3398L86.377-73.3398Q90.3809-73.3398 92.6025-71.1914Q94.8242-69.043 94.8242-64.7949L94.8242-5.51758Q94.8242-1.31836 92.6025 0.830078Q90.3809 2.97852 86.377 2.97852ZM37.9395-12.8906Q39.209-12.8906 39.9414-13.6963Q40.6738-14.502 40.6738-15.918L40.6738-47.5586L41.0156-47.5586L53.5156-16.1133Q54.4434-13.9648 56.6406-13.9648Q58.8867-13.9648 59.8145-16.1133L72.3145-47.5586L72.6562-47.5586L72.6562-15.918Q72.6562-12.8906 75.3906-12.8906Q76.7578-12.8906 77.4658-13.6963Q78.1738-14.502 78.1738-15.918L78.1738-54.3457Q78.1738-55.957 77.1484-56.9824Q76.123-58.0078 74.4629-58.0078Q71.6309-58.0078 70.5078-55.2734L56.8359-20.8496L56.543-20.8496L42.8711-55.2734Q41.748-58.0078 38.916-58.0078Q37.2559-58.0078 36.2061-56.9824Q35.1562-55.957 35.1562-54.3457L35.1562-15.918Q35.1562-12.8906 37.9395-12.8906Z"/>
  </g>
  <g id="Thin-M" transform="matrix(1 0 0 1 800.758 1126)">
   <path d="M25.5859 8.05664L85.6934 8.05664Q92.2363 8.05664 95.5566 4.71191Q98.877 1.36719 98.877-5.07812L98.877-65.2344Q98.877-71.6309 95.5566-75Q92.2363-78.3691 85.6934-78.3691L25.5859-78.3691Q19.1406-78.3691 15.7959-75.0488Q12.4512-71.7285 12.4512-65.2344L12.4512-5.07812Q12.4512 1.41602 15.7959 4.73633Q19.1406 8.05664 25.5859 8.05664ZM25.7324 4.44336Q20.9961 4.44336 18.5547 2.00195Q16.1133-0.439453 16.1133-5.22461L16.1133-65.0391Q16.1133-69.873 18.5547-72.29Q20.9961-74.707 25.7324-74.707L85.5957-74.707Q90.2344-74.707 92.749-72.29Q95.2637-69.873 95.2637-65.0391L95.2637-5.22461Q95.2637-0.439453 92.749 2.00195Q90.2344 4.44336 85.5957 4.44336ZM37.1582-13.2324Q37.9395-13.2324 38.4277-13.7207Q38.916-14.209 38.916-15.0391L38.916-51.2695L39.1602-51.2695L53.3203-15.332Q54.0039-13.7695 55.6641-13.7695Q57.373-13.7695 58.0078-15.332L72.2168-51.2695L72.4609-51.2695L72.4609-15.0391Q72.4609-13.2324 74.1699-13.2324Q75-13.2324 75.4639-13.7207Q75.9277-14.209 75.9277-15.0391L75.9277-54.7363Q75.9277-55.9082 75.1953-56.6406Q74.4629-57.373 73.3398-57.373Q71.3379-57.373 70.459-55.1758L55.8105-18.1641L55.5664-18.1641L40.918-55.1758Q39.9902-57.373 38.0371-57.373Q36.9141-57.373 36.1816-56.6406Q35.4492-55.9082 35.4492-54.7363L35.4492-15.0391Q35.4492-13.2324 37.1582-13.2324Z"/>
  </g>
  <g id="Ultralight-M" transform="matrix(1 0 0 1 504.535 1126)">
   <path d="M24.9512 7.56836L85.3516 7.56836Q91.5039 7.56836 94.7021 4.3457Q97.9004 1.12305 97.9004-4.98047L97.9004-65.332Q97.9004-71.3867 94.7021-74.6338Q91.5039-77.8809 85.3516-77.8809L24.9512-77.8809Q18.8477-77.8809 15.6494-74.6826Q12.4512-71.4844 12.4512-65.332L12.4512-4.98047Q12.4512 1.2207 15.6494 4.39453Q18.8477 7.56836 24.9512 7.56836ZM25.0977 5.17578Q20.0195 5.17578 17.4316 2.58789Q14.8438 0 14.8438-5.07812L14.8438-65.1855Q14.8438-70.2637 17.4316-72.8516Q20.0195-75.4395 25.0977-75.4395L85.2539-75.4395Q90.1367-75.4395 92.7979-72.8516Q95.459-70.2637 95.459-65.1855L95.459-5.07812Q95.459 0 92.7979 2.58789Q90.1367 5.17578 85.2539 5.17578ZM36.7676-13.4277Q37.2559-13.4277 37.5977-13.7451Q37.9395-14.0625 37.9395-14.5996L37.9395-53.1738L38.1836-53.1738L53.2227-14.9902Q53.7598-13.7207 55.127-13.7207Q56.543-13.7207 57.0801-14.9902L72.1191-53.1738L72.3633-53.1738L72.3633-14.5996Q72.3633-13.4277 73.5352-13.4277Q74.1211-13.4277 74.4385-13.7451Q74.7559-14.0625 74.7559-14.5996L74.7559-54.9805Q74.7559-55.8594 74.1943-56.4209Q73.6328-56.9824 72.7539-56.9824Q71.1914-56.9824 70.4102-55.127L55.2246-16.748L54.9805-16.748L39.8926-55.127Q39.1113-56.9824 37.5488-56.9824Q36.6699-56.9824 36.1084-56.4209Q35.5469-55.8594 35.5469-54.9805L35.5469-14.5996Q35.5469-13.4277 36.7676-13.4277Z"/>
  </g>
  <g id="Black-S" transform="matrix(1 0 0 1 2885.5 696)">
   <path d="M25 2.92969L70.8008 2.92969Q77.9785 2.92969 82.0068-1.09863Q86.0352-5.12695 86.0352-12.3047L86.0352-58.1055Q86.0352-65.2832 82.0068-69.3115Q77.9785-73.3398 70.8008-73.3398L25-73.3398Q17.8223-73.3398 13.7939-69.3115Q9.76562-65.2832 9.76562-58.1055L9.76562-12.3047Q9.76562-5.12695 13.7939-1.09863Q17.8223 2.92969 25 2.92969ZM27.2461-11.2305Q25.5859-11.2305 24.7559-11.9873Q23.9258-12.7441 23.9258-14.5508L23.9258-55.8594Q23.9258-57.7148 24.7559-58.4473Q25.5859-59.1797 27.2461-59.1797L68.5547-59.1797Q70.2637-59.1797 71.0693-58.4473Q71.875-57.7148 71.875-55.8594L71.875-14.5508Q71.875-12.7441 71.0693-11.9873Q70.2637-11.2305 68.5547-11.2305ZM34.9121-17.7734Q39.4531-17.7734 39.4531-22.6562L39.4531-36.7676L39.8438-36.7676L43.75-23.877Q44.6777-20.7031 47.7539-20.7031Q50.8789-20.7031 51.8555-23.8281L55.957-36.7676L56.3477-36.7676L56.3477-22.6562Q56.3477-17.7734 60.8887-17.7734Q65.4297-17.7734 65.4297-22.6562L65.4297-46.1426Q65.4297-49.0234 63.6475-50.7812Q61.8652-52.5391 58.8379-52.5391Q53.418-52.5391 51.8066-46.875L48.0469-33.6914L47.7539-33.6914L43.9941-46.875Q42.334-52.5391 36.9629-52.5391Q33.9844-52.5391 32.1777-50.7812Q30.3711-49.0234 30.3711-46.1426L30.3711-22.6562Q30.3711-17.7734 34.9121-17.7734Z"/>
  </g>
  <g id="Heavy-S" transform="matrix(1 0 0 1 2589.4 696)">
   <path d="M24.3652 2.34375L70.2637 2.34375Q77.1973 2.34375 81.0059-1.46484Q84.8145-5.27344 84.8145-12.207L84.8145-58.2031Q84.8145-65.1367 81.0059-68.9453Q77.1973-72.7539 70.2637-72.7539L24.3652-72.7539Q17.3828-72.7539 13.5742-68.9453Q9.76562-65.1367 9.76562-58.2031L9.76562-12.207Q9.76562-5.27344 13.5742-1.46484Q17.3828 2.34375 24.3652 2.34375ZM26.0742-10.1562Q24.1699-10.1562 23.2178-11.0596Q22.2656-11.9629 22.2656-14.0137L22.2656-56.3965Q22.2656-58.4473 23.2178-59.3506Q24.1699-60.2539 26.0742-60.2539L68.5059-60.2539Q70.459-60.2539 71.4111-59.3506Q72.3633-58.4473 72.3633-56.3965L72.3633-14.0137Q72.3633-11.9629 71.4111-11.0596Q70.459-10.1562 68.5059-10.1562ZM33.8379-17.6758Q38.0371-17.6758 38.0371-22.2656L38.0371-37.8418L38.4277-37.8418L43.3594-23.1934Q44.2871-20.2637 47.168-20.2637Q50.0977-20.2637 51.0742-23.1445L56.1523-37.8418L56.4941-37.8418L56.4941-22.2656Q56.4941-17.6758 60.6934-17.6758Q64.9414-17.6758 64.9414-22.2656L64.9414-47.0215Q64.9414-49.6094 63.3057-51.2207Q61.6699-52.832 58.9844-52.832Q54.1016-52.832 52.5879-47.8516L47.4121-32.0312L47.168-32.0312L41.9434-47.8516Q40.4297-52.832 35.5957-52.832Q32.9102-52.832 31.2744-51.2207Q29.6387-49.6094 29.6387-47.0215L29.6387-22.2656Q29.6387-17.6758 33.8379-17.6758Z"/>
  </g>
  <g id="Bold-S" transform="matrix(1 0 0 1 2293.35 696)">
   <path d="M23.6328 1.66016L69.6289 1.66016Q76.3672 1.66016 79.9316-1.9043Q83.4961-5.46875 83.4961-12.1094L83.4961-58.3008Q83.4961-64.9902 79.9316-68.5303Q76.3672-72.0703 69.6289-72.0703L23.6328-72.0703Q16.9434-72.0703 13.3545-68.5303Q9.76562-64.9902 9.76562-58.3008L9.76562-12.1094Q9.76562-5.46875 13.3545-1.9043Q16.9434 1.66016 23.6328 1.66016ZM24.8047-8.98438Q22.6562-8.98438 21.5088-10.0586Q20.3613-11.1328 20.3613-13.4277L20.3613-57.0312Q20.3613-59.3262 21.5088-60.4004Q22.6562-61.4746 24.8047-61.4746L68.457-61.4746Q70.6543-61.4746 71.7773-60.4004Q72.9004-59.3262 72.9004-57.0312L72.9004-13.4277Q72.9004-11.1328 71.7773-10.0586Q70.6543-8.98438 68.457-8.98438ZM32.7148-17.5781Q36.5723-17.5781 36.5723-21.8262L36.5723-39.0625L36.9141-39.0625L42.9688-22.4121Q43.8965-19.7266 46.582-19.7266Q49.3164-19.7266 50.2441-22.4121L56.3965-39.0625L56.7871-39.0625L56.7871-21.8262Q56.7871-17.5781 60.5957-17.5781Q64.4531-17.5781 64.4531-21.8262L64.4531-47.998Q64.4531-50.293 63.0127-51.709Q61.5723-53.125 59.1797-53.125Q54.9316-53.125 53.5645-48.9746L46.8262-30.127L46.582-30.127L39.7461-48.9746Q38.3789-53.125 34.1797-53.125Q31.7871-53.125 30.3223-51.709Q28.8574-50.293 28.8574-47.998L28.8574-21.8262Q28.8574-17.5781 32.7148-17.5781Z"/>
  </g>
  <g id="Semibold-S" transform="matrix(1 0 0 1 1997.12 696)">
   <path d="M23.0957 1.2207L69.1895 1.2207Q75.7324 1.2207 79.126-2.17285Q82.5195-5.56641 82.5195-12.0605L82.5195-58.3496Q82.5195-64.8438 79.126-68.2373Q75.7324-71.6309 69.1895-71.6309L23.0957-71.6309Q16.6016-71.6309 13.1836-68.2373Q9.76562-64.8438 9.76562-58.3496L9.76562-12.0605Q9.76562-5.56641 13.1836-2.17285Q16.6016 1.2207 23.0957 1.2207ZM23.877-8.1543Q21.5332-8.1543 20.2881-9.32617Q19.043-10.498 19.043-12.9883L19.043-57.4219Q19.043-59.8633 20.2881-61.0596Q21.5332-62.2559 23.877-62.2559L68.4082-62.2559Q70.752-62.2559 71.9971-61.0596Q73.2422-59.8633 73.2422-57.4219L73.2422-12.9883Q73.2422-10.498 71.9971-9.32617Q70.752-8.1543 68.4082-8.1543ZM31.8359-17.5293Q35.4492-17.5293 35.4492-21.4844L35.4492-39.8926L35.8398-39.8926L42.6758-21.875Q43.5547-19.3848 46.0938-19.3848Q48.6816-19.3848 49.6094-21.875L56.543-39.8926L56.8848-39.8926L56.8848-21.4844Q56.8848-17.5293 60.4492-17.5293Q64.0625-17.5293 64.0625-21.4844L64.0625-48.6328Q64.0625-50.7324 62.7441-52.0264Q61.4258-53.3203 59.2285-53.3203Q55.4199-53.3203 54.1992-49.7559L46.3379-28.8086L46.0938-28.8086L38.1836-49.7559Q36.9141-53.3203 33.1055-53.3203Q30.957-53.3203 29.6143-52.0264Q28.2715-50.7324 28.2715-48.6328L28.2715-21.4844Q28.2715-17.5293 31.8359-17.5293Z"/>
  </g>
  <g id="Medium-S" transform="matrix(1 0 0 1 1700.75 696)">
   <path d="M22.7051 0.830078L68.8965 0.830078Q75.293 0.830078 78.5645-2.41699Q81.8359-5.66406 81.8359-11.9629L81.8359-58.4473Q81.8359-64.7461 78.5645-67.9932Q75.293-71.2402 68.8965-71.2402L22.7051-71.2402Q16.3574-71.2402 13.0615-67.9932Q9.76562-64.7461 9.76562-58.4473L9.76562-11.9629Q9.76562-5.66406 13.0615-2.41699Q16.3574 0.830078 22.7051 0.830078ZM23.1934-7.51953Q20.752-7.51953 19.4092-8.78906Q18.0664-10.0586 18.0664-12.6465L18.0664-57.7637Q18.0664-60.3027 19.4092-61.5967Q20.752-62.8906 23.1934-62.8906L68.4082-62.8906Q70.8496-62.8906 72.1924-61.5967Q73.5352-60.3027 73.5352-57.7637L73.5352-12.6465Q73.5352-10.0586 72.1924-8.78906Q70.8496-7.51953 68.4082-7.51953ZM31.2012-17.4316Q34.6191-17.4316 34.6191-21.2402L34.6191-40.5273L34.9609-40.5273L42.3828-21.4844Q43.3105-19.0918 45.752-19.0918Q48.1934-19.0918 49.1211-21.4844L56.5918-40.5273L56.9824-40.5273L56.9824-21.2402Q56.9824-17.4316 60.3027-17.4316Q63.7695-17.4316 63.7695-21.2402L63.7695-49.1699Q63.7695-51.123 62.5244-52.3193Q61.2793-53.5156 59.2773-53.5156Q55.8105-53.5156 54.6387-50.3418L45.9473-27.832L45.752-27.832L36.9629-50.3418Q35.791-53.5156 32.2754-53.5156Q30.3223-53.5156 29.0771-52.3193Q27.832-51.123 27.832-49.1699L27.832-21.2402Q27.832-17.4316 31.2012-17.4316Z"/>
  </g>
  <g id="Regular-S" transform="matrix(1 0 0 1 1404.51 696)">
   <path d="M22.2168 0.390625L68.457 0.390625Q74.707 0.390625 77.8076-2.68555Q80.9082-5.76172 80.9082-11.9141L80.9082-58.4961Q80.9082-64.6484 77.8076-67.7246Q74.707-70.8008 68.457-70.8008L22.2168-70.8008Q16.0156-70.8008 12.8906-67.7246Q9.76562-64.6484 9.76562-58.4961L9.76562-11.9141Q9.76562-5.76172 12.8906-2.68555Q16.0156 0.390625 22.2168 0.390625ZM22.3145-6.68945Q19.6777-6.68945 18.2373-8.08105Q16.7969-9.47266 16.7969-12.2559L16.7969-58.1543Q16.7969-60.8887 18.2373-62.3047Q19.6777-63.7207 22.3145-63.7207L68.3594-63.7207Q70.9961-63.7207 72.4365-62.3047Q73.877-60.8887 73.877-58.1543L73.877-12.2559Q73.877-9.47266 72.4365-8.08105Q70.9961-6.68945 68.3594-6.68945ZM30.4199-17.3828Q33.5938-17.3828 33.5938-20.9473L33.5938-41.3574L33.9355-41.3574L42.1387-20.9473Q43.0176-18.75 45.3125-18.75Q47.6562-18.75 48.5352-20.9473L56.7871-41.3574L57.1289-41.3574L57.1289-20.9473Q57.1289-17.3828 60.2051-17.3828Q63.4277-17.3828 63.4277-20.9473L63.4277-49.8047Q63.4277-51.5625 62.3047-52.6367Q61.1816-53.7109 59.4238-53.7109Q56.3477-53.7109 55.2734-51.0742L45.5078-26.5625L45.3125-26.5625L35.4492-51.0742Q34.375-53.7109 31.2988-53.7109Q29.541-53.7109 28.418-52.6367Q27.2949-51.5625 27.2949-49.8047L27.2949-20.9473Q27.2949-17.3828 30.4199-17.3828Z"/>
  </g>
  <g id="Light-S" transform="matrix(1 0 0 1 1108.46 696)">
   <path d="M21.3867-0.244141L67.9688-0.244141Q73.7793-0.244141 76.6846-3.17383Q79.5898-6.10352 79.5898-11.8164L79.5898-58.5938Q79.5898-64.3066 76.6846-67.2119Q73.7793-70.1172 67.9688-70.1172L21.3867-70.1172Q15.625-70.1172 12.6953-67.2119Q9.76562-64.3066 9.76562-58.5938L9.76562-11.8164Q9.76562-6.05469 12.6953-3.14941Q15.625-0.244141 21.3867-0.244141ZM21.4844-5.71289Q18.457-5.71289 16.8213-7.2998Q15.1855-8.88672 15.1855-12.0605L15.1855-58.3008Q15.1855-61.4258 16.8213-63.0371Q18.457-64.6484 21.4844-64.6484L67.8711-64.6484Q70.8984-64.6484 72.5342-63.0371Q74.1699-61.4258 74.1699-58.3008L74.1699-12.0605Q74.1699-8.88672 72.5342-7.2998Q70.8984-5.71289 67.8711-5.71289ZM29.8828-17.627Q32.373-17.627 32.373-20.3613L32.373-43.8477L32.666-43.8477L41.9922-20.459Q42.7246-18.6523 44.6289-18.6523Q46.582-18.6523 47.3145-20.459L56.6895-43.8477L56.9824-43.8477L56.9824-20.3613Q56.9824-17.627 59.375-17.627Q61.9141-17.627 61.9141-20.3613L61.9141-50.0977Q61.9141-51.5137 60.9863-52.3926Q60.0586-53.2715 58.6426-53.2715Q56.1523-53.2715 55.2246-50.9766L44.8242-24.7559L44.6289-24.7559L34.1309-50.9766Q33.2031-53.2715 30.7129-53.2715Q29.2969-53.2715 28.3691-52.3926Q27.4414-51.5137 27.4414-50.0977L27.4414-20.3613Q27.4414-17.627 29.8828-17.627Z"/>
  </g>
  <g id="Thin-S" transform="matrix(1 0 0 1 812.623 696)">
   <path d="M20.3125-1.12305L67.2852-1.12305Q72.5098-1.12305 75.1709-3.80859Q77.832-6.49414 77.832-11.6211L77.832-58.6914Q77.832-63.8184 75.1709-66.5283Q72.5098-69.2383 67.2852-69.2383L20.3125-69.2383Q15.0879-69.2383 12.4268-66.5771Q9.76562-63.916 9.76562-58.6914L9.76562-11.6211Q9.76562-6.44531 12.4268-3.78418Q15.0879-1.12305 20.3125-1.12305ZM20.4102-4.44336Q16.7969-4.44336 14.9414-6.29883Q13.0859-8.1543 13.0859-11.8164L13.0859-58.5449Q13.0859-62.207 14.9414-64.0625Q16.7969-65.918 20.4102-65.918L67.1875-65.918Q70.7031-65.918 72.6318-64.0625Q74.5605-62.207 74.5605-58.5449L74.5605-11.8164Q74.5605-8.1543 72.6318-6.29883Q70.7031-4.44336 67.1875-4.44336ZM29.1992-17.9199Q30.7617-17.9199 30.7617-19.5801L30.7617-47.1191L31.0059-47.1191L41.7969-19.7754Q42.334-18.457 43.75-18.457Q45.166-18.457 45.752-19.7754L56.543-47.1191L56.7871-47.1191L56.7871-19.5801Q56.7871-17.9199 58.3496-17.9199Q59.9121-17.9199 59.9121-19.5801L59.9121-50.4395Q59.9121-51.4648 59.2529-52.0508Q58.5938-52.6367 57.666-52.6367Q55.9082-52.6367 55.1758-50.8789L43.8965-22.3633L43.7012-22.3633L32.373-50.8789Q31.6406-52.6367 29.9316-52.6367Q28.9551-52.6367 28.3203-52.0508Q27.6855-51.4648 27.6855-50.4395L27.6855-19.5801Q27.6855-17.9199 29.1992-17.9199Z"/>
  </g>
  <g id="Ultralight-S" transform="matrix(1 0 0 1 516.352 696)">
   <path d="M19.7754-1.5625L66.9434-1.5625Q71.875-1.5625 74.4141-4.15039Q76.9531-6.73828 76.9531-11.5723L76.9531-58.7891Q76.9531-63.623 74.4141-66.1865Q71.875-68.75 66.9434-68.75L19.7754-68.75Q14.8438-68.75 12.3047-66.2109Q9.76562-63.6719 9.76562-58.7891L9.76562-11.5723Q9.76562-6.64062 12.3047-4.10156Q14.8438-1.5625 19.7754-1.5625ZM19.873-3.75977Q15.9668-3.75977 13.9648-5.76172Q11.9629-7.76367 11.9629-11.6699L11.9629-58.6426Q11.9629-62.5488 13.9648-64.5508Q15.9668-66.5527 19.873-66.5527L66.8457-66.5527Q70.6543-66.5527 72.7051-64.5508Q74.7559-62.5488 74.7559-58.6426L74.7559-11.6699Q74.7559-7.76367 72.7051-5.76172Q70.6543-3.75977 66.8457-3.75977ZM28.8574-18.0664Q29.9316-18.0664 29.9316-19.1895L29.9316-48.8281L30.1758-48.8281L41.6992-19.4336Q42.1387-18.4082 43.3105-18.4082Q44.4824-18.4082 44.9219-19.4336L56.4941-48.8281L56.6895-48.8281L56.6895-19.1895Q56.6895-18.0664 57.7637-18.0664Q58.8867-18.0664 58.8867-19.1895L58.8867-50.6348Q58.8867-51.416 58.374-51.8799Q57.8613-52.3438 57.1289-52.3438Q55.8105-52.3438 55.1758-50.8301L43.4082-21.0938L43.2129-21.0938L31.4941-50.8301Q30.8594-52.3438 29.4922-52.3438Q28.7598-52.3438 28.2715-51.8799Q27.7832-51.416 27.7832-50.6348L27.7832-19.1895Q27.7832-18.0664 28.8574-18.0664Z"/>
  </g>
 </g>
</svg>
