<?xml version="1.0" encoding="UTF-8"?>
<!--Generator: Apple Native CoreSVG 175-->
<!DOCTYPE svg
PUBLIC "-//W3C//DTD SVG 1.1//EN"
       "http://www.w3.org/Graphics/SVG/1.1/DTD/svg11.dtd">
<svg version="1.1" xmlns="http://www.w3.org/2000/svg" xmlns:xlink="http://www.w3.org/1999/xlink" width="3300" height="2200">
 <!--glyph: "uni1000A6.medium", point size: 100.0, font version: "17.0d11e1", template writer version: "65.1"-->
 <g id="Notes">
  <rect height="2200" id="artboard" style="fill:white;opacity:1" width="3300" x="0" y="0"/>
  <line style="fill:none;stroke:black;opacity:1;stroke-width:0.5;" x1="263" x2="3036" y1="292" y2="292"/>
  <text style="stroke:none;fill:black;font-family:sans-serif;font-size:13;font-weight:bold;" transform="matrix(1 0 0 1 263 322)">Weight/Scale Variations</text>
  <text style="stroke:none;fill:black;font-family:sans-serif;font-size:13;text-anchor:middle;" transform="matrix(1 0 0 1 559.711 322)">Ultralight</text>
  <text style="stroke:none;fill:black;font-family:sans-serif;font-size:13;text-anchor:middle;" transform="matrix(1 0 0 1 856.422 322)">Thin</text>
  <text style="stroke:none;fill:black;font-family:sans-serif;font-size:13;text-anchor:middle;" transform="matrix(1 0 0 1 1153.13 322)">Light</text>
  <text style="stroke:none;fill:black;font-family:sans-serif;font-size:13;text-anchor:middle;" transform="matrix(1 0 0 1 1449.84 322)">Regular</text>
  <text style="stroke:none;fill:black;font-family:sans-serif;font-size:13;text-anchor:middle;" transform="matrix(1 0 0 1 1746.56 322)">Medium</text>
  <text style="stroke:none;fill:black;font-family:sans-serif;font-size:13;text-anchor:middle;" transform="matrix(1 0 0 1 2043.27 322)">Semibold</text>
  <text style="stroke:none;fill:black;font-family:sans-serif;font-size:13;text-anchor:middle;" transform="matrix(1 0 0 1 2339.98 322)">Bold</text>
  <text style="stroke:none;fill:black;font-family:sans-serif;font-size:13;text-anchor:middle;" transform="matrix(1 0 0 1 2636.69 322)">Heavy</text>
  <text style="stroke:none;fill:black;font-family:sans-serif;font-size:13;text-anchor:middle;" transform="matrix(1 0 0 1 2933.4 322)">Black</text>
  <line style="fill:none;stroke:black;opacity:1;stroke-width:0.5;" x1="263" x2="3036" y1="1903" y2="1903"/>
  <g transform="matrix(1 0 0 1 263 1933)">
   <path d="M9.24805 0.830078Q10.8691 0.830078 12.2949 0.214844Q13.7207-0.400391 14.8096-1.49414Q15.8984-2.58789 16.5186-4.01367Q17.1387-5.43945 17.1387-7.05078Q17.1387-8.66211 16.5186-10.0879Q15.8984-11.5137 14.8047-12.6074Q13.7109-13.7012 12.2852-14.3164Q10.8594-14.9316 9.23828-14.9316Q7.62695-14.9316 6.20117-14.3164Q4.77539-13.7012 3.69141-12.6074Q2.60742-11.5137 1.9873-10.0879Q1.36719-8.66211 1.36719-7.05078Q1.36719-5.43945 1.9873-4.01367Q2.60742-2.58789 3.69629-1.49414Q4.78516-0.400391 6.21094 0.214844Q7.63672 0.830078 9.24805 0.830078ZM9.24805-0.654297Q7.91992-0.654297 6.7627-1.14746Q5.60547-1.64062 4.73145-2.51953Q3.85742-3.39844 3.36426-4.56055Q2.87109-5.72266 2.87109-7.05078Q2.87109-8.37891 3.35938-9.54102Q3.84766-10.7031 4.72168-11.582Q5.5957-12.4609 6.75293-12.9541Q7.91016-13.4473 9.23828-13.4473Q10.5762-13.4473 11.7334-12.9541Q12.8906-12.4609 13.7695-11.582Q14.6484-10.7031 15.1465-9.54102Q15.6445-8.37891 15.6445-7.05078Q15.6445-5.72266 15.1514-4.56055Q14.6582-3.39844 13.7842-2.51953Q12.9102-1.64062 11.748-1.14746Q10.5859-0.654297 9.24805-0.654297ZM5.6543-7.05078Q5.6543-6.72852 5.85938-6.52832Q6.06445-6.32812 6.40625-6.32812L8.51562-6.32812L8.51562-4.20898Q8.51562-3.88672 8.71094-3.67676Q8.90625-3.4668 9.23828-3.4668Q9.56055-3.4668 9.77051-3.67676Q9.98047-3.88672 9.98047-4.20898L9.98047-6.32812L12.0898-6.32812Q12.4219-6.32812 12.627-6.52832Q12.832-6.72852 12.832-7.05078Q12.832-7.38281 12.627-7.58789Q12.4219-7.79297 12.0898-7.79297L9.98047-7.79297L9.98047-9.90234Q9.98047-10.2344 9.77051-10.4443Q9.56055-10.6543 9.23828-10.6543Q8.90625-10.6543 8.71094-10.4443Q8.51562-10.2344 8.51562-9.90234L8.51562-7.79297L6.40625-7.79297Q6.06445-7.79297 5.85938-7.58789Q5.6543-7.38281 5.6543-7.05078Z"/>
  </g>
  <g transform="matrix(1 0 0 1 281.867 1933)">
   <path d="M11.709 2.91016Q13.75 2.91016 15.5518 2.12891Q17.3535 1.34766 18.7305-0.0292969Q20.1074-1.40625 20.8887-3.20801Q21.6699-5.00977 21.6699-7.05078Q21.6699-9.0918 20.8887-10.8936Q20.1074-12.6953 18.7305-14.0723Q17.3535-15.4492 15.5469-16.2305Q13.7402-17.0117 11.6992-17.0117Q9.6582-17.0117 7.85645-16.2305Q6.05469-15.4492 4.68262-14.0723Q3.31055-12.6953 2.5293-10.8936Q1.74805-9.0918 1.74805-7.05078Q1.74805-5.00977 2.5293-3.20801Q3.31055-1.40625 4.6875-0.0292969Q6.06445 1.34766 7.86621 2.12891Q9.66797 2.91016 11.709 2.91016ZM11.709 1.25Q9.98047 1.25 8.47656 0.605469Q6.97266-0.0390625 5.83496-1.17676Q4.69727-2.31445 4.05762-3.81836Q3.41797-5.32227 3.41797-7.05078Q3.41797-8.7793 4.05762-10.2832Q4.69727-11.7871 5.83008-12.9297Q6.96289-14.0723 8.4668-14.7119Q9.9707-15.3516 11.6992-15.3516Q13.4277-15.3516 14.9316-14.7119Q16.4355-14.0723 17.5781-12.9297Q18.7207-11.7871 19.3652-10.2832Q20.0098-8.7793 20.0098-7.05078Q20.0098-5.32227 19.3701-3.81836Q18.7305-2.31445 17.5928-1.17676Q16.4551-0.0390625 14.9463 0.605469Q13.4375 1.25 11.709 1.25ZM7.17773-7.05078Q7.17773-6.69922 7.41211-6.47461Q7.64648-6.25 8.01758-6.25L10.8887-6.25L10.8887-3.36914Q10.8887-2.99805 11.1133-2.76855Q11.3379-2.53906 11.6895-2.53906Q12.0605-2.53906 12.29-2.76855Q12.5195-2.99805 12.5195-3.36914L12.5195-6.25L15.4004-6.25Q15.7715-6.25 16.001-6.47461Q16.2305-6.69922 16.2305-7.05078Q16.2305-7.42188 16.001-7.65137Q15.7715-7.88086 15.4004-7.88086L12.5195-7.88086L12.5195-10.752Q12.5195-11.1328 12.29-11.3623Q12.0605-11.5918 11.6895-11.5918Q11.3379-11.5918 11.1133-11.3574Q10.8887-11.123 10.8887-10.752L10.8887-7.88086L8.01758-7.88086Q7.63672-7.88086 7.40723-7.65137Q7.17773-7.42188 7.17773-7.05078Z"/>
  </g>
  <g transform="matrix(1 0 0 1 305.646 1933)">
   <path d="M14.9707 5.66406Q17.0605 5.66406 18.96 5.01465Q20.8594 4.36523 22.4512 3.19336Q24.043 2.02148 25.2197 0.429688Q26.3965-1.16211 27.0459-3.06641Q27.6953-4.9707 27.6953-7.05078Q27.6953-9.14062 27.0459-11.04Q26.3965-12.9395 25.2197-14.5312Q24.043-16.123 22.4512-17.2998Q20.8594-18.4766 18.9551-19.126Q17.0508-19.7754 14.9609-19.7754Q12.8711-19.7754 10.9717-19.126Q9.07227-18.4766 7.48535-17.2998Q5.89844-16.123 4.72168-14.5312Q3.54492-12.9395 2.90039-11.04Q2.25586-9.14062 2.25586-7.05078Q2.25586-4.9707 2.90527-3.06641Q3.55469-1.16211 4.72656 0.429688Q5.89844 2.02148 7.49023 3.19336Q9.08203 4.36523 10.9814 5.01465Q12.8809 5.66406 14.9707 5.66406ZM14.9707 3.84766Q13.1641 3.84766 11.5283 3.2959Q9.89258 2.74414 8.53516 1.74805Q7.17773 0.751953 6.17676-0.610352Q5.17578-1.97266 4.62891-3.6084Q4.08203-5.24414 4.08203-7.05078Q4.08203-8.86719 4.62891-10.5029Q5.17578-12.1387 6.17188-13.501Q7.16797-14.8633 8.52539-15.8594Q9.88281-16.8555 11.5186-17.4023Q13.1543-17.9492 14.9609-17.9492Q16.7773-17.9492 18.4131-17.4023Q20.0488-16.8555 21.4111-15.8594Q22.7734-14.8633 23.7695-13.501Q24.7656-12.1387 25.3174-10.5029Q25.8691-8.86719 25.8691-7.05078Q25.8789-5.24414 25.332-3.6084Q24.7852-1.97266 23.7842-0.610352Q22.7832 0.751953 21.4209 1.74805Q20.0586 2.74414 18.4229 3.2959Q16.7871 3.84766 14.9707 3.84766ZM9.19922-7.05078Q9.19922-6.66992 9.45801-6.4209Q9.7168-6.17188 10.1172-6.17188L14.0625-6.17188L14.0625-2.2168Q14.0625-1.81641 14.3115-1.55762Q14.5605-1.29883 14.9512-1.29883Q15.3516-1.29883 15.6104-1.55273Q15.8691-1.80664 15.8691-2.2168L15.8691-6.17188L19.8242-6.17188Q20.2246-6.17188 20.4785-6.4209Q20.7324-6.66992 20.7324-7.05078Q20.7324-7.46094 20.4785-7.71484Q20.2246-7.96875 19.8242-7.96875L15.8691-7.96875L15.8691-11.9141Q15.8691-12.3242 15.6104-12.583Q15.3516-12.8418 14.9512-12.8418Q14.5605-12.8418 14.3115-12.583Q14.0625-12.3242 14.0625-11.9141L14.0625-7.96875L10.1172-7.96875Q9.70703-7.96875 9.45312-7.71484Q9.19922-7.46094 9.19922-7.05078Z"/>
  </g>
  <text style="stroke:none;fill:black;font-family:sans-serif;font-size:13;font-weight:bold;" transform="matrix(1 0 0 1 263 1953)">Design Variations</text>
  <text style="stroke:none;fill:black;font-family:sans-serif;font-size:13;" transform="matrix(1 0 0 1 263 1971)">Symbols are supported in up to nine weights and three scales.</text>
  <text style="stroke:none;fill:black;font-family:sans-serif;font-size:13;" transform="matrix(1 0 0 1 263 1989)">For optimal layout with text and other symbols, vertically align</text>
  <text style="stroke:none;fill:black;font-family:sans-serif;font-size:13;" transform="matrix(1 0 0 1 263 2007)">symbols with the adjacent text.</text>
  <line style="fill:none;stroke:#00AEEF;stroke-width:0.5;opacity:1.0;" x1="776" x2="776" y1="1919" y2="1933"/>
  <g transform="matrix(1 0 0 1 776 1933)">
   <path d="M3.31055 0.15625Q3.70117 0.15625 3.91602-0.00976562Q4.13086-0.175781 4.26758-0.585938L5.52734-4.0332L11.2891-4.0332L12.5488-0.585938Q12.6855-0.175781 12.9004-0.00976562Q13.1152 0.15625 13.4961 0.15625Q13.8867 0.15625 14.1162-0.0585938Q14.3457-0.273438 14.3457-0.644531Q14.3457-0.869141 14.2383-1.17188L9.6582-13.3691Q9.48242-13.8184 9.17969-14.043Q8.87695-14.2676 8.4082-14.2676Q7.5-14.2676 7.17773-13.3789L2.59766-1.16211Q2.49023-0.859375 2.49023-0.634766Q2.49023-0.263672 2.70996-0.0537109Q2.92969 0.15625 3.31055 0.15625ZM6.00586-5.51758L8.37891-12.0898L8.42773-12.0898L10.8008-5.51758Z"/>
  </g>
  <line style="fill:none;stroke:#00AEEF;stroke-width:0.5;opacity:1.0;" x1="793.197" x2="793.197" y1="1919" y2="1933"/>
  <text style="stroke:none;fill:black;font-family:sans-serif;font-size:13;font-weight:bold;" transform="matrix(1 0 0 1 776 1953)">Margins</text>
  <text style="stroke:none;fill:black;font-family:sans-serif;font-size:13;" transform="matrix(1 0 0 1 776 1971)">Leading and trailing margins on the left and right side of each symbol</text>
  <text style="stroke:none;fill:black;font-family:sans-serif;font-size:13;" transform="matrix(1 0 0 1 776 1989)">can be adjusted by modifying the x-location of the margin guidelines.</text>
  <text style="stroke:none;fill:black;font-family:sans-serif;font-size:13;" transform="matrix(1 0 0 1 776 2007)">Modifications are automatically applied proportionally to all</text>
  <text style="stroke:none;fill:black;font-family:sans-serif;font-size:13;" transform="matrix(1 0 0 1 776 2025)">scales and weights.</text>
  <g transform="matrix(1 0 0 1 1289 1933)">
   <path d="M2.8418 1.86523L4.54102 3.57422Q5.18555 4.22852 5.90332 4.17969Q6.62109 4.13086 7.31445 3.35938L18.0078-8.42773L17.041-9.4043L6.42578 2.27539Q6.16211 2.57812 5.89355 2.61719Q5.625 2.65625 5.27344 2.30469L4.10156 1.14258Q3.75 0.791016 3.79395 0.522461Q3.83789 0.253906 4.14062-0.0195312L15.6152-10.8203L14.6387-11.7871L3.04688-0.898438Q2.30469-0.214844 2.25098 0.498047Q2.19727 1.21094 2.8418 1.86523ZM9.25781-16.3281Q8.94531-16.0254 8.90625-15.6348Q8.86719-15.2441 9.04297-14.9512Q9.21875-14.6777 9.55566-14.541Q9.89258-14.4043 10.3809-14.5215Q11.4746-14.7754 12.5977-14.7314Q13.7207-14.6875 14.7949-13.9844L14.209-12.5293Q13.9551-11.9043 14.0674-11.4404Q14.1797-10.9766 14.5801-10.5664L16.875-8.25195Q17.2363-7.88086 17.5781-7.82227Q17.9199-7.76367 18.3398-7.8418L19.4043-8.03711L20.0684-7.36328L20.0293-6.80664Q20-6.43555 20.1221-6.12305Q20.2441-5.81055 20.6055-5.44922L21.3672-4.70703Q21.7285-4.3457 22.1533-4.33105Q22.5781-4.31641 22.9297-4.66797L25.8398-7.58789Q26.1914-7.93945 26.1816-8.35449Q26.1719-8.76953 25.8105-9.13086L25.0391-9.89258Q24.6875-10.2539 24.3799-10.3857Q24.0723-10.5176 23.7109-10.4883L23.1348-10.4395L22.4902-11.0742L22.7344-12.1973Q22.832-12.6172 22.6953-12.9834Q22.5586-13.3496 22.1191-13.7891L19.9219-15.9766Q18.6719-17.2168 17.2607-17.8369Q15.8496-18.457 14.4189-18.4814Q12.9883-18.5059 11.665-17.959Q10.3418-17.4121 9.25781-16.3281ZM10.752-15.957Q11.6602-16.6211 12.7002-16.9043Q13.7402-17.1875 14.8047-17.085Q15.8691-16.9824 16.8701-16.5137Q17.8711-16.0449 18.7012-15.2051L21.1328-12.793Q21.3086-12.6172 21.3525-12.4512Q21.3965-12.2852 21.3379-12.0312L21.0156-10.5469L22.5195-9.0625L23.5059-9.12109Q23.6914-9.13086 23.7891-9.09668Q23.8867-9.0625 24.0332-8.91602L24.6094-8.33984L22.168-5.89844L21.5918-6.47461Q21.4453-6.62109 21.4062-6.71875Q21.3672-6.81641 21.377-7.01172L21.4453-7.98828L19.9512-9.47266L18.4277-9.21875Q18.1836-9.16992 18.042-9.2041Q17.9004-9.23828 17.7148-9.41406L15.7129-11.416Q15.5176-11.5918 15.4932-11.7529Q15.4688-11.9141 15.5859-12.1875L16.4648-14.2773Q15.293-15.3711 13.8281-15.791Q12.3633-16.2109 10.8398-15.7617Q10.7227-15.7324 10.6885-15.8057Q10.6543-15.8789 10.752-15.957Z"/>
  </g>
  <text style="stroke:none;fill:black;font-family:sans-serif;font-size:13;font-weight:bold;" transform="matrix(1 0 0 1 1289 1953)">Exporting</text>
  <text style="stroke:none;fill:black;font-family:sans-serif;font-size:13;" transform="matrix(1 0 0 1 1289 1971)">Symbols should be outlined when exporting to ensure the</text>
  <text style="stroke:none;fill:black;font-family:sans-serif;font-size:13;" transform="matrix(1 0 0 1 1289 1989)">design is preserved when submitting to Xcode.</text>
  <text id="template-version" style="stroke:none;fill:black;font-family:sans-serif;font-size:13;text-anchor:end;" transform="matrix(1 0 0 1 3036 1933)">Template v.2.0</text>
  <text style="stroke:none;fill:black;font-family:sans-serif;font-size:13;text-anchor:end;" transform="matrix(1 0 0 1 3036 1951)">Requires Xcode 13 or greater</text>
  <text id="descriptive-name" style="stroke:none;fill:black;font-family:sans-serif;font-size:13;text-anchor:end;" transform="matrix(1 0 0 1 3036 1969)">Generated from j.square</text>
  <text style="stroke:none;fill:black;font-family:sans-serif;font-size:13;text-anchor:end;" transform="matrix(1 0 0 1 3036 1987)">Typeset at 100 points</text>
  <text style="stroke:none;fill:black;font-family:sans-serif;font-size:13;" transform="matrix(1 0 0 1 263 726)">Small</text>
  <text style="stroke:none;fill:black;font-family:sans-serif;font-size:13;" transform="matrix(1 0 0 1 263 1156)">Medium</text>
  <text style="stroke:none;fill:black;font-family:sans-serif;font-size:13;" transform="matrix(1 0 0 1 263 1586)">Large</text>
 </g>
 <g id="Guides">
  <g id="H-reference" style="fill:#27AAE1;stroke:none;" transform="matrix(1 0 0 1 339 696)">
   <path d="M0.976562 0L3.66211 0L29.3457-67.1387L30.0293-67.1387L30.0293-70.459L28.125-70.459ZM11.6699-24.4629L46.9727-24.4629L46.2402-26.709L12.4512-26.709ZM55.127 0L57.7637 0L30.6152-70.459L29.4434-70.459L29.4434-67.1387Z"/>
  </g>
  <line id="Baseline-S" style="fill:none;stroke:#27AAE1;opacity:1;stroke-width:0.5;" x1="263" x2="3036" y1="696" y2="696"/>
  <line id="Capline-S" style="fill:none;stroke:#27AAE1;opacity:1;stroke-width:0.5;" x1="263" x2="3036" y1="625.541" y2="625.541"/>
  <g id="H-reference" style="fill:#27AAE1;stroke:none;" transform="matrix(1 0 0 1 339 1126)">
   <path d="M0.976562 0L3.66211 0L29.3457-67.1387L30.0293-67.1387L30.0293-70.459L28.125-70.459ZM11.6699-24.4629L46.9727-24.4629L46.2402-26.709L12.4512-26.709ZM55.127 0L57.7637 0L30.6152-70.459L29.4434-70.459L29.4434-67.1387Z"/>
  </g>
  <line id="Baseline-M" style="fill:none;stroke:#27AAE1;opacity:1;stroke-width:0.5;" x1="263" x2="3036" y1="1126" y2="1126"/>
  <line id="Capline-M" style="fill:none;stroke:#27AAE1;opacity:1;stroke-width:0.5;" x1="263" x2="3036" y1="1055.54" y2="1055.54"/>
  <g id="H-reference" style="fill:#27AAE1;stroke:none;" transform="matrix(1 0 0 1 339 1556)">
   <path d="M0.976562 0L3.66211 0L29.3457-67.1387L30.0293-67.1387L30.0293-70.459L28.125-70.459ZM11.6699-24.4629L46.9727-24.4629L46.2402-26.709L12.4512-26.709ZM55.127 0L57.7637 0L30.6152-70.459L29.4434-70.459L29.4434-67.1387Z"/>
  </g>
  <line id="Baseline-L" style="fill:none;stroke:#27AAE1;opacity:1;stroke-width:0.5;" x1="263" x2="3036" y1="1556" y2="1556"/>
  <line id="Capline-L" style="fill:none;stroke:#27AAE1;opacity:1;stroke-width:0.5;" x1="263" x2="3036" y1="1485.54" y2="1485.54"/>
  <line id="left-margin" style="fill:none;stroke:#00AEEF;stroke-width:0.5;opacity:1.0;" x1="1392.45" x2="1392.45" y1="1030.79" y2="1150.12"/>
  <line id="right-margin" style="fill:none;stroke:#00AEEF;stroke-width:0.5;opacity:1.0;" x1="1507.24" x2="1507.24" y1="1030.79" y2="1150.12"/>
 </g>
 <g id="Symbols">
  <g id="Black-L" transform="matrix(1 0 0 1 2855.62 1556)">
   <path d="M39.9902 26.5137L115.576 26.5137Q127.002 26.5137 133.252 20.3125Q139.502 14.1113 139.502 2.68555L139.502-73.0957Q139.502-84.4727 133.252-90.6738Q127.002-96.875 115.576-96.875L39.9902-96.875Q28.5645-96.875 22.3145-90.6738Q16.0645-84.4727 16.0645-73.0957L16.0645 2.68555Q16.0645 14.1113 22.3145 20.3125Q28.5645 26.5137 39.9902 26.5137ZM42.6758 6.29883Q39.5508 6.29883 37.9395 4.78516Q36.3281 3.27148 36.3281-0.146484L36.3281-70.2148Q36.3281-73.6328 37.9395-75.1465Q39.5508-76.6602 42.6758-76.6602L112.842-76.6602Q116.016-76.6602 117.627-75.1465Q119.238-73.6328 119.238-70.2148L119.238-0.146484Q119.238 3.27148 117.627 4.78516Q116.016 6.29883 112.842 6.29883ZM75.293-6.20117Q86.3281-6.20117 92.5537-11.9629Q98.7793-17.7246 98.7793-28.3203L98.7793-53.4668Q98.7793-58.5449 96.1914-61.4258Q93.6035-64.3066 89.0137-64.3066Q84.375-64.3066 81.8359-61.4258Q79.2969-58.5449 79.2969-53.4668L79.2969-28.9062Q79.2969-25.4883 78.1982-23.9502Q77.0996-22.4121 74.8047-22.4121Q72.998-22.4121 71.8506-23.2666Q70.7031-24.1211 70.1172-25.7812Q68.2129-31.9824 61.1816-31.9824Q57.2754-31.9336 54.8584-29.541Q52.4414-27.1484 52.4414-23.291Q52.4414-22.2168 52.6123-21.167Q52.7832-20.1172 53.0762-19.1895Q54.8828-13.2324 60.8887-9.7168Q66.8945-6.20117 75.293-6.20117Z"/>
  </g>
  <g id="Heavy-L" transform="matrix(1 0 0 1 2559.93 1556)">
   <path d="M38.8184 25.4883L114.697 25.4883Q125.684 25.4883 131.567 19.6289Q137.451 13.7695 137.451 2.88086L137.451-73.2422Q137.451-84.1309 131.567-89.9902Q125.684-95.8496 114.697-95.8496L38.8184-95.8496Q27.8809-95.8496 21.9727-89.9902Q16.0645-84.1309 16.0645-73.2422L16.0645 2.88086Q16.0645 13.8184 21.9727 19.6533Q27.8809 25.4883 38.8184 25.4883ZM40.918 8.00781Q37.3047 8.00781 35.4492 6.22559Q33.5938 4.44336 33.5938 0.585938L33.5938-70.9473Q33.5938-74.8047 35.4492-76.5869Q37.3047-78.3691 40.918-78.3691L112.549-78.3691Q116.162-78.3691 118.042-76.5869Q119.922-74.8047 119.922-70.9473L119.922 0.585938Q119.922 4.44336 118.042 6.22559Q116.162 8.00781 112.549 8.00781ZM74.1699-6.15234Q84.668-6.15234 90.5273-11.6699Q96.3867-17.1875 96.3867-27.2949L96.3867-55.0293Q96.3867-59.4238 94.165-61.9385Q91.9434-64.4531 87.8906-64.4531Q83.8867-64.4531 81.6895-61.9385Q79.4922-59.4238 79.4922-55.0293L79.4922-27.7832Q79.4922-23.9746 78.0762-22.1436Q76.6602-20.3125 73.9258-20.3125Q71.6309-20.3125 70.1416-21.4111Q68.6523-22.5098 67.9688-24.5605Q66.2109-30.0293 60.2051-30.0293Q56.7871-29.9805 54.6875-27.8809Q52.5879-25.7812 52.5879-22.4121Q52.5879-21.4355 52.7344-20.4834Q52.8809-19.5312 53.1738-18.6523Q54.8828-12.9883 60.5713-9.57031Q66.2598-6.15234 74.1699-6.15234Z"/>
  </g>
  <g id="Bold-L" transform="matrix(1 0 0 1 2264.34 1556)">
   <path d="M37.5488 24.3652L113.721 24.3652Q124.17 24.3652 129.688 18.8965Q135.205 13.4277 135.205 3.07617L135.205-73.4375Q135.205-83.7891 129.688-89.2578Q124.17-94.7266 113.721-94.7266L37.5488-94.7266Q27.0996-94.7266 21.582-89.2578Q16.0645-83.7891 16.0645-73.4375L16.0645 3.07617Q16.0645 13.4766 21.582 18.9209Q27.0996 24.3652 37.5488 24.3652ZM38.9648 9.96094Q34.8633 9.96094 32.6904 7.86133Q30.5176 5.76172 30.5176 1.41602L30.5176-71.7773Q30.5176-76.0742 32.6904-78.1738Q34.8633-80.2734 38.9648-80.2734L112.256-80.2734Q116.357-80.2734 118.555-78.1738Q120.752-76.0742 120.752-71.7773L120.752 1.41602Q120.752 5.76172 118.555 7.86133Q116.357 9.96094 112.256 9.96094ZM72.998-6.15234Q82.9102-6.15234 88.3545-11.377Q93.7988-16.6016 93.7988-26.1719L93.7988-56.7871Q93.7988-60.4492 91.9434-62.5244Q90.0879-64.5996 86.7188-64.5996Q83.3984-64.5996 81.5674-62.5Q79.7363-60.4004 79.7363-56.7871L79.7363-26.5137Q79.7363-22.3145 77.9785-20.1416Q76.2207-17.9688 72.9492-17.9688Q70.1172-17.9688 68.2373-19.3604Q66.3574-20.752 65.5762-23.2422Q63.9648-27.832 59.1309-27.832Q56.2988-27.832 54.541-26.0742Q52.7832-24.3164 52.7832-21.4844Q52.7832-20.6055 52.9053-19.751Q53.0273-18.8965 53.2715-18.1152Q54.9316-12.6953 60.2539-9.42383Q65.5762-6.15234 72.998-6.15234Z"/>
  </g>
  <g id="Semibold-L" transform="matrix(1 0 0 1 1968.44 1556)">
   <path d="M36.6211 23.584L112.988 23.584Q123.145 23.584 128.369 18.3838Q133.594 13.1836 133.594 3.17383L133.594-73.5352Q133.594-83.4961 128.369-88.6963Q123.145-93.8965 112.988-93.8965L36.6211-93.8965Q26.5625-93.8965 21.3135-88.7207Q16.0645-83.5449 16.0645-73.5352L16.0645 3.17383Q16.0645 13.2324 21.3135 18.4082Q26.5625 23.584 36.6211 23.584ZM37.5977 11.2793Q33.1055 11.2793 30.7617 8.95996Q28.418 6.64062 28.418 2.00195L28.418-72.3145Q28.418-76.9531 30.7617-79.2725Q33.1055-81.5918 37.5977-81.5918L112.061-81.5918Q116.504-81.5918 118.896-79.2725Q121.289-76.9531 121.289-72.3145L121.289 2.00195Q121.289 6.64062 118.896 8.95996Q116.504 11.2793 112.061 11.2793ZM72.1191-6.10352Q81.6406-6.10352 86.792-11.1572Q91.9434-16.2109 91.9434-25.3906L91.9434-57.959Q91.9434-61.1328 90.3809-62.915Q88.8184-64.6973 85.8887-64.6973Q83.0078-64.6973 81.4453-62.8662Q79.8828-61.0352 79.8828-57.959L79.8828-25.6348Q79.8828-21.1426 77.8809-18.7256Q75.8789-16.3086 72.2656-16.3086Q69.0918-16.3086 66.9434-17.9199Q64.7949-19.5312 63.916-22.3145Q62.4512-26.3184 58.3496-26.3184Q55.9082-26.3184 54.3945-24.7803Q52.8809-23.2422 52.8809-20.8008Q52.8809-20.0195 53.0029-19.2383Q53.125-18.457 53.3691-17.6758Q54.9316-12.4512 60.0098-9.27734Q65.0879-6.10352 72.1191-6.10352Z"/>
  </g>
  <g id="Medium-L" transform="matrix(1 0 0 1 1672.31 1556)">
   <path d="M35.9375 22.998L112.5 22.998Q122.363 22.998 127.393 17.9932Q132.422 12.9883 132.422 3.27148L132.422-73.6328Q132.422-83.3008 127.393-88.3057Q122.363-93.3105 112.5-93.3105L35.9375-93.3105Q26.1719-93.3105 21.1182-88.3301Q16.0645-83.3496 16.0645-73.6328L16.0645 3.27148Q16.0645 13.0371 21.1182 18.0176Q26.1719 22.998 35.9375 22.998ZM36.5723 12.2559Q31.8359 12.2559 29.3213 9.79004Q26.8066 7.32422 26.8066 2.39258L26.8066-72.7539Q26.8066-77.6367 29.3213-80.1025Q31.8359-82.5684 36.5723-82.5684L111.865-82.5684Q116.553-82.5684 119.116-80.1025Q121.68-77.6367 121.68-72.7539L121.68 2.39258Q121.68 7.32422 119.116 9.79004Q116.553 12.2559 111.865 12.2559ZM71.4844-6.10352Q80.6641-6.10352 85.6201-10.9863Q90.5762-15.8691 90.5762-24.8047L90.5762-58.8867Q90.5762-61.6211 89.209-63.1836Q87.8418-64.7461 85.2539-64.7461Q82.7148-64.7461 81.3721-63.1592Q80.0293-61.5723 80.0293-58.8867L80.0293-25Q80.0293-20.2637 77.8076-17.6758Q75.5859-15.0879 71.7285-15.0879Q68.2617-15.0879 65.918-16.8457Q63.5742-18.6035 62.6465-21.6309Q61.2305-25.1953 57.7637-25.1953Q55.6152-25.1465 54.2725-23.8037Q52.9297-22.4609 52.9297-20.2637Q52.9297-19.5801 53.0518-18.8477Q53.1738-18.1152 53.3691-17.3828Q54.9316-12.3047 59.8389-9.2041Q64.7461-6.10352 71.4844-6.10352Z"/>
  </g>
  <g id="Regular-L" transform="matrix(1 0 0 1 1376.38 1556)">
   <path d="M35.0586 22.2168L111.816 22.2168Q121.338 22.2168 126.099 17.4805Q130.859 12.7441 130.859 3.41797L130.859-73.7305Q130.859-83.0566 126.099-87.793Q121.338-92.5293 111.816-92.5293L35.0586-92.5293Q25.6348-92.5293 20.8496-87.8174Q16.0645-83.1055 16.0645-73.7305L16.0645 3.41797Q16.0645 12.793 20.8496 17.5049Q25.6348 22.2168 35.0586 22.2168ZM35.2539 13.5742Q30.127 13.5742 27.417 10.8887Q24.707 8.20312 24.707 2.97852L24.707-73.291Q24.707-78.5156 27.417-81.2012Q30.127-83.8867 35.2539-83.8867L111.67-83.8867Q116.699-83.8867 119.458-81.2012Q122.217-78.5156 122.217-73.291L122.217 2.97852Q122.217 8.20312 119.458 10.8887Q116.699 13.5742 111.67 13.5742ZM70.6543-6.05469Q79.4434-6.05469 84.1064-10.7666Q88.7695-15.4785 88.7695-24.0234L88.7695-60.0586Q88.7695-62.3047 87.6709-63.5742Q86.5723-64.8438 84.4238-64.8438Q82.373-64.8438 81.2744-63.5254Q80.1758-62.207 80.1758-60.0586L80.1758-24.1211Q80.1758-19.1406 77.7344-16.3086Q75.293-13.4766 71.0938-13.4766Q67.2363-13.4766 64.624-15.4297Q62.0117-17.3828 61.0352-20.7031Q59.7168-23.6816 57.0312-23.6816Q55.2734-23.6816 54.1748-22.5586Q53.0762-21.4355 53.0762-19.6289Q53.0762-18.9941 53.1738-18.335Q53.2715-17.6758 53.4668-16.9922Q54.9316-12.1094 59.5947-9.08203Q64.2578-6.05469 70.6543-6.05469Z"/>
  </g>
  <g id="Light-L" transform="matrix(1 0 0 1 1080.5 1556)">
   <path d="M34.0332 21.4355L111.182 21.4355Q120.117 21.4355 124.658 16.8945Q129.199 12.3535 129.199 3.56445L129.199-73.8281Q129.199-82.6172 124.658-87.1582Q120.117-91.6992 111.182-91.6992L34.0332-91.6992Q25.1465-91.6992 20.6055-87.207Q16.0645-82.7148 16.0645-73.8281L16.0645 3.56445Q16.0645 12.4023 20.6055 16.9189Q25.1465 21.4355 34.0332 21.4355ZM34.2285 14.7949Q28.5645 14.7949 25.6104 11.8652Q22.6562 8.93555 22.6562 3.22266L22.6562-73.4863Q22.6562-79.1992 25.6104-82.1289Q28.5645-85.0586 34.2285-85.0586L111.035-85.0586Q116.553-85.0586 119.556-82.1289Q122.559-79.1992 122.559-73.4863L122.559 3.22266Q122.559 8.93555 119.556 11.8652Q116.553 14.7949 111.035 14.7949ZM70.1172-6.39648Q78.2227-6.39648 82.6172-10.9863Q87.0117-15.5762 87.0117-23.584L87.0117-60.6445Q87.0117-62.3535 86.1572-63.3301Q85.3027-64.3066 83.6426-64.3066Q82.1289-64.3066 81.25-63.3057Q80.3711-62.3047 80.3711-60.6445L80.3711-23.6328Q80.3711-18.3594 77.6855-15.3076Q75-12.2559 70.4102-12.2559Q66.1621-12.2559 63.208-14.5264Q60.2539-16.7969 59.4727-20.5078Q58.5938-22.9492 56.3965-22.9492Q54.9805-22.9492 54.1504-22.0703Q53.3203-21.1914 53.3203-19.7754Q53.3203-19.2383 53.3936-18.6768Q53.4668-18.1152 53.6133-17.5293Q54.834-12.6465 59.3506-9.52148Q63.8672-6.39648 70.1172-6.39648Z"/>
  </g>
  <g id="Thin-L" transform="matrix(1 0 0 1 784.889 1556)">
   <path d="M32.666 20.3613L110.352 20.3613Q118.506 20.3613 122.754 16.0889Q127.002 11.8164 127.002 3.75977L127.002-73.9746Q127.002-82.0312 122.754-86.3037Q118.506-90.5762 110.352-90.5762L32.666-90.5762Q24.5117-90.5762 20.2881-86.377Q16.0645-82.1777 16.0645-73.9746L16.0645 3.75977Q16.0645 11.9141 20.2881 16.1377Q24.5117 20.3613 32.666 20.3613ZM32.8125 16.4062Q26.5137 16.4062 23.2666 13.1592Q20.0195 9.91211 20.0195 3.56445L20.0195-73.7793Q20.0195-80.127 23.2666-83.374Q26.5137-86.6211 32.8125-86.6211L110.205-86.6211Q116.309-86.6211 119.678-83.374Q123.047-80.127 123.047-73.7793L123.047 3.56445Q123.047 9.91211 119.678 13.1592Q116.309 16.4062 110.205 16.4062ZM69.3848-6.88477Q76.5625-6.88477 80.6152-11.3037Q84.668-15.7227 84.668-23.0469L84.668-61.4258Q84.668-62.4023 84.1309-62.9639Q83.5938-63.5254 82.666-63.5254Q81.7383-63.5254 81.1768-62.9639Q80.6152-62.4023 80.6152-61.4258L80.6152-23.0469Q80.6152-17.334 77.6123-13.9648Q74.6094-10.5957 69.4824-10.5957Q64.6973-10.5957 61.3281-13.3301Q57.959-16.0645 57.4219-20.2637Q57.0801-21.9727 55.5176-21.9727Q54.5898-21.9727 54.0771-21.4355Q53.5645-20.8984 53.5645-19.9219Q53.5645-19.5801 53.6377-19.1406Q53.7109-18.7012 53.7598-18.1641Q54.6875-13.3789 59.0332-10.1318Q63.3789-6.88477 69.3848-6.88477Z"/>
  </g>
  <g id="Ultralight-L" transform="matrix(1 0 0 1 488.739 1556)">
   <path d="M31.9824 19.8242L109.961 19.8242Q117.725 19.8242 121.802 15.6738Q125.879 11.5234 125.879 3.85742L125.879-74.0723Q125.879-81.7383 121.802-85.8643Q117.725-89.9902 109.961-89.9902L31.9824-89.9902Q24.1699-89.9902 20.1172-85.9375Q16.0645-81.8848 16.0645-74.0723L16.0645 3.85742Q16.0645 11.6699 20.1172 15.7471Q24.1699 19.8242 31.9824 19.8242ZM32.1289 17.2363Q25.4395 17.2363 22.0215 13.8184Q18.6035 10.4004 18.6035 3.75977L18.6035-73.9258Q18.6035-80.6152 22.0215-84.0332Q25.4395-87.4512 32.1289-87.4512L109.814-87.4512Q116.211-87.4512 119.751-84.0332Q123.291-80.6152 123.291-73.9258L123.291 3.75977Q123.291 10.4004 119.751 13.8184Q116.211 17.2363 109.814 17.2363ZM68.9453-7.12891Q75.6836-7.12891 79.5654-11.4746Q83.4473-15.8203 83.4473-22.7539L83.4473-61.8164Q83.4473-62.4512 83.0811-62.8174Q82.7148-63.1836 82.0801-63.1836Q81.543-63.1836 81.1279-62.8174Q80.7129-62.4512 80.7129-61.8164L80.7129-22.7051Q80.7129-16.7969 77.5391-13.2812Q74.3652-9.76562 68.9941-9.76562Q63.916-9.76562 60.3271-12.7197Q56.7383-15.6738 56.3477-20.166Q56.25-21.4844 55.0293-21.4844Q54.3457-21.4844 54.0283-21.1182Q53.7109-20.752 53.7109-20.0195Q53.7109-19.7754 53.7598-19.3848Q53.8086-18.9941 53.8086-18.5547Q54.5898-13.7207 58.8379-10.4248Q63.0859-7.12891 68.9453-7.12891Z"/>
  </g>
  <g id="Black-M" transform="matrix(1 0 0 1 2872.54 1126)">
   <path d="M31.5918 13.2324L90.1367 13.2324Q99.1699 13.2324 104.224 8.17871Q109.277 3.125 109.277-5.9082L109.277-64.4531Q109.277-73.5352 104.224-78.5645Q99.1699-83.5938 90.1367-83.5938L31.5918-83.5938Q22.5586-83.5938 17.5049-78.5645Q12.4512-73.5352 12.4512-64.4531L12.4512-5.9082Q12.4512 3.125 17.5049 8.17871Q22.5586 13.2324 31.5918 13.2324ZM34.2285-4.10156Q31.9824-4.10156 30.8838-5.12695Q29.7852-6.15234 29.7852-8.59375L29.7852-61.8164Q29.7852-64.2578 30.8838-65.2588Q31.9824-66.2598 34.2285-66.2598L87.5-66.2598Q89.7461-66.2598 90.8447-65.2588Q91.9434-64.2578 91.9434-61.8164L91.9434-8.59375Q91.9434-6.15234 90.8447-5.12695Q89.7461-4.10156 87.5-4.10156ZM59.1309-12.8906Q67.8711-12.8906 72.9248-17.5293Q77.9785-22.168 77.9785-30.5664L77.9785-48.2422Q77.9785-52.5391 75.7812-55.0049Q73.584-57.4707 69.6777-57.4707Q65.6738-57.4707 63.501-55.0293Q61.3281-52.5879 61.3281-48.2422L61.3281-31.1523Q61.3281-28.7109 60.6689-27.6855Q60.0098-26.6602 58.4961-26.6602Q57.373-26.6602 56.6895-27.2217Q56.0059-27.7832 55.6641-28.8574Q54.248-34.1309 48.0469-34.1309Q44.7266-34.082 42.6758-32.0557Q40.625-30.0293 40.625-26.7578Q40.625-25.8789 40.7471-25.0244Q40.8691-24.1699 41.1133-23.3887Q42.5293-18.5547 47.3877-15.7227Q52.2461-12.8906 59.1309-12.8906Z"/>
  </g>
  <g id="Heavy-M" transform="matrix(1 0 0 1 2576.65 1126)">
   <path d="M30.7129 12.4023L89.4043 12.4023Q98.0957 12.4023 102.856 7.66602Q107.617 2.92969 107.617-5.76172L107.617-64.5996Q107.617-73.291 102.856-78.0273Q98.0957-82.7637 89.4043-82.7637L30.7129-82.7637Q21.9727-82.7637 17.2119-78.0273Q12.4512-73.291 12.4512-64.5996L12.4512-5.76172Q12.4512 2.92969 17.2119 7.66602Q21.9727 12.4023 30.7129 12.4023ZM32.7148-2.68555Q30.127-2.68555 28.833-3.93066Q27.5391-5.17578 27.5391-7.91016L27.5391-62.4512Q27.5391-65.2344 28.833-66.4551Q30.127-67.6758 32.7148-67.6758L87.3535-67.6758Q89.9414-67.6758 91.2354-66.4551Q92.5293-65.2344 92.5293-62.4512L92.5293-7.91016Q92.5293-5.17578 91.2354-3.93066Q89.9414-2.68555 87.3535-2.68555ZM58.1543-12.793Q66.5039-12.793 71.2646-17.2119Q76.0254-21.6309 76.0254-29.6875L76.0254-49.6582Q76.0254-53.3691 74.1211-55.542Q72.2168-57.7148 68.75-57.7148Q65.2832-57.7148 63.3789-55.5664Q61.4746-53.418 61.4746-49.6582L61.4746-30.127Q61.4746-27.4414 60.5469-26.1475Q59.6191-24.8535 57.7637-24.8535Q56.25-24.8535 55.2979-25.6104Q54.3457-26.3672 53.8574-27.7344Q52.4902-32.373 47.2168-32.373Q44.2871-32.3242 42.4805-30.542Q40.6738-28.7598 40.6738-25.8789Q40.6738-25.0488 40.7959-24.292Q40.918-23.5352 41.1621-22.7539Q42.5293-18.1641 47.1191-15.4785Q51.709-12.793 58.1543-12.793Z"/>
  </g>
  <g id="Bold-M" transform="matrix(1 0 0 1 2280.85 1126)">
   <path d="M29.6875 11.5234L88.5742 11.5234Q96.9238 11.5234 101.367 7.10449Q105.811 2.68555 105.811-5.66406L105.811-64.7461Q105.811-73.0469 101.367-77.4658Q96.9238-81.8848 88.5742-81.8848L29.6875-81.8848Q21.3379-81.8848 16.8945-77.4658Q12.4512-73.0469 12.4512-64.7461L12.4512-5.66406Q12.4512 2.68555 16.8945 7.10449Q21.3379 11.5234 29.6875 11.5234ZM31.0547-1.12305Q28.125-1.12305 26.5869-2.58789Q25.0488-4.05273 25.0488-7.17773L25.0488-63.2324Q25.0488-66.3574 26.5869-67.8223Q28.125-69.2871 31.0547-69.2871L87.207-69.2871Q90.1367-69.2871 91.6748-67.8223Q93.2129-66.3574 93.2129-63.2324L93.2129-7.17773Q93.2129-4.05273 91.6748-2.58789Q90.1367-1.12305 87.207-1.12305ZM57.1289-12.6465Q65.0879-12.6465 69.5068-16.8213Q73.9258-20.9961 73.9258-28.7109L73.9258-51.2207Q73.9258-54.3457 72.3145-56.1768Q70.7031-58.0078 67.7734-58.0078Q64.8438-58.0078 63.2568-56.1768Q61.6699-54.3457 61.6699-51.2207L61.6699-29.0527Q61.6699-25.9766 60.4736-24.4385Q59.2773-22.9004 56.9824-22.9004Q55.0781-22.9004 53.8086-23.8281Q52.5391-24.7559 51.9531-26.4648Q50.6348-30.4199 46.3379-30.4199Q43.8477-30.4199 42.334-28.9062Q40.8203-27.3926 40.8203-24.9512Q40.8203-24.1699 40.918-23.4863Q41.0156-22.8027 41.2598-22.1191Q42.5781-17.7734 46.875-15.21Q51.1719-12.6465 57.1289-12.6465Z"/>
  </g>
  <g id="Semibold-M" transform="matrix(1 0 0 1 1984.77 1126)">
   <path d="M29.0039 10.8887L87.9883 10.8887Q96.0938 10.8887 100.317 6.68945Q104.541 2.49023 104.541-5.51758L104.541-64.8438Q104.541-72.8516 100.317-77.0508Q96.0938-81.25 87.9883-81.25L29.0039-81.25Q20.8984-81.25 16.6748-77.0508Q12.4512-72.8516 12.4512-64.8438L12.4512-5.51758Q12.4512 2.49023 16.6748 6.68945Q20.8984 10.8887 29.0039 10.8887ZM29.8828 0Q26.709 0 25.0244-1.63574Q23.3398-3.27148 23.3398-6.64062L23.3398-63.7207Q23.3398-67.0898 25.0244-68.7256Q26.709-70.3613 29.8828-70.3613L87.1094-70.3613Q90.2832-70.3613 91.9678-68.7256Q93.6523-67.0898 93.6523-63.7207L93.6523-6.64062Q93.6523-3.27148 91.9678-1.63574Q90.2832 0 87.1094 0ZM56.3477-12.5488Q64.0137-12.5488 68.2129-16.5527Q72.4121-20.5566 72.4121-27.9785L72.4121-52.2949Q72.4121-54.9805 71.0205-56.5918Q69.6289-58.2031 67.0898-58.2031Q64.5508-58.2031 63.1592-56.5918Q61.7676-54.9805 61.7676-52.2949L61.7676-28.2715Q61.7676-25 60.376-23.2422Q58.9844-21.4844 56.4453-21.4844Q54.1992-21.4844 52.7344-22.5586Q51.2695-23.6328 50.5859-25.5859Q49.2676-29.0527 45.6543-29.0527Q43.5059-29.0527 42.1875-27.7344Q40.8691-26.416 40.8691-24.2676Q40.8691-23.5352 40.9668-22.9004Q41.0645-22.2656 41.2598-21.6309Q42.5781-17.4805 46.6553-15.0146Q50.7324-12.5488 56.3477-12.5488Z"/>
  </g>
  <g id="Medium-M" transform="matrix(1 0 0 1 1688.52 1126)">
   <path d="M28.4668 10.4004L87.5977 10.4004Q95.5078 10.4004 99.5605 6.37207Q103.613 2.34375 103.613-5.46875L103.613-64.8926Q103.613-72.7539 99.5605-76.7578Q95.5078-80.7617 87.5977-80.7617L28.4668-80.7617Q20.5566-80.7617 16.5039-76.7578Q12.4512-72.7539 12.4512-64.8926L12.4512-5.46875Q12.4512 2.34375 16.5039 6.37207Q20.5566 10.4004 28.4668 10.4004ZM29.0039 0.830078Q25.6348 0.830078 23.8281-0.927734Q22.0215-2.68555 22.0215-6.25L22.0215-64.1113Q22.0215-67.6758 23.8281-69.4336Q25.6348-71.1914 29.0039-71.1914L87.0117-71.1914Q90.3809-71.1914 92.2119-69.4336Q94.043-67.6758 94.043-64.1113L94.043-6.25Q94.043-2.68555 92.2119-0.927734Q90.3809 0.830078 87.0117 0.830078ZM55.8105-12.5Q63.2812-12.5 67.2852-16.3818Q71.2891-20.2637 71.2891-27.4902L71.2891-53.0762Q71.2891-55.5176 70.0684-56.9336Q68.8477-58.3496 66.5527-58.3496Q64.3066-58.3496 63.1104-56.9092Q61.9141-55.4688 61.9141-53.0762L61.9141-27.6855Q61.9141-24.2188 60.3516-22.3389Q58.7891-20.459 56.0059-20.459Q53.5645-20.459 51.9531-21.6309Q50.3418-22.8027 49.5605-24.9512Q48.291-28.0273 45.2148-28.0273Q43.3105-28.0273 42.1387-26.8555Q40.9668-25.6836 40.9668-23.7305Q40.9668-23.0957 41.04-22.4854Q41.1133-21.875 41.3086-21.2891Q42.627-17.2852 46.5332-14.8926Q50.4395-12.5 55.8105-12.5Z"/>
  </g>
  <g id="Regular-M" transform="matrix(1 0 0 1 1392.45 1126)">
   <path d="M27.7832 9.76562L87.0117 9.76562Q94.6777 9.76562 98.5107 5.98145Q102.344 2.19727 102.344-5.37109L102.344-64.9902Q102.344-72.5586 98.5107-76.3428Q94.6777-80.127 87.0117-80.127L27.7832-80.127Q20.1172-80.127 16.2842-76.3428Q12.4512-72.5586 12.4512-64.9902L12.4512-5.37109Q12.4512 2.19727 16.2842 5.98145Q20.1172 9.76562 27.7832 9.76562ZM27.8809 1.9043Q24.2188 1.9043 22.2656-0.0244141Q20.3125-1.95312 20.3125-5.76172L20.3125-64.5996Q20.3125-68.4082 22.2656-70.3369Q24.2188-72.2656 27.8809-72.2656L86.9141-72.2656Q90.5273-72.2656 92.5049-70.3369Q94.4824-68.4082 94.4824-64.5996L94.4824-5.76172Q94.4824-1.95312 92.5049-0.0244141Q90.5273 1.9043 86.9141 1.9043ZM55.0781-12.4023Q62.2559-12.4023 66.04-16.1133Q69.8242-19.8242 69.8242-26.8066L69.8242-54.1504Q69.8242-56.1523 68.8232-57.3486Q67.8223-58.5449 65.8691-58.5449Q64.0137-58.5449 63.0127-57.3242Q62.0117-56.1035 62.0117-54.1504L62.0117-26.9043Q62.0117-23.2422 60.2539-21.167Q58.4961-19.0918 55.4688-19.0918Q52.7344-19.0918 50.9033-20.4102Q49.0723-21.7285 48.1934-24.0723Q46.9727-26.709 44.5801-26.709Q42.9688-26.709 41.9922-25.708Q41.0156-24.707 41.0156-23.0957Q41.0156-22.4609 41.0889-21.9238Q41.1621-21.3867 41.3574-20.8008Q42.627-16.9922 46.3379-14.6973Q50.0488-12.4023 55.0781-12.4023Z"/>
  </g>
  <g id="Light-M" transform="matrix(1 0 0 1 1096.47 1126)">
   <path d="M26.8555 9.0332L86.4746 9.0332Q93.6035 9.0332 97.2412 5.44434Q100.879 1.85547 100.879-5.22461L100.879-65.0879Q100.879-72.168 97.2412-75.7812Q93.6035-79.3945 86.4746-79.3945L26.8555-79.3945Q19.6777-79.3945 16.0645-75.8057Q12.4512-72.2168 12.4512-65.0879L12.4512-5.22461Q12.4512 1.85547 16.0645 5.44434Q19.6777 9.0332 26.8555 9.0332ZM26.9531 2.97852Q22.8027 2.97852 20.6543 0.830078Q18.5059-1.31836 18.5059-5.51758L18.5059-64.7949Q18.5059-69.043 20.6543-71.1914Q22.8027-73.3398 26.9531-73.3398L86.377-73.3398Q90.3809-73.3398 92.6025-71.1914Q94.8242-69.043 94.8242-64.7949L94.8242-5.51758Q94.8242-1.31836 92.6025 0.830078Q90.3809 2.97852 86.377 2.97852ZM54.541-12.7441Q61.1328-12.7441 64.6729-16.333Q68.2129-19.9219 68.2129-26.416L68.2129-54.6875Q68.2129-56.2012 67.4316-57.1045Q66.6504-58.0078 65.1367-58.0078Q63.7207-58.0078 62.9395-57.1045Q62.1582-56.2012 62.1582-54.6875L62.1582-26.4648Q62.1582-22.5098 60.1807-20.2393Q58.2031-17.9688 54.834-17.9688Q51.709-17.9688 49.585-19.5801Q47.4609-21.1914 46.7773-23.9258Q45.8984-26.0742 43.9941-26.0742Q42.6758-26.0742 41.9434-25.293Q41.2109-24.5117 41.2109-23.1934Q41.2109-22.7051 41.2598-22.2412Q41.3086-21.7773 41.4551-21.2891Q42.5293-17.4805 46.0938-15.1123Q49.6582-12.7441 54.541-12.7441Z"/>
  </g>
  <g id="Thin-M" transform="matrix(1 0 0 1 800.758 1126)">
   <path d="M25.5859 8.05664L85.6934 8.05664Q92.2363 8.05664 95.5566 4.71191Q98.877 1.36719 98.877-5.07812L98.877-65.2344Q98.877-71.6309 95.5566-75Q92.2363-78.3691 85.6934-78.3691L25.5859-78.3691Q19.1406-78.3691 15.7959-75.0488Q12.4512-71.7285 12.4512-65.2344L12.4512-5.07812Q12.4512 1.41602 15.7959 4.73633Q19.1406 8.05664 25.5859 8.05664ZM25.7324 4.44336Q20.9961 4.44336 18.5547 2.00195Q16.1133-0.439453 16.1133-5.22461L16.1133-65.0391Q16.1133-69.873 18.5547-72.29Q20.9961-74.707 25.7324-74.707L85.5957-74.707Q90.2344-74.707 92.749-72.29Q95.2637-69.873 95.2637-65.0391L95.2637-5.22461Q95.2637-0.439453 92.749 2.00195Q90.2344 4.44336 85.5957 4.44336ZM53.9062-13.1836Q59.7168-13.1836 62.915-16.626Q66.1133-20.0684 66.1133-25.8789L66.1133-55.3711Q66.1133-56.2988 65.625-56.8359Q65.1367-57.373 64.2578-57.373Q63.4277-57.373 62.915-56.8359Q62.4023-56.2988 62.4023-55.3711L62.4023-25.9277Q62.4023-21.582 60.1562-19.043Q57.9102-16.5039 54.0527-16.5039Q50.4395-16.5039 47.9248-18.5303Q45.4102-20.5566 44.9707-23.6816Q44.5312-25.1953 43.2129-25.1953Q42.3828-25.1953 41.9189-24.707Q41.4551-24.2188 41.4551-23.3398Q41.4551-23.0469 41.5039-22.6807Q41.5527-22.3145 41.6504-21.875Q42.4316-18.1152 45.8252-15.6494Q49.2188-13.1836 53.9062-13.1836Z"/>
  </g>
  <g id="Ultralight-M" transform="matrix(1 0 0 1 504.535 1126)">
   <path d="M24.9512 7.56836L85.3516 7.56836Q91.5039 7.56836 94.7021 4.3457Q97.9004 1.12305 97.9004-4.98047L97.9004-65.332Q97.9004-71.3867 94.7021-74.6338Q91.5039-77.8809 85.3516-77.8809L24.9512-77.8809Q18.8477-77.8809 15.6494-74.6826Q12.4512-71.4844 12.4512-65.332L12.4512-4.98047Q12.4512 1.2207 15.6494 4.39453Q18.8477 7.56836 24.9512 7.56836ZM25.0977 5.17578Q20.0195 5.17578 17.4316 2.58789Q14.8438 0 14.8438-5.07812L14.8438-65.1855Q14.8438-70.2637 17.4316-72.8516Q20.0195-75.4395 25.0977-75.4395L85.2539-75.4395Q90.1367-75.4395 92.7979-72.8516Q95.459-70.2637 95.459-65.1855L95.459-5.07812Q95.459 0 92.7979 2.58789Q90.1367 5.17578 85.2539 5.17578ZM53.5645-13.3789Q58.9355-13.3789 61.9873-16.7725Q65.0391-20.166 65.0391-25.6348L65.0391-55.7617Q65.0391-56.3477 64.6973-56.665Q64.3555-56.9824 63.7695-56.9824Q63.2324-56.9824 62.8662-56.665Q62.5-56.3477 62.5-55.7617L62.5-25.6348Q62.5-21.0938 60.1074-18.4326Q57.7148-15.7715 53.6621-15.7715Q49.7559-15.7715 47.0459-17.9688Q44.3359-20.166 43.9941-23.584Q43.8477-24.7559 42.8223-24.7559Q42.1875-24.7559 41.8945-24.4141Q41.6016-24.0723 41.6016-23.4375Q41.6016-23.1934 41.626-22.876Q41.6504-22.5586 41.6992-22.2168Q42.334-18.457 45.6299-15.918Q48.9258-13.3789 53.5645-13.3789Z"/>
  </g>
  <g id="Black-S" transform="matrix(1 0 0 1 2885.5 696)">
   <path d="M25 2.92969L70.8008 2.92969Q77.9785 2.92969 82.0068-1.09863Q86.0352-5.12695 86.0352-12.3047L86.0352-58.1055Q86.0352-65.2832 82.0068-69.3115Q77.9785-73.3398 70.8008-73.3398L25-73.3398Q17.8223-73.3398 13.7939-69.3115Q9.76562-65.2832 9.76562-58.1055L9.76562-12.3047Q9.76562-5.12695 13.7939-1.09863Q17.8223 2.92969 25 2.92969ZM27.2461-11.2305Q25.5859-11.2305 24.7559-11.9873Q23.9258-12.7441 23.9258-14.5508L23.9258-55.8594Q23.9258-57.7148 24.7559-58.4473Q25.5859-59.1797 27.2461-59.1797L68.5547-59.1797Q70.2637-59.1797 71.0693-58.4473Q71.875-57.7148 71.875-55.8594L71.875-14.5508Q71.875-12.7441 71.0693-11.9873Q70.2637-11.2305 68.5547-11.2305ZM46.582-17.7734Q53.5156-17.7734 57.5439-21.4844Q61.5723-25.1953 61.5723-31.8359L61.5723-45.0195Q61.5723-48.5352 59.7656-50.5371Q57.959-52.5391 54.7852-52.5391Q51.5625-52.5391 49.7803-50.5615Q47.998-48.584 47.998-45.0195L47.998-32.3242Q47.998-30.4688 47.5586-29.7363Q47.1191-29.0039 45.9961-29.0039Q45.2148-29.0039 44.751-29.3945Q44.2871-29.7852 44.043-30.5664Q42.9199-34.8633 37.8418-34.8633Q35.1562-34.8145 33.4717-33.1787Q31.7871-31.543 31.7871-28.8574Q31.7871-28.1738 31.8848-27.4902Q31.9824-26.8066 32.1777-26.1719Q33.3008-22.3145 37.1826-20.0439Q41.0645-17.7734 46.582-17.7734Z"/>
  </g>
  <g id="Heavy-S" transform="matrix(1 0 0 1 2589.4 696)">
   <path d="M24.3652 2.34375L70.2637 2.34375Q77.1973 2.34375 81.0059-1.46484Q84.8145-5.27344 84.8145-12.207L84.8145-58.2031Q84.8145-65.1367 81.0059-68.9453Q77.1973-72.7539 70.2637-72.7539L24.3652-72.7539Q17.3828-72.7539 13.5742-68.9453Q9.76562-65.1367 9.76562-58.2031L9.76562-12.207Q9.76562-5.27344 13.5742-1.46484Q17.3828 2.34375 24.3652 2.34375ZM26.0742-10.1562Q24.1699-10.1562 23.2178-11.0596Q22.2656-11.9629 22.2656-14.0137L22.2656-56.3965Q22.2656-58.4473 23.2178-59.3506Q24.1699-60.2539 26.0742-60.2539L68.5059-60.2539Q70.459-60.2539 71.4111-59.3506Q72.3633-58.4473 72.3633-56.3965L72.3633-14.0137Q72.3633-11.9629 71.4111-11.0596Q70.459-10.1562 68.5059-10.1562ZM45.8496-17.627Q52.5391-17.627 56.3477-21.167Q60.1562-24.707 60.1562-31.1035L60.1562-46.1426Q60.1562-49.2676 58.5693-51.0498Q56.9824-52.832 54.1016-52.832Q51.2695-52.832 49.707-51.0498Q48.1445-49.2676 48.1445-46.1426L48.1445-31.4941Q48.1445-29.4434 47.5098-28.5156Q46.875-27.5879 45.459-27.5879Q44.4336-27.5879 43.7744-28.1006Q43.1152-28.6133 42.7246-29.6387Q41.6016-33.4473 37.2559-33.4473Q34.8633-33.3984 33.3496-31.9336Q31.8359-30.4688 31.8359-28.0762Q31.8359-27.4414 31.9336-26.8066Q32.0312-26.1719 32.2266-25.5859Q33.3496-21.9238 37.0117-19.7754Q40.6738-17.627 45.8496-17.627Z"/>
  </g>
  <g id="Bold-S" transform="matrix(1 0 0 1 2293.35 696)">
   <path d="M23.6328 1.66016L69.6289 1.66016Q76.3672 1.66016 79.9316-1.9043Q83.4961-5.46875 83.4961-12.1094L83.4961-58.3008Q83.4961-64.9902 79.9316-68.5303Q76.3672-72.0703 69.6289-72.0703L23.6328-72.0703Q16.9434-72.0703 13.3545-68.5303Q9.76562-64.9902 9.76562-58.3008L9.76562-12.1094Q9.76562-5.46875 13.3545-1.9043Q16.9434 1.66016 23.6328 1.66016ZM24.8047-8.98438Q22.6562-8.98438 21.5088-10.0586Q20.3613-11.1328 20.3613-13.4277L20.3613-57.0312Q20.3613-59.3262 21.5088-60.4004Q22.6562-61.4746 24.8047-61.4746L68.457-61.4746Q70.6543-61.4746 71.7773-60.4004Q72.9004-59.3262 72.9004-57.0312L72.9004-13.4277Q72.9004-11.1328 71.7773-10.0586Q70.6543-8.98438 68.457-8.98438ZM45.0195-17.4805Q51.4648-17.4805 55.0049-20.8252Q58.5449-24.1699 58.5449-30.3223L58.5449-47.4121Q58.5449-50.0977 57.2021-51.6113Q55.8594-53.125 53.3691-53.125Q50.9277-53.125 49.6094-51.6113Q48.291-50.0977 48.291-47.4121L48.291-30.6152Q48.291-28.3203 47.4365-27.1973Q46.582-26.0742 44.9219-26.0742Q43.5059-26.0742 42.627-26.709Q41.748-27.3438 41.2598-28.5645Q40.1367-31.8848 36.5723-31.8848Q34.5215-31.8359 33.2275-30.5664Q31.9336-29.2969 31.9336-27.2461Q31.9336-26.6602 32.0068-26.0742Q32.0801-25.4883 32.2754-24.9512Q33.3984-21.5332 36.8164-19.5068Q40.2344-17.4805 45.0195-17.4805Z"/>
  </g>
  <g id="Semibold-S" transform="matrix(1 0 0 1 1997.12 696)">
   <path d="M23.0957 1.2207L69.1895 1.2207Q75.7324 1.2207 79.126-2.17285Q82.5195-5.56641 82.5195-12.0605L82.5195-58.3496Q82.5195-64.8438 79.126-68.2373Q75.7324-71.6309 69.1895-71.6309L23.0957-71.6309Q16.6016-71.6309 13.1836-68.2373Q9.76562-64.8438 9.76562-58.3496L9.76562-12.0605Q9.76562-5.56641 13.1836-2.17285Q16.6016 1.2207 23.0957 1.2207ZM23.877-8.1543Q21.5332-8.1543 20.2881-9.32617Q19.043-10.498 19.043-12.9883L19.043-57.4219Q19.043-59.8633 20.2881-61.0596Q21.5332-62.2559 23.877-62.2559L68.4082-62.2559Q70.752-62.2559 71.9971-61.0596Q73.2422-59.8633 73.2422-57.4219L73.2422-12.9883Q73.2422-10.498 71.9971-9.32617Q70.752-8.1543 68.4082-8.1543ZM44.4336-17.3828Q50.6836-17.3828 54.0527-20.5811Q57.4219-23.7793 57.4219-29.7852L57.4219-48.291Q57.4219-50.6348 56.25-51.9775Q55.0781-53.3203 52.8809-53.3203Q50.7324-53.3203 49.5605-51.9775Q48.3887-50.6348 48.3887-48.291L48.3887-29.9805Q48.3887-27.5391 47.3877-26.2451Q46.3867-24.9512 44.5312-24.9512Q42.9199-24.9512 41.8701-25.708Q40.8203-26.4648 40.2344-27.832Q39.1113-30.7617 36.084-30.7617Q34.2773-30.7617 33.1299-29.6143Q31.9824-28.4668 31.9824-26.6602Q31.9824-26.123 32.0557-25.5615Q32.1289-25 32.3242-24.4629Q33.3984-21.1914 36.6699-19.2871Q39.9414-17.3828 44.4336-17.3828Z"/>
  </g>
  <g id="Medium-S" transform="matrix(1 0 0 1 1700.75 696)">
   <path d="M22.7051 0.830078L68.8965 0.830078Q75.293 0.830078 78.5645-2.41699Q81.8359-5.66406 81.8359-11.9629L81.8359-58.4473Q81.8359-64.7461 78.5645-67.9932Q75.293-71.2402 68.8965-71.2402L22.7051-71.2402Q16.3574-71.2402 13.0615-67.9932Q9.76562-64.7461 9.76562-58.4473L9.76562-11.9629Q9.76562-5.66406 13.0615-2.41699Q16.3574 0.830078 22.7051 0.830078ZM23.1934-7.51953Q20.752-7.51953 19.4092-8.78906Q18.0664-10.0586 18.0664-12.6465L18.0664-57.7637Q18.0664-60.3027 19.4092-61.5967Q20.752-62.8906 23.1934-62.8906L68.4082-62.8906Q70.8496-62.8906 72.1924-61.5967Q73.5352-60.3027 73.5352-57.7637L73.5352-12.6465Q73.5352-10.0586 72.1924-8.78906Q70.8496-7.51953 68.4082-7.51953ZM43.9453-17.2852Q50.0977-17.2852 53.3203-20.4102Q56.543-23.5352 56.543-29.3457L56.543-48.9258Q56.543-51.0742 55.4932-52.2949Q54.4434-53.5156 52.4414-53.5156Q50.4883-53.5156 49.4629-52.2705Q48.4375-51.0254 48.4375-48.9258L48.4375-29.541Q48.4375-26.9531 47.3145-25.5615Q46.1914-24.1699 44.1895-24.1699Q42.3828-24.1699 41.2354-24.9756Q40.0879-25.7812 39.4043-27.2949Q38.2812-29.9316 35.6934-29.9316Q34.082-29.9316 33.0322-28.9062Q31.9824-27.8809 31.9824-26.2207Q31.9824-25.6836 32.0557-25.1709Q32.1289-24.6582 32.3242-24.1211Q33.3984-20.9961 36.5479-19.1406Q39.6973-17.2852 43.9453-17.2852Z"/>
  </g>
  <g id="Regular-S" transform="matrix(1 0 0 1 1404.51 696)">
   <path d="M22.2168 0.390625L68.457 0.390625Q74.707 0.390625 77.8076-2.68555Q80.9082-5.76172 80.9082-11.9141L80.9082-58.4961Q80.9082-64.6484 77.8076-67.7246Q74.707-70.8008 68.457-70.8008L22.2168-70.8008Q16.0156-70.8008 12.8906-67.7246Q9.76562-64.6484 9.76562-58.4961L9.76562-11.9141Q9.76562-5.76172 12.8906-2.68555Q16.0156 0.390625 22.2168 0.390625ZM22.3145-6.68945Q19.6777-6.68945 18.2373-8.08105Q16.7969-9.47266 16.7969-12.2559L16.7969-58.1543Q16.7969-60.8887 18.2373-62.3047Q19.6777-63.7207 22.3145-63.7207L68.3594-63.7207Q70.9961-63.7207 72.4365-62.3047Q73.877-60.8887 73.877-58.1543L73.877-12.2559Q73.877-9.47266 72.4365-8.08105Q70.9961-6.68945 68.3594-6.68945ZM43.4082-17.1875Q49.3652-17.1875 52.417-20.166Q55.4688-23.1445 55.4688-28.8086L55.4688-49.8047Q55.4688-51.6113 54.5898-52.6611Q53.7109-53.7109 51.9531-53.7109Q50.293-53.7109 49.4141-52.6367Q48.5352-51.5625 48.5352-49.8047L48.5352-28.9062Q48.5352-26.1719 47.2656-24.6338Q45.9961-23.0957 43.7988-23.0957Q41.7969-23.0957 40.5029-23.999Q39.209-24.9023 38.4277-26.5625Q37.3047-28.8574 35.2539-28.8574Q33.8379-28.8574 32.9346-27.9541Q32.0312-27.0508 32.0312-25.6348Q32.0312-25.1465 32.1045-24.6582Q32.1777-24.1699 32.373-23.6816Q33.4473-20.7031 36.4258-18.9453Q39.4043-17.1875 43.4082-17.1875Z"/>
  </g>
  <g id="Light-S" transform="matrix(1 0 0 1 1108.46 696)">
   <path d="M21.3867-0.244141L67.9688-0.244141Q73.7793-0.244141 76.6846-3.17383Q79.5898-6.10352 79.5898-11.8164L79.5898-58.5938Q79.5898-64.3066 76.6846-67.2119Q73.7793-70.1172 67.9688-70.1172L21.3867-70.1172Q15.625-70.1172 12.6953-67.2119Q9.76562-64.3066 9.76562-58.5938L9.76562-11.8164Q9.76562-6.05469 12.6953-3.14941Q15.625-0.244141 21.3867-0.244141ZM21.4844-5.71289Q18.457-5.71289 16.8213-7.2998Q15.1855-8.88672 15.1855-12.0605L15.1855-58.3008Q15.1855-61.4258 16.8213-63.0371Q18.457-64.6484 21.4844-64.6484L67.8711-64.6484Q70.8984-64.6484 72.5342-63.0371Q74.1699-61.4258 74.1699-58.3008L74.1699-12.0605Q74.1699-8.88672 72.5342-7.2998Q70.8984-5.71289 67.8711-5.71289ZM42.9688-17.4805Q48.3887-17.4805 51.2207-20.3613Q54.0527-23.2422 54.0527-28.4668L54.0527-50.293Q54.0527-51.6602 53.3691-52.4658Q52.6855-53.2715 51.3672-53.2715Q50.0488-53.2715 49.3652-52.4414Q48.6816-51.6113 48.6816-50.293L48.6816-28.5156Q48.6816-25.5371 47.2168-23.8281Q45.752-22.1191 43.2617-22.1191Q40.918-22.1191 39.3799-23.291Q37.8418-24.4629 37.207-26.416Q36.377-28.2715 34.7168-28.2715Q33.5938-28.2715 32.9102-27.5635Q32.2266-26.8555 32.2266-25.7324Q32.2266-25.3418 32.2754-24.9268Q32.3242-24.5117 32.4707-24.1211Q33.3496-21.1426 36.2061-19.3115Q39.0625-17.4805 42.9688-17.4805Z"/>
  </g>
  <g id="Thin-S" transform="matrix(1 0 0 1 812.623 696)">
   <path d="M20.3125-1.12305L67.2852-1.12305Q72.5098-1.12305 75.1709-3.80859Q77.832-6.49414 77.832-11.6211L77.832-58.6914Q77.832-63.8184 75.1709-66.5283Q72.5098-69.2383 67.2852-69.2383L20.3125-69.2383Q15.0879-69.2383 12.4268-66.5771Q9.76562-63.916 9.76562-58.6914L9.76562-11.6211Q9.76562-6.44531 12.4268-3.78418Q15.0879-1.12305 20.3125-1.12305ZM20.4102-4.44336Q16.7969-4.44336 14.9414-6.29883Q13.0859-8.1543 13.0859-11.8164L13.0859-58.5449Q13.0859-62.207 14.9414-64.0625Q16.7969-65.918 20.4102-65.918L67.1875-65.918Q70.7031-65.918 72.6318-64.0625Q74.5605-62.207 74.5605-58.5449L74.5605-11.8164Q74.5605-8.1543 72.6318-6.29883Q70.7031-4.44336 67.1875-4.44336ZM42.334-17.8711Q47.0215-17.8711 49.6094-20.6055Q52.1973-23.3398 52.1973-28.0273L52.1973-50.8789Q52.1973-51.709 51.7578-52.1729Q51.3184-52.6367 50.4883-52.6367Q49.707-52.6367 49.2676-52.1729Q48.8281-51.709 48.8281-50.8789L48.8281-28.0273Q48.8281-24.707 47.1191-22.7783Q45.4102-20.8496 42.4805-20.8496Q39.7461-20.8496 37.8418-22.3389Q35.9375-23.8281 35.498-26.2695Q35.1562-27.5391 33.9844-27.5391Q33.252-27.5391 32.8125-27.0752Q32.373-26.6113 32.373-25.8789Q32.373-25.6348 32.4219-25.3174Q32.4707-25 32.5684-24.6582Q33.2031-21.7285 35.9131-19.7998Q38.623-17.8711 42.334-17.8711Z"/>
  </g>
  <g id="Ultralight-S" transform="matrix(1 0 0 1 516.352 696)">
   <path d="M19.7754-1.5625L66.9434-1.5625Q71.875-1.5625 74.4141-4.15039Q76.9531-6.73828 76.9531-11.5723L76.9531-58.7891Q76.9531-63.623 74.4141-66.1865Q71.875-68.75 66.9434-68.75L19.7754-68.75Q14.8438-68.75 12.3047-66.2109Q9.76562-63.6719 9.76562-58.7891L9.76562-11.5723Q9.76562-6.64062 12.3047-4.10156Q14.8438-1.5625 19.7754-1.5625ZM19.873-3.75977Q15.9668-3.75977 13.9648-5.76172Q11.9629-7.76367 11.9629-11.6699L11.9629-58.6426Q11.9629-62.5488 13.9648-64.5508Q15.9668-66.5527 19.873-66.5527L66.8457-66.5527Q70.6543-66.5527 72.7051-64.5508Q74.7559-62.5488 74.7559-58.6426L74.7559-11.6699Q74.7559-7.76367 72.7051-5.76172Q70.6543-3.75977 66.8457-3.75977ZM42.041-18.0664Q46.3379-18.0664 48.7793-20.752Q51.2207-23.4375 51.2207-27.832L51.2207-51.2207Q51.2207-51.7578 50.9033-52.0508Q50.5859-52.3438 50.0977-52.3438Q49.5605-52.3438 49.2432-52.0508Q48.9258-51.7578 48.9258-51.2207L48.9258-27.7832Q48.9258-24.2676 47.0947-22.2168Q45.2637-20.166 42.0898-20.166Q39.1602-20.166 37.085-21.8506Q35.0098-23.5352 34.668-26.1719Q34.5215-27.1484 33.5938-27.1484Q33.1055-27.1484 32.8125-26.8311Q32.5195-26.5137 32.5195-25.9766Q32.5195-25.7812 32.5439-25.5127Q32.5684-25.2441 32.6172-24.9512Q33.1543-22.0215 35.7666-20.0439Q38.3789-18.0664 42.041-18.0664Z"/>
  </g>
 </g>
</svg>
