<?xml version="1.0" encoding="UTF-8"?>
<!--Generator: Apple Native CoreSVG 175-->
<!DOCTYPE svg
PUBLIC "-//W3C//DTD SVG 1.1//EN"
       "http://www.w3.org/Graphics/SVG/1.1/DTD/svg11.dtd">
<svg version="1.1" xmlns="http://www.w3.org/2000/svg" xmlns:xlink="http://www.w3.org/1999/xlink" width="3300" height="2200">
 <!--glyph: "uni1000BA.medium", point size: 100.0, font version: "17.0d11e1", template writer version: "65.1"-->
 <g id="Notes">
  <rect height="2200" id="artboard" style="fill:white;opacity:1" width="3300" x="0" y="0"/>
  <line style="fill:none;stroke:black;opacity:1;stroke-width:0.5;" x1="263" x2="3036" y1="292" y2="292"/>
  <text style="stroke:none;fill:black;font-family:sans-serif;font-size:13;font-weight:bold;" transform="matrix(1 0 0 1 263 322)">Weight/Scale Variations</text>
  <text style="stroke:none;fill:black;font-family:sans-serif;font-size:13;text-anchor:middle;" transform="matrix(1 0 0 1 559.711 322)">Ultralight</text>
  <text style="stroke:none;fill:black;font-family:sans-serif;font-size:13;text-anchor:middle;" transform="matrix(1 0 0 1 856.422 322)">Thin</text>
  <text style="stroke:none;fill:black;font-family:sans-serif;font-size:13;text-anchor:middle;" transform="matrix(1 0 0 1 1153.13 322)">Light</text>
  <text style="stroke:none;fill:black;font-family:sans-serif;font-size:13;text-anchor:middle;" transform="matrix(1 0 0 1 1449.84 322)">Regular</text>
  <text style="stroke:none;fill:black;font-family:sans-serif;font-size:13;text-anchor:middle;" transform="matrix(1 0 0 1 1746.56 322)">Medium</text>
  <text style="stroke:none;fill:black;font-family:sans-serif;font-size:13;text-anchor:middle;" transform="matrix(1 0 0 1 2043.27 322)">Semibold</text>
  <text style="stroke:none;fill:black;font-family:sans-serif;font-size:13;text-anchor:middle;" transform="matrix(1 0 0 1 2339.98 322)">Bold</text>
  <text style="stroke:none;fill:black;font-family:sans-serif;font-size:13;text-anchor:middle;" transform="matrix(1 0 0 1 2636.69 322)">Heavy</text>
  <text style="stroke:none;fill:black;font-family:sans-serif;font-size:13;text-anchor:middle;" transform="matrix(1 0 0 1 2933.4 322)">Black</text>
  <line style="fill:none;stroke:black;opacity:1;stroke-width:0.5;" x1="263" x2="3036" y1="1903" y2="1903"/>
  <g transform="matrix(1 0 0 1 263 1933)">
   <path d="M9.24805 0.830078Q10.8691 0.830078 12.2949 0.214844Q13.7207-0.400391 14.8096-1.49414Q15.8984-2.58789 16.5186-4.01367Q17.1387-5.43945 17.1387-7.05078Q17.1387-8.66211 16.5186-10.0879Q15.8984-11.5137 14.8047-12.6074Q13.7109-13.7012 12.2852-14.3164Q10.8594-14.9316 9.23828-14.9316Q7.62695-14.9316 6.20117-14.3164Q4.77539-13.7012 3.69141-12.6074Q2.60742-11.5137 1.9873-10.0879Q1.36719-8.66211 1.36719-7.05078Q1.36719-5.43945 1.9873-4.01367Q2.60742-2.58789 3.69629-1.49414Q4.78516-0.400391 6.21094 0.214844Q7.63672 0.830078 9.24805 0.830078ZM9.24805-0.654297Q7.91992-0.654297 6.7627-1.14746Q5.60547-1.64062 4.73145-2.51953Q3.85742-3.39844 3.36426-4.56055Q2.87109-5.72266 2.87109-7.05078Q2.87109-8.37891 3.35938-9.54102Q3.84766-10.7031 4.72168-11.582Q5.5957-12.4609 6.75293-12.9541Q7.91016-13.4473 9.23828-13.4473Q10.5762-13.4473 11.7334-12.9541Q12.8906-12.4609 13.7695-11.582Q14.6484-10.7031 15.1465-9.54102Q15.6445-8.37891 15.6445-7.05078Q15.6445-5.72266 15.1514-4.56055Q14.6582-3.39844 13.7842-2.51953Q12.9102-1.64062 11.748-1.14746Q10.5859-0.654297 9.24805-0.654297ZM5.6543-7.05078Q5.6543-6.72852 5.85938-6.52832Q6.06445-6.32812 6.40625-6.32812L8.51562-6.32812L8.51562-4.20898Q8.51562-3.88672 8.71094-3.67676Q8.90625-3.4668 9.23828-3.4668Q9.56055-3.4668 9.77051-3.67676Q9.98047-3.88672 9.98047-4.20898L9.98047-6.32812L12.0898-6.32812Q12.4219-6.32812 12.627-6.52832Q12.832-6.72852 12.832-7.05078Q12.832-7.38281 12.627-7.58789Q12.4219-7.79297 12.0898-7.79297L9.98047-7.79297L9.98047-9.90234Q9.98047-10.2344 9.77051-10.4443Q9.56055-10.6543 9.23828-10.6543Q8.90625-10.6543 8.71094-10.4443Q8.51562-10.2344 8.51562-9.90234L8.51562-7.79297L6.40625-7.79297Q6.06445-7.79297 5.85938-7.58789Q5.6543-7.38281 5.6543-7.05078Z"/>
  </g>
  <g transform="matrix(1 0 0 1 281.867 1933)">
   <path d="M11.709 2.91016Q13.75 2.91016 15.5518 2.12891Q17.3535 1.34766 18.7305-0.0292969Q20.1074-1.40625 20.8887-3.20801Q21.6699-5.00977 21.6699-7.05078Q21.6699-9.0918 20.8887-10.8936Q20.1074-12.6953 18.7305-14.0723Q17.3535-15.4492 15.5469-16.2305Q13.7402-17.0117 11.6992-17.0117Q9.6582-17.0117 7.85645-16.2305Q6.05469-15.4492 4.68262-14.0723Q3.31055-12.6953 2.5293-10.8936Q1.74805-9.0918 1.74805-7.05078Q1.74805-5.00977 2.5293-3.20801Q3.31055-1.40625 4.6875-0.0292969Q6.06445 1.34766 7.86621 2.12891Q9.66797 2.91016 11.709 2.91016ZM11.709 1.25Q9.98047 1.25 8.47656 0.605469Q6.97266-0.0390625 5.83496-1.17676Q4.69727-2.31445 4.05762-3.81836Q3.41797-5.32227 3.41797-7.05078Q3.41797-8.7793 4.05762-10.2832Q4.69727-11.7871 5.83008-12.9297Q6.96289-14.0723 8.4668-14.7119Q9.9707-15.3516 11.6992-15.3516Q13.4277-15.3516 14.9316-14.7119Q16.4355-14.0723 17.5781-12.9297Q18.7207-11.7871 19.3652-10.2832Q20.0098-8.7793 20.0098-7.05078Q20.0098-5.32227 19.3701-3.81836Q18.7305-2.31445 17.5928-1.17676Q16.4551-0.0390625 14.9463 0.605469Q13.4375 1.25 11.709 1.25ZM7.17773-7.05078Q7.17773-6.69922 7.41211-6.47461Q7.64648-6.25 8.01758-6.25L10.8887-6.25L10.8887-3.36914Q10.8887-2.99805 11.1133-2.76855Q11.3379-2.53906 11.6895-2.53906Q12.0605-2.53906 12.29-2.76855Q12.5195-2.99805 12.5195-3.36914L12.5195-6.25L15.4004-6.25Q15.7715-6.25 16.001-6.47461Q16.2305-6.69922 16.2305-7.05078Q16.2305-7.42188 16.001-7.65137Q15.7715-7.88086 15.4004-7.88086L12.5195-7.88086L12.5195-10.752Q12.5195-11.1328 12.29-11.3623Q12.0605-11.5918 11.6895-11.5918Q11.3379-11.5918 11.1133-11.3574Q10.8887-11.123 10.8887-10.752L10.8887-7.88086L8.01758-7.88086Q7.63672-7.88086 7.40723-7.65137Q7.17773-7.42188 7.17773-7.05078Z"/>
  </g>
  <g transform="matrix(1 0 0 1 305.646 1933)">
   <path d="M14.9707 5.66406Q17.0605 5.66406 18.96 5.01465Q20.8594 4.36523 22.4512 3.19336Q24.043 2.02148 25.2197 0.429688Q26.3965-1.16211 27.0459-3.06641Q27.6953-4.9707 27.6953-7.05078Q27.6953-9.14062 27.0459-11.04Q26.3965-12.9395 25.2197-14.5312Q24.043-16.123 22.4512-17.2998Q20.8594-18.4766 18.9551-19.126Q17.0508-19.7754 14.9609-19.7754Q12.8711-19.7754 10.9717-19.126Q9.07227-18.4766 7.48535-17.2998Q5.89844-16.123 4.72168-14.5312Q3.54492-12.9395 2.90039-11.04Q2.25586-9.14062 2.25586-7.05078Q2.25586-4.9707 2.90527-3.06641Q3.55469-1.16211 4.72656 0.429688Q5.89844 2.02148 7.49023 3.19336Q9.08203 4.36523 10.9814 5.01465Q12.8809 5.66406 14.9707 5.66406ZM14.9707 3.84766Q13.1641 3.84766 11.5283 3.2959Q9.89258 2.74414 8.53516 1.74805Q7.17773 0.751953 6.17676-0.610352Q5.17578-1.97266 4.62891-3.6084Q4.08203-5.24414 4.08203-7.05078Q4.08203-8.86719 4.62891-10.5029Q5.17578-12.1387 6.17188-13.501Q7.16797-14.8633 8.52539-15.8594Q9.88281-16.8555 11.5186-17.4023Q13.1543-17.9492 14.9609-17.9492Q16.7773-17.9492 18.4131-17.4023Q20.0488-16.8555 21.4111-15.8594Q22.7734-14.8633 23.7695-13.501Q24.7656-12.1387 25.3174-10.5029Q25.8691-8.86719 25.8691-7.05078Q25.8789-5.24414 25.332-3.6084Q24.7852-1.97266 23.7842-0.610352Q22.7832 0.751953 21.4209 1.74805Q20.0586 2.74414 18.4229 3.2959Q16.7871 3.84766 14.9707 3.84766ZM9.19922-7.05078Q9.19922-6.66992 9.45801-6.4209Q9.7168-6.17188 10.1172-6.17188L14.0625-6.17188L14.0625-2.2168Q14.0625-1.81641 14.3115-1.55762Q14.5605-1.29883 14.9512-1.29883Q15.3516-1.29883 15.6104-1.55273Q15.8691-1.80664 15.8691-2.2168L15.8691-6.17188L19.8242-6.17188Q20.2246-6.17188 20.4785-6.4209Q20.7324-6.66992 20.7324-7.05078Q20.7324-7.46094 20.4785-7.71484Q20.2246-7.96875 19.8242-7.96875L15.8691-7.96875L15.8691-11.9141Q15.8691-12.3242 15.6104-12.583Q15.3516-12.8418 14.9512-12.8418Q14.5605-12.8418 14.3115-12.583Q14.0625-12.3242 14.0625-11.9141L14.0625-7.96875L10.1172-7.96875Q9.70703-7.96875 9.45312-7.71484Q9.19922-7.46094 9.19922-7.05078Z"/>
  </g>
  <text style="stroke:none;fill:black;font-family:sans-serif;font-size:13;font-weight:bold;" transform="matrix(1 0 0 1 263 1953)">Design Variations</text>
  <text style="stroke:none;fill:black;font-family:sans-serif;font-size:13;" transform="matrix(1 0 0 1 263 1971)">Symbols are supported in up to nine weights and three scales.</text>
  <text style="stroke:none;fill:black;font-family:sans-serif;font-size:13;" transform="matrix(1 0 0 1 263 1989)">For optimal layout with text and other symbols, vertically align</text>
  <text style="stroke:none;fill:black;font-family:sans-serif;font-size:13;" transform="matrix(1 0 0 1 263 2007)">symbols with the adjacent text.</text>
  <line style="fill:none;stroke:#00AEEF;stroke-width:0.5;opacity:1.0;" x1="776" x2="776" y1="1919" y2="1933"/>
  <g transform="matrix(1 0 0 1 776 1933)">
   <path d="M3.31055 0.15625Q3.70117 0.15625 3.91602-0.00976562Q4.13086-0.175781 4.26758-0.585938L5.52734-4.0332L11.2891-4.0332L12.5488-0.585938Q12.6855-0.175781 12.9004-0.00976562Q13.1152 0.15625 13.4961 0.15625Q13.8867 0.15625 14.1162-0.0585938Q14.3457-0.273438 14.3457-0.644531Q14.3457-0.869141 14.2383-1.17188L9.6582-13.3691Q9.48242-13.8184 9.17969-14.043Q8.87695-14.2676 8.4082-14.2676Q7.5-14.2676 7.17773-13.3789L2.59766-1.16211Q2.49023-0.859375 2.49023-0.634766Q2.49023-0.263672 2.70996-0.0537109Q2.92969 0.15625 3.31055 0.15625ZM6.00586-5.51758L8.37891-12.0898L8.42773-12.0898L10.8008-5.51758Z"/>
  </g>
  <line style="fill:none;stroke:#00AEEF;stroke-width:0.5;opacity:1.0;" x1="793.197" x2="793.197" y1="1919" y2="1933"/>
  <text style="stroke:none;fill:black;font-family:sans-serif;font-size:13;font-weight:bold;" transform="matrix(1 0 0 1 776 1953)">Margins</text>
  <text style="stroke:none;fill:black;font-family:sans-serif;font-size:13;" transform="matrix(1 0 0 1 776 1971)">Leading and trailing margins on the left and right side of each symbol</text>
  <text style="stroke:none;fill:black;font-family:sans-serif;font-size:13;" transform="matrix(1 0 0 1 776 1989)">can be adjusted by modifying the x-location of the margin guidelines.</text>
  <text style="stroke:none;fill:black;font-family:sans-serif;font-size:13;" transform="matrix(1 0 0 1 776 2007)">Modifications are automatically applied proportionally to all</text>
  <text style="stroke:none;fill:black;font-family:sans-serif;font-size:13;" transform="matrix(1 0 0 1 776 2025)">scales and weights.</text>
  <g transform="matrix(1 0 0 1 1289 1933)">
   <path d="M2.8418 1.86523L4.54102 3.57422Q5.18555 4.22852 5.90332 4.17969Q6.62109 4.13086 7.31445 3.35938L18.0078-8.42773L17.041-9.4043L6.42578 2.27539Q6.16211 2.57812 5.89355 2.61719Q5.625 2.65625 5.27344 2.30469L4.10156 1.14258Q3.75 0.791016 3.79395 0.522461Q3.83789 0.253906 4.14062-0.0195312L15.6152-10.8203L14.6387-11.7871L3.04688-0.898438Q2.30469-0.214844 2.25098 0.498047Q2.19727 1.21094 2.8418 1.86523ZM9.25781-16.3281Q8.94531-16.0254 8.90625-15.6348Q8.86719-15.2441 9.04297-14.9512Q9.21875-14.6777 9.55566-14.541Q9.89258-14.4043 10.3809-14.5215Q11.4746-14.7754 12.5977-14.7314Q13.7207-14.6875 14.7949-13.9844L14.209-12.5293Q13.9551-11.9043 14.0674-11.4404Q14.1797-10.9766 14.5801-10.5664L16.875-8.25195Q17.2363-7.88086 17.5781-7.82227Q17.9199-7.76367 18.3398-7.8418L19.4043-8.03711L20.0684-7.36328L20.0293-6.80664Q20-6.43555 20.1221-6.12305Q20.2441-5.81055 20.6055-5.44922L21.3672-4.70703Q21.7285-4.3457 22.1533-4.33105Q22.5781-4.31641 22.9297-4.66797L25.8398-7.58789Q26.1914-7.93945 26.1816-8.35449Q26.1719-8.76953 25.8105-9.13086L25.0391-9.89258Q24.6875-10.2539 24.3799-10.3857Q24.0723-10.5176 23.7109-10.4883L23.1348-10.4395L22.4902-11.0742L22.7344-12.1973Q22.832-12.6172 22.6953-12.9834Q22.5586-13.3496 22.1191-13.7891L19.9219-15.9766Q18.6719-17.2168 17.2607-17.8369Q15.8496-18.457 14.4189-18.4814Q12.9883-18.5059 11.665-17.959Q10.3418-17.4121 9.25781-16.3281ZM10.752-15.957Q11.6602-16.6211 12.7002-16.9043Q13.7402-17.1875 14.8047-17.085Q15.8691-16.9824 16.8701-16.5137Q17.8711-16.0449 18.7012-15.2051L21.1328-12.793Q21.3086-12.6172 21.3525-12.4512Q21.3965-12.2852 21.3379-12.0312L21.0156-10.5469L22.5195-9.0625L23.5059-9.12109Q23.6914-9.13086 23.7891-9.09668Q23.8867-9.0625 24.0332-8.91602L24.6094-8.33984L22.168-5.89844L21.5918-6.47461Q21.4453-6.62109 21.4062-6.71875Q21.3672-6.81641 21.377-7.01172L21.4453-7.98828L19.9512-9.47266L18.4277-9.21875Q18.1836-9.16992 18.042-9.2041Q17.9004-9.23828 17.7148-9.41406L15.7129-11.416Q15.5176-11.5918 15.4932-11.7529Q15.4688-11.9141 15.5859-12.1875L16.4648-14.2773Q15.293-15.3711 13.8281-15.791Q12.3633-16.2109 10.8398-15.7617Q10.7227-15.7324 10.6885-15.8057Q10.6543-15.8789 10.752-15.957Z"/>
  </g>
  <text style="stroke:none;fill:black;font-family:sans-serif;font-size:13;font-weight:bold;" transform="matrix(1 0 0 1 1289 1953)">Exporting</text>
  <text style="stroke:none;fill:black;font-family:sans-serif;font-size:13;" transform="matrix(1 0 0 1 1289 1971)">Symbols should be outlined when exporting to ensure the</text>
  <text style="stroke:none;fill:black;font-family:sans-serif;font-size:13;" transform="matrix(1 0 0 1 1289 1989)">design is preserved when submitting to Xcode.</text>
  <text id="template-version" style="stroke:none;fill:black;font-family:sans-serif;font-size:13;text-anchor:end;" transform="matrix(1 0 0 1 3036 1933)">Template v.2.0</text>
  <text style="stroke:none;fill:black;font-family:sans-serif;font-size:13;text-anchor:end;" transform="matrix(1 0 0 1 3036 1951)">Requires Xcode 13 or greater</text>
  <text id="descriptive-name" style="stroke:none;fill:black;font-family:sans-serif;font-size:13;text-anchor:end;" transform="matrix(1 0 0 1 3036 1969)">Generated from t.square</text>
  <text style="stroke:none;fill:black;font-family:sans-serif;font-size:13;text-anchor:end;" transform="matrix(1 0 0 1 3036 1987)">Typeset at 100 points</text>
  <text style="stroke:none;fill:black;font-family:sans-serif;font-size:13;" transform="matrix(1 0 0 1 263 726)">Small</text>
  <text style="stroke:none;fill:black;font-family:sans-serif;font-size:13;" transform="matrix(1 0 0 1 263 1156)">Medium</text>
  <text style="stroke:none;fill:black;font-family:sans-serif;font-size:13;" transform="matrix(1 0 0 1 263 1586)">Large</text>
 </g>
 <g id="Guides">
  <g id="H-reference" style="fill:#27AAE1;stroke:none;" transform="matrix(1 0 0 1 339 696)">
   <path d="M0.976562 0L3.66211 0L29.3457-67.1387L30.0293-67.1387L30.0293-70.459L28.125-70.459ZM11.6699-24.4629L46.9727-24.4629L46.2402-26.709L12.4512-26.709ZM55.127 0L57.7637 0L30.6152-70.459L29.4434-70.459L29.4434-67.1387Z"/>
  </g>
  <line id="Baseline-S" style="fill:none;stroke:#27AAE1;opacity:1;stroke-width:0.5;" x1="263" x2="3036" y1="696" y2="696"/>
  <line id="Capline-S" style="fill:none;stroke:#27AAE1;opacity:1;stroke-width:0.5;" x1="263" x2="3036" y1="625.541" y2="625.541"/>
  <g id="H-reference" style="fill:#27AAE1;stroke:none;" transform="matrix(1 0 0 1 339 1126)">
   <path d="M0.976562 0L3.66211 0L29.3457-67.1387L30.0293-67.1387L30.0293-70.459L28.125-70.459ZM11.6699-24.4629L46.9727-24.4629L46.2402-26.709L12.4512-26.709ZM55.127 0L57.7637 0L30.6152-70.459L29.4434-70.459L29.4434-67.1387Z"/>
  </g>
  <line id="Baseline-M" style="fill:none;stroke:#27AAE1;opacity:1;stroke-width:0.5;" x1="263" x2="3036" y1="1126" y2="1126"/>
  <line id="Capline-M" style="fill:none;stroke:#27AAE1;opacity:1;stroke-width:0.5;" x1="263" x2="3036" y1="1055.54" y2="1055.54"/>
  <g id="H-reference" style="fill:#27AAE1;stroke:none;" transform="matrix(1 0 0 1 339 1556)">
   <path d="M0.976562 0L3.66211 0L29.3457-67.1387L30.0293-67.1387L30.0293-70.459L28.125-70.459ZM11.6699-24.4629L46.9727-24.4629L46.2402-26.709L12.4512-26.709ZM55.127 0L57.7637 0L30.6152-70.459L29.4434-70.459L29.4434-67.1387Z"/>
  </g>
  <line id="Baseline-L" style="fill:none;stroke:#27AAE1;opacity:1;stroke-width:0.5;" x1="263" x2="3036" y1="1556" y2="1556"/>
  <line id="Capline-L" style="fill:none;stroke:#27AAE1;opacity:1;stroke-width:0.5;" x1="263" x2="3036" y1="1485.54" y2="1485.54"/>
  <line id="left-margin" style="fill:none;stroke:#00AEEF;stroke-width:0.5;opacity:1.0;" x1="1392.45" x2="1392.45" y1="1030.79" y2="1150.12"/>
  <line id="right-margin" style="fill:none;stroke:#00AEEF;stroke-width:0.5;opacity:1.0;" x1="1507.24" x2="1507.24" y1="1030.79" y2="1150.12"/>
 </g>
 <g id="Symbols">
  <g id="Black-L" transform="matrix(1 0 0 1 2855.62 1556)">
   <path d="M39.9902 26.5137L115.576 26.5137Q127.002 26.5137 133.252 20.3125Q139.502 14.1113 139.502 2.68555L139.502-73.0957Q139.502-84.4727 133.252-90.6738Q127.002-96.875 115.576-96.875L39.9902-96.875Q28.5645-96.875 22.3145-90.6738Q16.0645-84.4727 16.0645-73.0957L16.0645 2.68555Q16.0645 14.1113 22.3145 20.3125Q28.5645 26.5137 39.9902 26.5137ZM42.6758 6.29883Q39.5508 6.29883 37.9395 4.78516Q36.3281 3.27148 36.3281-0.146484L36.3281-70.2148Q36.3281-73.6328 37.9395-75.1465Q39.5508-76.6602 42.6758-76.6602L112.842-76.6602Q116.016-76.6602 117.627-75.1465Q119.238-73.6328 119.238-70.2148L119.238-0.146484Q119.238 3.27148 117.627 4.78516Q116.016 6.29883 112.842 6.29883ZM77.7832-6.29883Q82.666-6.29883 85.3516-9.32617Q88.0371-12.3535 88.0371-17.6758L88.0371-48.6328L96.1914-48.6328Q100.146-48.6328 102.368-50.6592Q104.59-52.6855 104.59-56.2988Q104.59-59.9121 102.368-61.9629Q100.146-64.0137 96.1914-64.0137L59.375-64.0137Q55.4199-64.0137 53.1982-61.9629Q50.9766-59.9121 50.9766-56.2988Q50.9766-52.6855 53.1982-50.6592Q55.4199-48.6328 59.375-48.6328L67.5293-48.6328L67.5293-17.6758Q67.5293-12.3535 70.1904-9.32617Q72.8516-6.29883 77.7832-6.29883Z"/>
  </g>
  <g id="Heavy-L" transform="matrix(1 0 0 1 2559.93 1556)">
   <path d="M38.8184 25.4883L114.697 25.4883Q125.684 25.4883 131.567 19.6289Q137.451 13.7695 137.451 2.88086L137.451-73.2422Q137.451-84.1309 131.567-89.9902Q125.684-95.8496 114.697-95.8496L38.8184-95.8496Q27.8809-95.8496 21.9727-89.9902Q16.0645-84.1309 16.0645-73.2422L16.0645 2.88086Q16.0645 13.8184 21.9727 19.6533Q27.8809 25.4883 38.8184 25.4883ZM40.918 8.00781Q37.3047 8.00781 35.4492 6.22559Q33.5938 4.44336 33.5938 0.585938L33.5938-70.9473Q33.5938-74.8047 35.4492-76.5869Q37.3047-78.3691 40.918-78.3691L112.549-78.3691Q116.162-78.3691 118.042-76.5869Q119.922-74.8047 119.922-70.9473L119.922 0.585938Q119.922 4.44336 118.042 6.22559Q116.162 8.00781 112.549 8.00781ZM76.7578-6.34766Q80.957-6.34766 83.2764-8.95996Q85.5957-11.5723 85.5957-16.1621L85.5957-50.5859L95.6543-50.5859Q99.0723-50.5859 101.001-52.3682Q102.93-54.1504 102.93-57.3242Q102.93-60.4492 101.001-62.2314Q99.0723-64.0137 95.6543-64.0137L57.9102-64.0137Q54.541-64.0137 52.5879-62.2314Q50.6348-60.4492 50.6348-57.3242Q50.6348-54.1504 52.5879-52.3682Q54.541-50.5859 57.9102-50.5859L67.9199-50.5859L67.9199-16.1621Q67.9199-11.5723 70.1904-8.95996Q72.4609-6.34766 76.7578-6.34766Z"/>
  </g>
  <g id="Bold-L" transform="matrix(1 0 0 1 2264.34 1556)">
   <path d="M37.5488 24.3652L113.721 24.3652Q124.17 24.3652 129.688 18.8965Q135.205 13.4277 135.205 3.07617L135.205-73.4375Q135.205-83.7891 129.688-89.2578Q124.17-94.7266 113.721-94.7266L37.5488-94.7266Q27.0996-94.7266 21.582-89.2578Q16.0645-83.7891 16.0645-73.4375L16.0645 3.07617Q16.0645 13.4766 21.582 18.9209Q27.0996 24.3652 37.5488 24.3652ZM38.9648 9.96094Q34.8633 9.96094 32.6904 7.86133Q30.5176 5.76172 30.5176 1.41602L30.5176-71.7773Q30.5176-76.0742 32.6904-78.1738Q34.8633-80.2734 38.9648-80.2734L112.256-80.2734Q116.357-80.2734 118.555-78.1738Q120.752-76.0742 120.752-71.7773L120.752 1.41602Q120.752 5.76172 118.555 7.86133Q116.357 9.96094 112.256 9.96094ZM75.5371-6.34766Q79.0527-6.34766 80.957-8.49609Q82.8613-10.6445 82.8613-14.4043L82.8613-52.7344L95.0195-52.7344Q97.8027-52.7344 99.4141-54.248Q101.025-55.7617 101.025-58.3984Q101.025-61.0352 99.4141-62.5244Q97.8027-64.0137 95.0195-64.0137L56.2012-64.0137Q53.4668-64.0137 51.8311-62.5244Q50.1953-61.0352 50.1953-58.3984Q50.1953-55.7617 51.8311-54.248Q53.4668-52.7344 56.2012-52.7344L68.2617-52.7344L68.2617-14.4043Q68.2617-10.6934 70.1416-8.52051Q72.0215-6.34766 75.5371-6.34766Z"/>
  </g>
  <g id="Semibold-L" transform="matrix(1 0 0 1 1968.44 1556)">
   <path d="M36.6211 23.584L112.988 23.584Q123.145 23.584 128.369 18.3838Q133.594 13.1836 133.594 3.17383L133.594-73.5352Q133.594-83.4961 128.369-88.6963Q123.145-93.8965 112.988-93.8965L36.6211-93.8965Q26.5625-93.8965 21.3135-88.7207Q16.0645-83.5449 16.0645-73.5352L16.0645 3.17383Q16.0645 13.2324 21.3135 18.4082Q26.5625 23.584 36.6211 23.584ZM37.5977 11.2793Q33.1055 11.2793 30.7617 8.95996Q28.418 6.64062 28.418 2.00195L28.418-72.3145Q28.418-76.9531 30.7617-79.2725Q33.1055-81.5918 37.5977-81.5918L112.061-81.5918Q116.504-81.5918 118.896-79.2725Q121.289-76.9531 121.289-72.3145L121.289 2.00195Q121.289 6.64062 118.896 8.95996Q116.504 11.2793 112.061 11.2793ZM74.6582-6.34766Q77.6855-6.34766 79.2969-8.20312Q80.9082-10.0586 80.9082-13.2324L80.9082-54.248L94.5801-54.248Q96.875-54.248 98.291-55.5664Q99.707-56.8848 99.707-59.1309Q99.707-61.4258 98.291-62.7197Q96.875-64.0137 94.5801-64.0137L55.0293-64.0137Q52.7344-64.0137 51.3184-62.7197Q49.9023-61.4258 49.9023-59.1309Q49.9023-56.8848 51.3184-55.5664Q52.7344-54.248 55.0293-54.248L68.5059-54.248L68.5059-13.2324Q68.5059-10.1074 70.0928-8.22754Q71.6797-6.34766 74.6582-6.34766Z"/>
  </g>
  <g id="Medium-L" transform="matrix(1 0 0 1 1672.31 1556)">
   <path d="M35.9375 22.998L112.5 22.998Q122.363 22.998 127.393 17.9932Q132.422 12.9883 132.422 3.27148L132.422-73.6328Q132.422-83.3008 127.393-88.3057Q122.363-93.3105 112.5-93.3105L35.9375-93.3105Q26.1719-93.3105 21.1182-88.3301Q16.0645-83.3496 16.0645-73.6328L16.0645 3.27148Q16.0645 13.0371 21.1182 18.0176Q26.1719 22.998 35.9375 22.998ZM36.5723 12.2559Q31.8359 12.2559 29.3213 9.79004Q26.8066 7.32422 26.8066 2.39258L26.8066-72.7539Q26.8066-77.6367 29.3213-80.1025Q31.8359-82.5684 36.5723-82.5684L111.865-82.5684Q116.553-82.5684 119.116-80.1025Q121.68-77.6367 121.68-72.7539L121.68 2.39258Q121.68 7.32422 119.116 9.79004Q116.553 12.2559 111.865 12.2559ZM74.0234-6.29883Q76.6602-6.29883 78.0762-7.91016Q79.4922-9.52148 79.4922-12.3047L79.4922-55.3223L94.2383-55.3223Q96.2402-55.3223 97.4854-56.4941Q98.7305-57.666 98.7305-59.668Q98.7305-61.7188 97.4854-62.8662Q96.2402-64.0137 94.2383-64.0137L54.1504-64.0137Q52.1973-64.0137 50.9277-62.8662Q49.6582-61.7188 49.6582-59.668Q49.6582-57.666 50.9277-56.4941Q52.1973-55.3223 54.1504-55.3223L68.7012-55.3223L68.7012-12.3047Q68.7012-9.61914 70.0928-7.95898Q71.4844-6.29883 74.0234-6.29883Z"/>
  </g>
  <g id="Regular-L" transform="matrix(1 0 0 1 1376.38 1556)">
   <path d="M35.0586 22.2168L111.816 22.2168Q121.338 22.2168 126.099 17.4805Q130.859 12.7441 130.859 3.41797L130.859-73.7305Q130.859-83.0566 126.099-87.793Q121.338-92.5293 111.816-92.5293L35.0586-92.5293Q25.6348-92.5293 20.8496-87.8174Q16.0645-83.1055 16.0645-73.7305L16.0645 3.41797Q16.0645 12.793 20.8496 17.5049Q25.6348 22.2168 35.0586 22.2168ZM35.2539 13.5742Q30.127 13.5742 27.417 10.8887Q24.707 8.20312 24.707 2.97852L24.707-73.291Q24.707-78.5156 27.417-81.2012Q30.127-83.8867 35.2539-83.8867L111.67-83.8867Q116.699-83.8867 119.458-81.2012Q122.217-78.5156 122.217-73.291L122.217 2.97852Q122.217 8.20312 119.458 10.8887Q116.699 13.5742 111.67 13.5742ZM73.2422-6.34766Q75.3906-6.34766 76.5137-7.6416Q77.6367-8.93555 77.6367-11.1328L77.6367-56.8359L93.8477-56.8359Q95.4102-56.8359 96.4355-57.8125Q97.4609-58.7891 97.4609-60.4492Q97.4609-62.1094 96.4355-63.0615Q95.4102-64.0137 93.8477-64.0137L53.0273-64.0137Q51.5137-64.0137 50.4639-63.0615Q49.4141-62.1094 49.4141-60.4492Q49.4141-58.7891 50.4639-57.8125Q51.5137-56.8359 53.0273-56.8359L68.9941-56.8359L68.9941-11.1328Q68.9941-9.0332 70.0928-7.69043Q71.1914-6.34766 73.2422-6.34766Z"/>
  </g>
  <g id="Light-L" transform="matrix(1 0 0 1 1080.5 1556)">
   <path d="M34.0332 21.4355L111.182 21.4355Q120.117 21.4355 124.658 16.8945Q129.199 12.3535 129.199 3.56445L129.199-73.8281Q129.199-82.6172 124.658-87.1582Q120.117-91.6992 111.182-91.6992L34.0332-91.6992Q25.1465-91.6992 20.6055-87.207Q16.0645-82.7148 16.0645-73.8281L16.0645 3.56445Q16.0645 12.4023 20.6055 16.9189Q25.1465 21.4355 34.0332 21.4355ZM34.2285 14.7949Q28.5645 14.7949 25.6104 11.8652Q22.6562 8.93555 22.6562 3.22266L22.6562-73.4863Q22.6562-79.1992 25.6104-82.1289Q28.5645-85.0586 34.2285-85.0586L111.035-85.0586Q116.553-85.0586 119.556-82.1289Q122.559-79.1992 122.559-73.4863L122.559 3.22266Q122.559 8.93555 119.556 11.8652Q116.553 14.7949 111.035 14.7949ZM72.3145-6.64062Q73.9746-6.64062 74.8535-7.61719Q75.7324-8.59375 75.7324-10.2539L75.7324-57.9102L92.6758-57.9102Q93.9453-57.9102 94.751-58.7158Q95.5566-59.5215 95.5566-60.791Q95.5566-62.1094 94.751-62.8662Q93.9453-63.623 92.6758-63.623L52.4902-63.623Q51.3184-63.623 50.4639-62.8662Q49.6094-62.1094 49.6094-60.791Q49.6094-59.5215 50.4639-58.7158Q51.3184-57.9102 52.4902-57.9102L69.043-57.9102L69.043-10.2539Q69.043-8.69141 69.9219-7.66602Q70.8008-6.64062 72.3145-6.64062Z"/>
  </g>
  <g id="Thin-L" transform="matrix(1 0 0 1 784.889 1556)">
   <path d="M32.666 20.3613L110.352 20.3613Q118.506 20.3613 122.754 16.0889Q127.002 11.8164 127.002 3.75977L127.002-73.9746Q127.002-82.0312 122.754-86.3037Q118.506-90.5762 110.352-90.5762L32.666-90.5762Q24.5117-90.5762 20.2881-86.377Q16.0645-82.1777 16.0645-73.9746L16.0645 3.75977Q16.0645 11.9141 20.2881 16.1377Q24.5117 20.3613 32.666 20.3613ZM32.8125 16.4062Q26.5137 16.4062 23.2666 13.1592Q20.0195 9.91211 20.0195 3.56445L20.0195-73.7793Q20.0195-80.127 23.2666-83.374Q26.5137-86.6211 32.8125-86.6211L110.205-86.6211Q116.309-86.6211 119.678-83.374Q123.047-80.127 123.047-73.7793L123.047 3.56445Q123.047 9.91211 119.678 13.1592Q116.309 16.4062 110.205 16.4062ZM71.1426-6.98242Q72.1191-6.98242 72.6562-7.56836Q73.1934-8.1543 73.1934-9.08203L73.1934-59.375L91.2109-59.375Q91.9922-59.375 92.5293-59.9121Q93.0664-60.4492 93.0664-61.2305Q93.0664-62.1094 92.5293-62.5977Q91.9922-63.0859 91.2109-63.0859L51.7578-63.0859Q51.0254-63.0859 50.4639-62.5977Q49.9023-62.1094 49.9023-61.2305Q49.9023-60.4492 50.4639-59.9121Q51.0254-59.375 51.7578-59.375L69.0918-59.375L69.0918-9.08203Q69.0918-8.1543 69.6777-7.56836Q70.2637-6.98242 71.1426-6.98242Z"/>
  </g>
  <g id="Ultralight-L" transform="matrix(1 0 0 1 488.739 1556)">
   <path d="M31.9824 19.8242L109.961 19.8242Q117.725 19.8242 121.802 15.6738Q125.879 11.5234 125.879 3.85742L125.879-74.0723Q125.879-81.7383 121.802-85.8643Q117.725-89.9902 109.961-89.9902L31.9824-89.9902Q24.1699-89.9902 20.1172-85.9375Q16.0645-81.8848 16.0645-74.0723L16.0645 3.85742Q16.0645 11.6699 20.1172 15.7471Q24.1699 19.8242 31.9824 19.8242ZM32.1289 17.2363Q25.4395 17.2363 22.0215 13.8184Q18.6035 10.4004 18.6035 3.75977L18.6035-73.9258Q18.6035-80.6152 22.0215-84.0332Q25.4395-87.4512 32.1289-87.4512L109.814-87.4512Q116.211-87.4512 119.751-84.0332Q123.291-80.6152 123.291-73.9258L123.291 3.75977Q123.291 10.4004 119.751 13.8184Q116.211 17.2363 109.814 17.2363ZM70.5566-7.12891Q71.1426-7.12891 71.5332-7.51953Q71.9238-7.91016 71.9238-8.44727L71.9238-60.0586L90.4297-60.0586Q91.0645-60.0586 91.4307-60.4736Q91.7969-60.8887 91.7969-61.4746Q91.7969-62.0605 91.4307-62.4268Q91.0645-62.793 90.4297-62.793L51.416-62.793Q50.9277-62.793 50.5127-62.4268Q50.0977-62.0605 50.0977-61.4746Q50.0977-60.8887 50.5127-60.4736Q50.9277-60.0586 51.416-60.0586L69.1895-60.0586L69.1895-8.44727Q69.1895-7.91016 69.6045-7.51953Q70.0195-7.12891 70.5566-7.12891Z"/>
  </g>
  <g id="Black-M" transform="matrix(1 0 0 1 2872.54 1126)">
   <path d="M31.5918 13.2324L90.1367 13.2324Q99.1699 13.2324 104.224 8.17871Q109.277 3.125 109.277-5.9082L109.277-64.4531Q109.277-73.5352 104.224-78.5645Q99.1699-83.5938 90.1367-83.5938L31.5918-83.5938Q22.5586-83.5938 17.5049-78.5645Q12.4512-73.5352 12.4512-64.4531L12.4512-5.9082Q12.4512 3.125 17.5049 8.17871Q22.5586 13.2324 31.5918 13.2324ZM34.2285-4.10156Q31.9824-4.10156 30.8838-5.12695Q29.7852-6.15234 29.7852-8.59375L29.7852-61.8164Q29.7852-64.2578 30.8838-65.2588Q31.9824-66.2598 34.2285-66.2598L87.5-66.2598Q89.7461-66.2598 90.8447-65.2588Q91.9434-64.2578 91.9434-61.8164L91.9434-8.59375Q91.9434-6.15234 90.8447-5.12695Q89.7461-4.10156 87.5-4.10156ZM60.8398-12.9395Q65.0391-12.9395 67.3828-15.5273Q69.7266-18.1152 69.7266-22.6562L69.7266-44.3359L74.6094-44.3359Q78.0762-44.3359 79.9561-46.0449Q81.8359-47.7539 81.8359-50.8789Q81.8359-53.9551 79.9561-55.6885Q78.0762-57.4219 74.6094-57.4219L47.1191-57.4219Q43.7012-57.4219 41.7969-55.6885Q39.8926-53.9551 39.8926-50.8789Q39.8926-47.7539 41.7969-46.0449Q43.7012-44.3359 47.1191-44.3359L52.0508-44.3359L52.0508-22.6562Q52.0508-18.0664 54.3457-15.5029Q56.6406-12.9395 60.8398-12.9395Z"/>
  </g>
  <g id="Heavy-M" transform="matrix(1 0 0 1 2576.65 1126)">
   <path d="M30.7129 12.4023L89.4043 12.4023Q98.0957 12.4023 102.856 7.66602Q107.617 2.92969 107.617-5.76172L107.617-64.5996Q107.617-73.291 102.856-78.0273Q98.0957-82.7637 89.4043-82.7637L30.7129-82.7637Q21.9727-82.7637 17.2119-78.0273Q12.4512-73.291 12.4512-64.5996L12.4512-5.76172Q12.4512 2.92969 17.2119 7.66602Q21.9727 12.4023 30.7129 12.4023ZM32.7148-2.68555Q30.127-2.68555 28.833-3.93066Q27.5391-5.17578 27.5391-7.91016L27.5391-62.4512Q27.5391-65.2344 28.833-66.4551Q30.127-67.6758 32.7148-67.6758L87.3535-67.6758Q89.9414-67.6758 91.2354-66.4551Q92.5293-65.2344 92.5293-62.4512L92.5293-7.91016Q92.5293-5.17578 91.2354-3.93066Q89.9414-2.68555 87.3535-2.68555ZM60.0098-12.8906Q63.6719-12.8906 65.6982-15.1367Q67.7246-17.3828 67.7246-21.3379L67.7246-45.9961L74.3164-45.9961Q77.2949-45.9961 78.9551-47.5098Q80.6152-49.0234 80.6152-51.7578Q80.6152-54.4434 78.9551-55.9814Q77.2949-57.5195 74.3164-57.5195L45.8008-57.5195Q42.8223-57.5195 41.1621-55.9814Q39.502-54.4434 39.502-51.7578Q39.502-49.0234 41.1621-47.5098Q42.8223-45.9961 45.8008-45.9961L52.3926-45.9961L52.3926-21.3379Q52.3926-17.3828 54.3701-15.1367Q56.3477-12.8906 60.0098-12.8906Z"/>
  </g>
  <g id="Bold-M" transform="matrix(1 0 0 1 2280.85 1126)">
   <path d="M29.6875 11.5234L88.5742 11.5234Q96.9238 11.5234 101.367 7.10449Q105.811 2.68555 105.811-5.66406L105.811-64.7461Q105.811-73.0469 101.367-77.4658Q96.9238-81.8848 88.5742-81.8848L29.6875-81.8848Q21.3379-81.8848 16.8945-77.4658Q12.4512-73.0469 12.4512-64.7461L12.4512-5.66406Q12.4512 2.68555 16.8945 7.10449Q21.3379 11.5234 29.6875 11.5234ZM31.0547-1.12305Q28.125-1.12305 26.5869-2.58789Q25.0488-4.05273 25.0488-7.17773L25.0488-63.2324Q25.0488-66.3574 26.5869-67.8223Q28.125-69.2871 31.0547-69.2871L87.207-69.2871Q90.1367-69.2871 91.6748-67.8223Q93.2129-66.3574 93.2129-63.2324L93.2129-7.17773Q93.2129-4.05273 91.6748-2.58789Q90.1367-1.12305 87.207-1.12305ZM59.1309-12.8418Q62.1582-12.8418 63.8428-14.7217Q65.5273-16.6016 65.5273-19.873L65.5273-47.8516L74.0234-47.8516Q76.4648-47.8516 77.8809-49.1455Q79.2969-50.4395 79.2969-52.7344Q79.2969-55.0293 77.8809-56.3232Q76.4648-57.6172 74.0234-57.6172L44.3359-57.6172Q41.8945-57.6172 40.4785-56.3232Q39.0625-55.0293 39.0625-52.7344Q39.0625-50.4395 40.4785-49.1455Q41.8945-47.8516 44.3359-47.8516L52.7832-47.8516L52.7832-19.873Q52.7832-16.6016 54.4189-14.7217Q56.0547-12.8418 59.1309-12.8418Z"/>
  </g>
  <g id="Semibold-M" transform="matrix(1 0 0 1 1984.77 1126)">
   <path d="M29.0039 10.8887L87.9883 10.8887Q96.0938 10.8887 100.317 6.68945Q104.541 2.49023 104.541-5.51758L104.541-64.8438Q104.541-72.8516 100.317-77.0508Q96.0938-81.25 87.9883-81.25L29.0039-81.25Q20.8984-81.25 16.6748-77.0508Q12.4512-72.8516 12.4512-64.8438L12.4512-5.51758Q12.4512 2.49023 16.6748 6.68945Q20.8984 10.8887 29.0039 10.8887ZM29.8828 0Q26.709 0 25.0244-1.63574Q23.3398-3.27148 23.3398-6.64062L23.3398-63.7207Q23.3398-67.0898 25.0244-68.7256Q26.709-70.3613 29.8828-70.3613L87.1094-70.3613Q90.2832-70.3613 91.9678-68.7256Q93.6523-67.0898 93.6523-63.7207L93.6523-6.64062Q93.6523-3.27148 91.9678-1.63574Q90.2832 0 87.1094 0ZM58.4473-12.7441Q61.084-12.7441 62.5244-14.3799Q63.9648-16.0156 63.9648-18.8477L63.9648-49.1211L73.7793-49.1211Q75.8789-49.1211 77.0996-50.2686Q78.3203-51.416 78.3203-53.418Q78.3203-55.4199 77.0996-56.543Q75.8789-57.666 73.7793-57.666L43.2617-57.666Q41.2109-57.666 39.9658-56.543Q38.7207-55.4199 38.7207-53.418Q38.7207-51.416 39.9658-50.2686Q41.2109-49.1211 43.2617-49.1211L53.0273-49.1211L53.0273-18.8477Q53.0273-16.0645 54.4189-14.4043Q55.8105-12.7441 58.4473-12.7441Z"/>
  </g>
  <g id="Medium-M" transform="matrix(1 0 0 1 1688.52 1126)">
   <path d="M28.4668 10.4004L87.5977 10.4004Q95.5078 10.4004 99.5605 6.37207Q103.613 2.34375 103.613-5.46875L103.613-64.8926Q103.613-72.7539 99.5605-76.7578Q95.5078-80.7617 87.5977-80.7617L28.4668-80.7617Q20.5566-80.7617 16.5039-76.7578Q12.4512-72.7539 12.4512-64.8926L12.4512-5.46875Q12.4512 2.34375 16.5039 6.37207Q20.5566 10.4004 28.4668 10.4004ZM29.0039 0.830078Q25.6348 0.830078 23.8281-0.927734Q22.0215-2.68555 22.0215-6.25L22.0215-64.1113Q22.0215-67.6758 23.8281-69.4336Q25.6348-71.1914 29.0039-71.1914L87.0117-71.1914Q90.3809-71.1914 92.2119-69.4336Q94.043-67.6758 94.043-64.1113L94.043-6.25Q94.043-2.68555 92.2119-0.927734Q90.3809 0.830078 87.0117 0.830078ZM57.959-12.7441Q60.3027-12.7441 61.5479-14.1846Q62.793-15.625 62.793-18.1152L62.793-50.0977L73.6328-50.0977Q75.3906-50.0977 76.4893-51.123Q77.5879-52.1484 77.5879-53.9551Q77.5879-55.7129 76.4893-56.7139Q75.3906-57.7148 73.6328-57.7148L42.4805-57.7148Q40.7227-57.7148 39.624-56.7139Q38.5254-55.7129 38.5254-53.9551Q38.5254-52.1484 39.624-51.123Q40.7227-50.0977 42.4805-50.0977L53.2227-50.0977L53.2227-18.1152Q53.2227-15.6738 54.4434-14.209Q55.6641-12.7441 57.959-12.7441Z"/>
  </g>
  <g id="Regular-M" transform="matrix(1 0 0 1 1392.45 1126)">
   <path d="M27.7832 9.76562L87.0117 9.76562Q94.6777 9.76562 98.5107 5.98145Q102.344 2.19727 102.344-5.37109L102.344-64.9902Q102.344-72.5586 98.5107-76.3428Q94.6777-80.127 87.0117-80.127L27.7832-80.127Q20.1172-80.127 16.2842-76.3428Q12.4512-72.5586 12.4512-64.9902L12.4512-5.37109Q12.4512 2.19727 16.2842 5.98145Q20.1172 9.76562 27.7832 9.76562ZM27.8809 1.9043Q24.2188 1.9043 22.2656-0.0244141Q20.3125-1.95312 20.3125-5.76172L20.3125-64.5996Q20.3125-68.4082 22.2656-70.3369Q24.2188-72.2656 27.8809-72.2656L86.9141-72.2656Q90.5273-72.2656 92.5049-70.3369Q94.4824-68.4082 94.4824-64.5996L94.4824-5.76172Q94.4824-1.95312 92.5049-0.0244141Q90.5273 1.9043 86.9141 1.9043ZM57.3242-12.6953Q59.2285-12.6953 60.2295-13.8672Q61.2305-15.0391 61.2305-17.0898L61.2305-51.3672L73.3887-51.3672Q74.8047-51.3672 75.7324-52.2461Q76.6602-53.125 76.6602-54.5898Q76.6602-56.1035 75.7324-56.9336Q74.8047-57.7637 73.3887-57.7637L41.4551-57.7637Q40.0391-57.7637 39.1113-56.9336Q38.1836-56.1035 38.1836-54.5898Q38.1836-53.125 39.1113-52.2461Q40.0391-51.3672 41.4551-51.3672L53.4668-51.3672L53.4668-17.0898Q53.4668-15.1367 54.4434-13.916Q55.4199-12.6953 57.3242-12.6953Z"/>
  </g>
  <g id="Light-M" transform="matrix(1 0 0 1 1096.47 1126)">
   <path d="M26.8555 9.0332L86.4746 9.0332Q93.6035 9.0332 97.2412 5.44434Q100.879 1.85547 100.879-5.22461L100.879-65.0879Q100.879-72.168 97.2412-75.7812Q93.6035-79.3945 86.4746-79.3945L26.8555-79.3945Q19.6777-79.3945 16.0645-75.8057Q12.4512-72.2168 12.4512-65.0879L12.4512-5.22461Q12.4512 1.85547 16.0645 5.44434Q19.6777 9.0332 26.8555 9.0332ZM26.9531 2.97852Q22.8027 2.97852 20.6543 0.830078Q18.5059-1.31836 18.5059-5.51758L18.5059-64.7949Q18.5059-69.043 20.6543-71.1914Q22.8027-73.3398 26.9531-73.3398L86.377-73.3398Q90.3809-73.3398 92.6025-71.1914Q94.8242-69.043 94.8242-64.7949L94.8242-5.51758Q94.8242-1.31836 92.6025 0.830078Q90.3809 2.97852 86.377 2.97852ZM56.4941-12.8906Q57.959-12.8906 58.7402-13.7939Q59.5215-14.6973 59.5215-16.2598L59.5215-52.2949L72.3145-52.2949Q73.4863-52.2949 74.2188-53.0029Q74.9512-53.7109 74.9512-54.8828Q74.9512-56.0547 74.2188-56.7139Q73.4863-57.373 72.3145-57.373L40.9668-57.373Q39.8438-57.373 39.1113-56.7139Q38.3789-56.0547 38.3789-54.8828Q38.3789-53.7109 39.1113-53.0029Q39.8438-52.2949 40.9668-52.2949L53.4668-52.2949L53.4668-16.2598Q53.4668-14.7949 54.248-13.8428Q55.0293-12.8906 56.4941-12.8906Z"/>
  </g>
  <g id="Thin-M" transform="matrix(1 0 0 1 800.758 1126)">
   <path d="M25.5859 8.05664L85.6934 8.05664Q92.2363 8.05664 95.5566 4.71191Q98.877 1.36719 98.877-5.07812L98.877-65.2344Q98.877-71.6309 95.5566-75Q92.2363-78.3691 85.6934-78.3691L25.5859-78.3691Q19.1406-78.3691 15.7959-75.0488Q12.4512-71.7285 12.4512-65.2344L12.4512-5.07812Q12.4512 1.41602 15.7959 4.73633Q19.1406 8.05664 25.5859 8.05664ZM25.7324 4.44336Q20.9961 4.44336 18.5547 2.00195Q16.1133-0.439453 16.1133-5.22461L16.1133-65.0391Q16.1133-69.873 18.5547-72.29Q20.9961-74.707 25.7324-74.707L85.5957-74.707Q90.2344-74.707 92.749-72.29Q95.2637-69.873 95.2637-65.0391L95.2637-5.22461Q95.2637-0.439453 92.749 2.00195Q90.2344 4.44336 85.5957 4.44336ZM55.4199-13.2324Q56.2988-13.2324 56.7627-13.7695Q57.2266-14.3066 57.2266-15.1855L57.2266-53.5645L70.9961-53.5645Q71.7285-53.5645 72.1924-54.0527Q72.6562-54.541 72.6562-55.2734Q72.6562-56.0547 72.1924-56.4941Q71.7285-56.9336 70.9961-56.9336L40.332-56.9336Q39.5996-56.9336 39.1113-56.4941Q38.623-56.0547 38.623-55.2734Q38.623-54.541 39.1113-54.0527Q39.5996-53.5645 40.332-53.5645L53.5645-53.5645L53.5645-15.1855Q53.5645-14.3555 54.0527-13.7939Q54.541-13.2324 55.4199-13.2324Z"/>
  </g>
  <g id="Ultralight-M" transform="matrix(1 0 0 1 504.535 1126)">
   <path d="M24.9512 7.56836L85.3516 7.56836Q91.5039 7.56836 94.7021 4.3457Q97.9004 1.12305 97.9004-4.98047L97.9004-65.332Q97.9004-71.3867 94.7021-74.6338Q91.5039-77.8809 85.3516-77.8809L24.9512-77.8809Q18.8477-77.8809 15.6494-74.6826Q12.4512-71.4844 12.4512-65.332L12.4512-4.98047Q12.4512 1.2207 15.6494 4.39453Q18.8477 7.56836 24.9512 7.56836ZM25.0977 5.17578Q20.0195 5.17578 17.4316 2.58789Q14.8438 0 14.8438-5.07812L14.8438-65.1855Q14.8438-70.2637 17.4316-72.8516Q20.0195-75.4395 25.0977-75.4395L85.2539-75.4395Q90.1367-75.4395 92.7979-72.8516Q95.459-70.2637 95.459-65.1855L95.459-5.07812Q95.459 0 92.7979 2.58789Q90.1367 5.17578 85.2539 5.17578ZM54.834-13.3789Q55.4199-13.3789 55.7617-13.7451Q56.1035-14.1113 56.1035-14.6484L56.1035-54.248L70.2637-54.248Q70.8496-54.248 71.1914-54.5898Q71.5332-54.9316 71.5332-55.4688Q71.5332-56.0059 71.1914-56.3477Q70.8496-56.6895 70.2637-56.6895L39.9902-56.6895Q39.502-56.6895 39.1357-56.3477Q38.7695-56.0059 38.7695-55.4688Q38.7695-54.9316 39.1357-54.5898Q39.502-54.248 39.9902-54.248L53.5645-54.248L53.5645-14.6484Q53.5645-14.1113 53.9307-13.7451Q54.2969-13.3789 54.834-13.3789Z"/>
  </g>
  <g id="Black-S" transform="matrix(1 0 0 1 2885.5 696)">
   <path d="M25 2.92969L70.8008 2.92969Q77.9785 2.92969 82.0068-1.09863Q86.0352-5.12695 86.0352-12.3047L86.0352-58.1055Q86.0352-65.2832 82.0068-69.3115Q77.9785-73.3398 70.8008-73.3398L25-73.3398Q17.8223-73.3398 13.7939-69.3115Q9.76562-65.2832 9.76562-58.1055L9.76562-12.3047Q9.76562-5.12695 13.7939-1.09863Q17.8223 2.92969 25 2.92969ZM27.2461-11.2305Q25.5859-11.2305 24.7559-11.9873Q23.9258-12.7441 23.9258-14.5508L23.9258-55.8594Q23.9258-57.7148 24.7559-58.4473Q25.5859-59.1797 27.2461-59.1797L68.5547-59.1797Q70.2637-59.1797 71.0693-58.4473Q71.875-57.7148 71.875-55.8594L71.875-14.5508Q71.875-12.7441 71.0693-11.9873Q70.2637-11.2305 68.5547-11.2305ZM47.9004-17.7734Q51.3184-17.7734 53.2227-19.8975Q55.127-22.0215 55.127-25.7324L55.127-41.8945L58.4961-41.8945Q61.3281-41.8945 62.8662-43.2861Q64.4043-44.6777 64.4043-47.2168Q64.4043-49.707 62.8662-51.123Q61.3281-52.5391 58.4961-52.5391L37.3047-52.5391Q34.4727-52.5391 32.9346-51.123Q31.3965-49.707 31.3965-47.2168Q31.3965-44.6777 32.9346-43.2861Q34.4727-41.8945 37.3047-41.8945L40.6738-41.8945L40.6738-25.7324Q40.6738-21.9727 42.5781-19.873Q44.4824-17.7734 47.9004-17.7734Z"/>
  </g>
  <g id="Heavy-S" transform="matrix(1 0 0 1 2589.4 696)">
   <path d="M24.3652 2.34375L70.2637 2.34375Q77.1973 2.34375 81.0059-1.46484Q84.8145-5.27344 84.8145-12.207L84.8145-58.2031Q84.8145-65.1367 81.0059-68.9453Q77.1973-72.7539 70.2637-72.7539L24.3652-72.7539Q17.3828-72.7539 13.5742-68.9453Q9.76562-65.1367 9.76562-58.2031L9.76562-12.207Q9.76562-5.27344 13.5742-1.46484Q17.3828 2.34375 24.3652 2.34375ZM26.0742-10.1562Q24.1699-10.1562 23.2178-11.0596Q22.2656-11.9629 22.2656-14.0137L22.2656-56.3965Q22.2656-58.4473 23.2178-59.3506Q24.1699-60.2539 26.0742-60.2539L68.5059-60.2539Q70.459-60.2539 71.4111-59.3506Q72.3633-58.4473 72.3633-56.3965L72.3633-14.0137Q72.3633-11.9629 71.4111-11.0596Q70.459-10.1562 68.5059-10.1562ZM47.2656-17.7246Q50.293-17.7246 51.9531-19.5801Q53.6133-21.4355 53.6133-24.707L53.6133-43.2129L58.3496-43.2129Q60.791-43.2129 62.1582-44.4336Q63.5254-45.6543 63.5254-47.9492Q63.5254-50.1465 62.1582-51.416Q60.791-52.6855 58.3496-52.6855L36.1816-52.6855Q33.7402-52.6855 32.373-51.416Q31.0059-50.1465 31.0059-47.9492Q31.0059-45.6543 32.373-44.4336Q33.7402-43.2129 36.1816-43.2129L40.918-43.2129L40.918-24.707Q40.918-21.4355 42.5781-19.5801Q44.2383-17.7246 47.2656-17.7246Z"/>
  </g>
  <g id="Bold-S" transform="matrix(1 0 0 1 2293.35 696)">
   <path d="M23.6328 1.66016L69.6289 1.66016Q76.3672 1.66016 79.9316-1.9043Q83.4961-5.46875 83.4961-12.1094L83.4961-58.3008Q83.4961-64.9902 79.9316-68.5303Q76.3672-72.0703 69.6289-72.0703L23.6328-72.0703Q16.9434-72.0703 13.3545-68.5303Q9.76562-64.9902 9.76562-58.3008L9.76562-12.1094Q9.76562-5.46875 13.3545-1.9043Q16.9434 1.66016 23.6328 1.66016ZM24.8047-8.98438Q22.6562-8.98438 21.5088-10.0586Q20.3613-11.1328 20.3613-13.4277L20.3613-57.0312Q20.3613-59.3262 21.5088-60.4004Q22.6562-61.4746 24.8047-61.4746L68.457-61.4746Q70.6543-61.4746 71.7773-60.4004Q72.9004-59.3262 72.9004-57.0312L72.9004-13.4277Q72.9004-11.1328 71.7773-10.0586Q70.6543-8.98438 68.457-8.98438ZM46.6309-17.627Q49.1699-17.627 50.5859-19.2139Q52.002-20.8008 52.002-23.584L52.002-44.6777L58.252-44.6777Q60.3027-44.6777 61.4746-45.752Q62.6465-46.8262 62.6465-48.7305Q62.6465-50.6348 61.4746-51.7334Q60.3027-52.832 58.252-52.832L35.0098-52.832Q33.0078-52.832 31.8115-51.7334Q30.6152-50.6348 30.6152-48.7305Q30.6152-46.8262 31.8115-45.752Q33.0078-44.6777 35.0098-44.6777L41.3086-44.6777L41.3086-23.584Q41.3086-20.8008 42.6758-19.2139Q44.043-17.627 46.6309-17.627Z"/>
  </g>
  <g id="Semibold-S" transform="matrix(1 0 0 1 1997.12 696)">
   <path d="M23.0957 1.2207L69.1895 1.2207Q75.7324 1.2207 79.126-2.17285Q82.5195-5.56641 82.5195-12.0605L82.5195-58.3496Q82.5195-64.8438 79.126-68.2373Q75.7324-71.6309 69.1895-71.6309L23.0957-71.6309Q16.6016-71.6309 13.1836-68.2373Q9.76562-64.8438 9.76562-58.3496L9.76562-12.0605Q9.76562-5.56641 13.1836-2.17285Q16.6016 1.2207 23.0957 1.2207ZM23.877-8.1543Q21.5332-8.1543 20.2881-9.32617Q19.043-10.498 19.043-12.9883L19.043-57.4219Q19.043-59.8633 20.2881-61.0596Q21.5332-62.2559 23.877-62.2559L68.4082-62.2559Q70.752-62.2559 71.9971-61.0596Q73.2422-59.8633 73.2422-57.4219L73.2422-12.9883Q73.2422-10.498 71.9971-9.32617Q70.752-8.1543 68.4082-8.1543ZM46.0938-17.5781Q48.3398-17.5781 49.5605-18.9697Q50.7812-20.3613 50.7812-22.7539L50.7812-45.6543L58.1055-45.6543Q59.8633-45.6543 60.9131-46.6064Q61.9629-47.5586 61.9629-49.2676Q61.9629-50.9766 60.9131-51.9287Q59.8633-52.8809 58.1055-52.8809L34.1309-52.8809Q32.4219-52.8809 31.3477-51.9287Q30.2734-50.9766 30.2734-49.2676Q30.2734-47.5586 31.3477-46.6064Q32.4219-45.6543 34.1309-45.6543L41.4551-45.6543L41.4551-22.7539Q41.4551-20.3613 42.6514-18.9697Q43.8477-17.5781 46.0938-17.5781Z"/>
  </g>
  <g id="Medium-S" transform="matrix(1 0 0 1 1700.75 696)">
   <path d="M22.7051 0.830078L68.8965 0.830078Q75.293 0.830078 78.5645-2.41699Q81.8359-5.66406 81.8359-11.9629L81.8359-58.4473Q81.8359-64.7461 78.5645-67.9932Q75.293-71.2402 68.8965-71.2402L22.7051-71.2402Q16.3574-71.2402 13.0615-67.9932Q9.76562-64.7461 9.76562-58.4473L9.76562-11.9629Q9.76562-5.66406 13.0615-2.41699Q16.3574 0.830078 22.7051 0.830078ZM23.1934-7.51953Q20.752-7.51953 19.4092-8.78906Q18.0664-10.0586 18.0664-12.6465L18.0664-57.7637Q18.0664-60.3027 19.4092-61.5967Q20.752-62.8906 23.1934-62.8906L68.4082-62.8906Q70.8496-62.8906 72.1924-61.5967Q73.5352-60.3027 73.5352-57.7637L73.5352-12.6465Q73.5352-10.0586 72.1924-8.78906Q70.8496-7.51953 68.4082-7.51953ZM45.7031-17.5293Q47.7539-17.5293 48.8281-18.7744Q49.9023-20.0195 49.9023-22.168L49.9023-46.4355L58.0566-46.4355Q59.5703-46.4355 60.5225-47.3145Q61.4746-48.1934 61.4746-49.707Q61.4746-51.2207 60.5225-52.0996Q59.5703-52.9785 58.0566-52.9785L33.4961-52.9785Q31.9824-52.9785 31.0303-52.0996Q30.0781-51.2207 30.0781-49.707Q30.0781-48.1934 31.0303-47.3145Q31.9824-46.4355 33.4961-46.4355L41.6016-46.4355L41.6016-22.168Q41.6016-20.0684 42.6514-18.7988Q43.7012-17.5293 45.7031-17.5293Z"/>
  </g>
  <g id="Regular-S" transform="matrix(1 0 0 1 1404.51 696)">
   <path d="M22.2168 0.390625L68.457 0.390625Q74.707 0.390625 77.8076-2.68555Q80.9082-5.76172 80.9082-11.9141L80.9082-58.4961Q80.9082-64.6484 77.8076-67.7246Q74.707-70.8008 68.457-70.8008L22.2168-70.8008Q16.0156-70.8008 12.8906-67.7246Q9.76562-64.6484 9.76562-58.4961L9.76562-11.9141Q9.76562-5.76172 12.8906-2.68555Q16.0156 0.390625 22.2168 0.390625ZM22.3145-6.68945Q19.6777-6.68945 18.2373-8.08105Q16.7969-9.47266 16.7969-12.2559L16.7969-58.1543Q16.7969-60.8887 18.2373-62.3047Q19.6777-63.7207 22.3145-63.7207L68.3594-63.7207Q70.9961-63.7207 72.4365-62.3047Q73.877-60.8887 73.877-58.1543L73.877-12.2559Q73.877-9.47266 72.4365-8.08105Q70.9961-6.68945 68.3594-6.68945ZM45.2637-17.4805Q46.9727-17.4805 47.876-18.5303Q48.7793-19.5801 48.7793-21.3867L48.7793-47.4121L57.959-47.4121Q59.1797-47.4121 60.0098-48.1689Q60.8398-48.9258 60.8398-50.2441Q60.8398-51.5625 60.0098-52.3193Q59.1797-53.0762 57.959-53.0762L32.666-53.0762Q31.4453-53.0762 30.6152-52.3193Q29.7852-51.5625 29.7852-50.2441Q29.7852-48.9258 30.6152-48.1689Q31.4453-47.4121 32.666-47.4121L41.8457-47.4121L41.8457-21.3867Q41.8457-19.6289 42.7002-18.5547Q43.5547-17.4805 45.2637-17.4805Z"/>
  </g>
  <g id="Light-S" transform="matrix(1 0 0 1 1108.46 696)">
   <path d="M21.3867-0.244141L67.9688-0.244141Q73.7793-0.244141 76.6846-3.17383Q79.5898-6.10352 79.5898-11.8164L79.5898-58.5938Q79.5898-64.3066 76.6846-67.2119Q73.7793-70.1172 67.9688-70.1172L21.3867-70.1172Q15.625-70.1172 12.6953-67.2119Q9.76562-64.3066 9.76562-58.5938L9.76562-11.8164Q9.76562-6.05469 12.6953-3.14941Q15.625-0.244141 21.3867-0.244141ZM21.4844-5.71289Q18.457-5.71289 16.8213-7.2998Q15.1855-8.88672 15.1855-12.0605L15.1855-58.3008Q15.1855-61.4258 16.8213-63.0371Q18.457-64.6484 21.4844-64.6484L67.8711-64.6484Q70.8984-64.6484 72.5342-63.0371Q74.1699-61.4258 74.1699-58.3008L74.1699-12.0605Q74.1699-8.88672 72.5342-7.2998Q70.8984-5.71289 67.8711-5.71289ZM44.5801-17.6758Q45.8984-17.6758 46.6064-18.4814Q47.3145-19.2871 47.3145-20.6543L47.3145-48.2422L57.0801-48.2422Q58.0566-48.2422 58.7158-48.8525Q59.375-49.4629 59.375-50.4883Q59.375-51.5137 58.7158-52.124Q58.0566-52.7344 57.0801-52.7344L32.2754-52.7344Q31.2988-52.7344 30.6396-52.124Q29.9805-51.5137 29.9805-50.4883Q29.9805-49.4629 30.6396-48.8525Q31.2988-48.2422 32.2754-48.2422L41.8945-48.2422L41.8945-20.6543Q41.8945-19.3359 42.5781-18.5059Q43.2617-17.6758 44.5801-17.6758Z"/>
  </g>
  <g id="Thin-S" transform="matrix(1 0 0 1 812.623 696)">
   <path d="M20.3125-1.12305L67.2852-1.12305Q72.5098-1.12305 75.1709-3.80859Q77.832-6.49414 77.832-11.6211L77.832-58.6914Q77.832-63.8184 75.1709-66.5283Q72.5098-69.2383 67.2852-69.2383L20.3125-69.2383Q15.0879-69.2383 12.4268-66.5771Q9.76562-63.916 9.76562-58.6914L9.76562-11.6211Q9.76562-6.44531 12.4268-3.78418Q15.0879-1.12305 20.3125-1.12305ZM20.4102-4.44336Q16.7969-4.44336 14.9414-6.29883Q13.0859-8.1543 13.0859-11.8164L13.0859-58.5449Q13.0859-62.207 14.9414-64.0625Q16.7969-65.918 20.4102-65.918L67.1875-65.918Q70.7031-65.918 72.6318-64.0625Q74.5605-62.207 74.5605-58.5449L74.5605-11.8164Q74.5605-8.1543 72.6318-6.29883Q70.7031-4.44336 67.1875-4.44336ZM43.6035-17.9199Q44.3848-17.9199 44.8486-18.4326Q45.3125-18.9453 45.3125-19.7266L45.3125-49.3652L55.8594-49.3652Q56.4941-49.3652 56.9336-49.7803Q57.373-50.1953 57.373-50.8301Q57.373-51.5137 56.9336-51.9043Q56.4941-52.2949 55.8594-52.2949L31.6895-52.2949Q31.0547-52.2949 30.6396-51.9043Q30.2246-51.5137 30.2246-50.8301Q30.2246-50.1953 30.6396-49.7803Q31.0547-49.3652 31.6895-49.3652L41.9434-49.3652L41.9434-19.7266Q41.9434-18.9453 42.3828-18.4326Q42.8223-17.9199 43.6035-17.9199Z"/>
  </g>
  <g id="Ultralight-S" transform="matrix(1 0 0 1 516.352 696)">
   <path d="M19.7754-1.5625L66.9434-1.5625Q71.875-1.5625 74.4141-4.15039Q76.9531-6.73828 76.9531-11.5723L76.9531-58.7891Q76.9531-63.623 74.4141-66.1865Q71.875-68.75 66.9434-68.75L19.7754-68.75Q14.8438-68.75 12.3047-66.2109Q9.76562-63.6719 9.76562-58.7891L9.76562-11.5723Q9.76562-6.64062 12.3047-4.10156Q14.8438-1.5625 19.7754-1.5625ZM19.873-3.75977Q15.9668-3.75977 13.9648-5.76172Q11.9629-7.76367 11.9629-11.6699L11.9629-58.6426Q11.9629-62.5488 13.9648-64.5508Q15.9668-66.5527 19.873-66.5527L66.8457-66.5527Q70.6543-66.5527 72.7051-64.5508Q74.7559-62.5488 74.7559-58.6426L74.7559-11.6699Q74.7559-7.76367 72.7051-5.76172Q70.6543-3.75977 66.8457-3.75977ZM43.1641-18.0664Q43.7012-18.0664 43.9941-18.4326Q44.2871-18.7988 44.2871-19.2871L44.2871-49.9512L55.2734-49.9512Q55.7617-49.9512 56.0547-50.2686Q56.3477-50.5859 56.3477-51.0254Q56.3477-51.5137 56.0547-51.8066Q55.7617-52.0996 55.2734-52.0996L31.3965-52.0996Q30.957-52.0996 30.6641-51.8066Q30.3711-51.5137 30.3711-51.0254Q30.3711-50.5859 30.6641-50.2686Q30.957-49.9512 31.3965-49.9512L41.9922-49.9512L41.9922-19.2871Q41.9922-18.75 42.3096-18.4082Q42.627-18.0664 43.1641-18.0664Z"/>
  </g>
 </g>
</svg>
